ISO-10303-21;
HEADER;
/* Generated by software containing ST-Developer
 * from STEP Tools, Inc. (www.steptools.com) 
 */

FILE_DESCRIPTION(
/* description */ (''),
/* implementation_level */ '2;1');

FILE_NAME(
/* name */ 'neck_pitch.step',
/* time_stamp */ '2026-09-08T16:11:48-06:00',
/* author */ (''),
/* organization */ (''),
/* preprocessor_version */ 'ST-DEVELOPER v20.2',
/* originating_system */ 'Autodesk Translation Framework v15.15.0.0',
/* authorisation */ '');

FILE_SCHEMA (('AUTOMOTIVE_DESIGN { 1 0 10303 214 3 1 1 }'));
ENDSEC;

DATA;
#10=MECHANICAL_DESIGN_GEOMETRIC_PRESENTATION_REPRESENTATION('',(#13),#1572);
#11=SHAPE_REPRESENTATION_RELATIONSHIP('SRR','None',#1579,#12);
#12=ADVANCED_BREP_SHAPE_REPRESENTATION('',(#14),#1571);
#13=STYLED_ITEM('',(#1588),#14);
#14=MANIFOLD_SOLID_BREP('MeshBody1',#811);
#15=CYLINDRICAL_SURFACE('',#832,2.19999997668898);
#16=CYLINDRICAL_SURFACE('',#834,1.10000001631859);
#17=CYLINDRICAL_SURFACE('',#837,2.19999999289854);
#18=CYLINDRICAL_SURFACE('',#839,2.19999997607839);
#19=CYLINDRICAL_SURFACE('',#841,2.99999981572478);
#20=CYLINDRICAL_SURFACE('',#844,1.10000005203274);
#21=CYLINDRICAL_SURFACE('',#847,2.99999981572478);
#22=CYLINDRICAL_SURFACE('',#850,8.99999976158142);
#23=CYLINDRICAL_SURFACE('',#853,1.10000001631859);
#24=CYLINDRICAL_SURFACE('',#856,7.99999996014339);
#25=CYLINDRICAL_SURFACE('',#859,1.10000004710476);
#26=CYLINDRICAL_SURFACE('',#862,1.10000004710476);
#27=CYLINDRICAL_SURFACE('',#865,1.10000004710476);
#28=CYLINDRICAL_SURFACE('',#868,1.10000004710476);
#29=CYLINDRICAL_SURFACE('',#871,1.09999998680203);
#30=CYLINDRICAL_SURFACE('',#874,8.99999976158142);
#31=CYLINDRICAL_SURFACE('',#877,1.09999998680203);
#32=CYLINDRICAL_SURFACE('',#880,1.10000005203274);
#33=CYLINDRICAL_SURFACE('',#883,8.99999991161251);
#34=CYLINDRICAL_SURFACE('',#889,1.10000001631859);
#35=CYLINDRICAL_SURFACE('',#892,2.19999964249121);
#36=CYLINDRICAL_SURFACE('',#894,1.10000001631859);
#37=CYLINDRICAL_SURFACE('',#897,2.99999998644536);
#38=FACE_BOUND('',#230,.T.);
#39=FACE_BOUND('',#231,.T.);
#40=FACE_BOUND('',#232,.T.);
#41=FACE_BOUND('',#233,.T.);
#42=FACE_BOUND('',#234,.T.);
#43=FACE_BOUND('',#260,.T.);
#44=FACE_BOUND('',#262,.T.);
#45=FACE_BOUND('',#267,.T.);
#46=FACE_BOUND('',#268,.T.);
#47=FACE_BOUND('',#269,.T.);
#48=FACE_BOUND('',#270,.T.);
#49=FACE_BOUND('',#271,.T.);
#50=FACE_BOUND('',#273,.T.);
#51=FACE_BOUND('',#275,.T.);
#52=FACE_BOUND('',#276,.T.);
#53=FACE_BOUND('',#277,.T.);
#54=FACE_BOUND('',#278,.T.);
#55=FACE_BOUND('',#279,.T.);
#56=FACE_BOUND('',#281,.T.);
#57=FACE_BOUND('',#282,.T.);
#58=FACE_BOUND('',#283,.T.);
#59=FACE_BOUND('',#284,.T.);
#60=FACE_BOUND('',#285,.T.);
#61=FACE_BOUND('',#288,.T.);
#62=FACE_BOUND('',#289,.T.);
#63=FACE_BOUND('',#290,.T.);
#64=FACE_BOUND('',#291,.T.);
#65=FACE_BOUND('',#292,.T.);
#66=FACE_BOUND('',#295,.T.);
#67=FACE_BOUND('',#296,.T.);
#68=FACE_BOUND('',#297,.T.);
#69=FACE_BOUND('',#298,.T.);
#70=FACE_BOUND('',#299,.T.);
#71=FACE_BOUND('',#301,.T.);
#72=FACE_BOUND('',#303,.T.);
#73=LINE('',#1167,#121);
#74=LINE('',#1169,#122);
#75=LINE('',#1171,#123);
#76=LINE('',#1173,#124);
#77=LINE('',#1175,#125);
#78=LINE('',#1179,#126);
#79=LINE('',#1181,#127);
#80=LINE('',#1183,#128);
#81=LINE('',#1185,#129);
#82=LINE('',#1187,#130);
#83=LINE('',#1192,#131);
#84=LINE('',#1205,#132);
#85=LINE('',#1405,#133);
#86=LINE('',#1411,#134);
#87=LINE('',#1416,#135);
#88=LINE('',#1419,#136);
#89=LINE('',#1425,#137);
#90=LINE('',#1431,#138);
#91=LINE('',#1437,#139);
#92=LINE('',#1443,#140);
#93=LINE('',#1449,#141);
#94=LINE('',#1455,#142);
#95=LINE('',#1461,#143);
#96=LINE('',#1467,#144);
#97=LINE('',#1473,#145);
#98=LINE('',#1479,#146);
#99=LINE('',#1485,#147);
#100=LINE('',#1491,#148);
#101=LINE('',#1497,#149);
#102=LINE('',#1503,#150);
#103=LINE('',#1511,#151);
#104=LINE('',#1515,#152);
#105=LINE('',#1522,#153);
#106=LINE('',#1526,#154);
#107=LINE('',#1532,#155);
#108=LINE('',#1537,#156);
#109=LINE('',#1542,#157);
#110=LINE('',#1544,#158);
#111=LINE('',#1545,#159);
#112=LINE('',#1548,#160);
#113=LINE('',#1550,#161);
#114=LINE('',#1551,#162);
#115=LINE('',#1553,#163);
#116=LINE('',#1557,#164);
#117=LINE('',#1559,#165);
#118=LINE('',#1561,#166);
#119=LINE('',#1562,#167);
#120=LINE('',#1563,#168);
#121=VECTOR('',#922,10.);
#122=VECTOR('',#923,10.);
#123=VECTOR('',#924,10.);
#124=VECTOR('',#925,10.);
#125=VECTOR('',#926,10.);
#126=VECTOR('',#929,10.);
#127=VECTOR('',#930,10.);
#128=VECTOR('',#931,10.);
#129=VECTOR('',#932,10.);
#130=VECTOR('',#933,10.);
#131=VECTOR('',#934,10.);
#132=VECTOR('',#937,10.);
#133=VECTOR('',#944,10.);
#134=VECTOR('',#951,10.);
#135=VECTOR('',#958,10.);
#136=VECTOR('',#961,10.);
#137=VECTOR('',#968,10.);
#138=VECTOR('',#975,10.);
#139=VECTOR('',#982,10.);
#140=VECTOR('',#989,10.);
#141=VECTOR('',#996,10.);
#142=VECTOR('',#1003,10.);
#143=VECTOR('',#1010,10.);
#144=VECTOR('',#1017,10.);
#145=VECTOR('',#1024,10.);
#146=VECTOR('',#1031,10.);
#147=VECTOR('',#1038,10.);
#148=VECTOR('',#1045,10.);
#149=VECTOR('',#1052,10.);
#150=VECTOR('',#1059,10.);
#151=VECTOR('',#1068,10.);
#152=VECTOR('',#1071,10.);
#153=VECTOR('',#1080,10.);
#154=VECTOR('',#1085,10.);
#155=VECTOR('',#1092,10.);
#156=VECTOR('',#1099,10.);
#157=VECTOR('',#1106,10.);
#158=VECTOR('',#1107,10.);
#159=VECTOR('',#1108,10.);
#160=VECTOR('',#1111,10.);
#161=VECTOR('',#1112,10.);
#162=VECTOR('',#1113,10.);
#163=VECTOR('',#1116,10.);
#164=VECTOR('',#1123,10.);
#165=VECTOR('',#1126,10.);
#166=VECTOR('',#1129,10.);
#167=VECTOR('',#1130,10.);
#168=VECTOR('',#1131,10.);
#169=PLANE('',#827);
#170=PLANE('',#899);
#171=PLANE('',#900);
#172=PLANE('',#901);
#173=PLANE('',#902);
#174=PLANE('',#903);
#175=PLANE('',#904);
#176=PLANE('',#905);
#177=PLANE('',#906);
#178=PLANE('',#907);
#179=PLANE('',#908);
#180=PLANE('',#909);
#181=PLANE('',#910);
#182=PLANE('',#911);
#183=PLANE('',#912);
#184=PLANE('',#913);
#185=FACE_OUTER_BOUND('',#227,.T.);
#186=FACE_OUTER_BOUND('',#228,.T.);
#187=FACE_OUTER_BOUND('',#229,.T.);
#188=FACE_OUTER_BOUND('',#235,.T.);
#189=FACE_OUTER_BOUND('',#236,.T.);
#190=FACE_OUTER_BOUND('',#237,.T.);
#191=FACE_OUTER_BOUND('',#238,.T.);
#192=FACE_OUTER_BOUND('',#239,.T.);
#193=FACE_OUTER_BOUND('',#240,.T.);
#194=FACE_OUTER_BOUND('',#241,.T.);
#195=FACE_OUTER_BOUND('',#242,.T.);
#196=FACE_OUTER_BOUND('',#243,.T.);
#197=FACE_OUTER_BOUND('',#244,.T.);
#198=FACE_OUTER_BOUND('',#245,.T.);
#199=FACE_OUTER_BOUND('',#246,.T.);
#200=FACE_OUTER_BOUND('',#247,.T.);
#201=FACE_OUTER_BOUND('',#248,.T.);
#202=FACE_OUTER_BOUND('',#249,.T.);
#203=FACE_OUTER_BOUND('',#250,.T.);
#204=FACE_OUTER_BOUND('',#251,.T.);
#205=FACE_OUTER_BOUND('',#252,.T.);
#206=FACE_OUTER_BOUND('',#253,.T.);
#207=FACE_OUTER_BOUND('',#254,.T.);
#208=FACE_OUTER_BOUND('',#255,.T.);
#209=FACE_OUTER_BOUND('',#256,.T.);
#210=FACE_OUTER_BOUND('',#257,.T.);
#211=FACE_OUTER_BOUND('',#258,.T.);
#212=FACE_OUTER_BOUND('',#259,.T.);
#213=FACE_OUTER_BOUND('',#261,.T.);
#214=FACE_OUTER_BOUND('',#263,.T.);
#215=FACE_OUTER_BOUND('',#264,.T.);
#216=FACE_OUTER_BOUND('',#265,.T.);
#217=FACE_OUTER_BOUND('',#266,.T.);
#218=FACE_OUTER_BOUND('',#272,.T.);
#219=FACE_OUTER_BOUND('',#274,.T.);
#220=FACE_OUTER_BOUND('',#280,.T.);
#221=FACE_OUTER_BOUND('',#286,.T.);
#222=FACE_OUTER_BOUND('',#287,.T.);
#223=FACE_OUTER_BOUND('',#293,.T.);
#224=FACE_OUTER_BOUND('',#294,.T.);
#225=FACE_OUTER_BOUND('',#300,.T.);
#226=FACE_OUTER_BOUND('',#302,.T.);
#227=EDGE_LOOP('',(#548,#549,#550,#551));
#228=EDGE_LOOP('',(#552,#553,#554,#555,#556,#557,#558,#559,#560,#561,#562,
#563,#564,#565));
#229=EDGE_LOOP('',(#566,#567,#568,#569));
#230=EDGE_LOOP('',(#570,#571));
#231=EDGE_LOOP('',(#572,#573));
#232=EDGE_LOOP('',(#574));
#233=EDGE_LOOP('',(#575));
#234=EDGE_LOOP('',(#576,#577));
#235=EDGE_LOOP('',(#578,#579,#580,#581));
#236=EDGE_LOOP('',(#582,#583,#584,#585,#586));
#237=EDGE_LOOP('',(#587,#588,#589,#590));
#238=EDGE_LOOP('',(#591,#592,#593,#594));
#239=EDGE_LOOP('',(#595,#596,#597,#598,#599));
#240=EDGE_LOOP('',(#600,#601,#602,#603));
#241=EDGE_LOOP('',(#604,#605,#606,#607));
#242=EDGE_LOOP('',(#608,#609,#610,#611));
#243=EDGE_LOOP('',(#612,#613,#614,#615));
#244=EDGE_LOOP('',(#616,#617,#618,#619));
#245=EDGE_LOOP('',(#620,#621,#622,#623));
#246=EDGE_LOOP('',(#624,#625,#626,#627));
#247=EDGE_LOOP('',(#628,#629,#630,#631));
#248=EDGE_LOOP('',(#632,#633,#634,#635));
#249=EDGE_LOOP('',(#636,#637,#638,#639));
#250=EDGE_LOOP('',(#640,#641,#642,#643));
#251=EDGE_LOOP('',(#644,#645,#646,#647));
#252=EDGE_LOOP('',(#648,#649,#650,#651));
#253=EDGE_LOOP('',(#652,#653,#654,#655));
#254=EDGE_LOOP('',(#656,#657,#658,#659,#660,#661,#662,#663,#664));
#255=EDGE_LOOP('',(#665,#666,#667,#668));
#256=EDGE_LOOP('',(#669,#670,#671,#672,#673));
#257=EDGE_LOOP('',(#674,#675,#676,#677));
#258=EDGE_LOOP('',(#678,#679,#680,#681));
#259=EDGE_LOOP('',(#682));
#260=EDGE_LOOP('',(#683));
#261=EDGE_LOOP('',(#684));
#262=EDGE_LOOP('',(#685));
#263=EDGE_LOOP('',(#686,#687,#688,#689));
#264=EDGE_LOOP('',(#690,#691,#692,#693));
#265=EDGE_LOOP('',(#694,#695,#696,#697,#698));
#266=EDGE_LOOP('',(#699));
#267=EDGE_LOOP('',(#700));
#268=EDGE_LOOP('',(#701));
#269=EDGE_LOOP('',(#702));
#270=EDGE_LOOP('',(#703));
#271=EDGE_LOOP('',(#704));
#272=EDGE_LOOP('',(#705));
#273=EDGE_LOOP('',(#706));
#274=EDGE_LOOP('',(#707,#708,#709,#710));
#275=EDGE_LOOP('',(#711));
#276=EDGE_LOOP('',(#712));
#277=EDGE_LOOP('',(#713));
#278=EDGE_LOOP('',(#714));
#279=EDGE_LOOP('',(#715));
#280=EDGE_LOOP('',(#716,#717,#718,#719));
#281=EDGE_LOOP('',(#720));
#282=EDGE_LOOP('',(#721));
#283=EDGE_LOOP('',(#722));
#284=EDGE_LOOP('',(#723));
#285=EDGE_LOOP('',(#724));
#286=EDGE_LOOP('',(#725,#726,#727,#728,#729,#730,#731,#732,#733,#734,#735,
#736,#737,#738,#739));
#287=EDGE_LOOP('',(#740,#741,#742,#743));
#288=EDGE_LOOP('',(#744));
#289=EDGE_LOOP('',(#745));
#290=EDGE_LOOP('',(#746));
#291=EDGE_LOOP('',(#747));
#292=EDGE_LOOP('',(#748));
#293=EDGE_LOOP('',(#749,#750,#751,#752));
#294=EDGE_LOOP('',(#753,#754,#755,#756));
#295=EDGE_LOOP('',(#757));
#296=EDGE_LOOP('',(#758));
#297=EDGE_LOOP('',(#759));
#298=EDGE_LOOP('',(#760));
#299=EDGE_LOOP('',(#761));
#300=EDGE_LOOP('',(#762));
#301=EDGE_LOOP('',(#763));
#302=EDGE_LOOP('',(#764));
#303=EDGE_LOOP('',(#765));
#304=B_SPLINE_CURVE_WITH_KNOTS('',3,(#1152,#1153,#1154,#1155,#1156,#1157,
#1158,#1159,#1160,#1161),.UNSPECIFIED.,.F.,.F.,(4,2,2,2,4),(-7.17246551983038,
-6.75445873115158,-6.23488498951071,-5.71531124395249,-5.29730445150894),
 .UNSPECIFIED.);
#305=B_SPLINE_CURVE_WITH_KNOTS('',3,(#1195,#1196,#1197,#1198,#1199,#1200,
#1201,#1202,#1203,#1204),.UNSPECIFIED.,.F.,.F.,(4,2,2,2,4),(-3.01648073116257,
-2.59883032401996,-2.07907326828628,-1.55926007095952,-1.14128963182159),
 .UNSPECIFIED.);
#306=B_SPLINE_CURVE_WITH_KNOTS('',3,(#1208,#1209,#1210,#1211,#1212,#1213,
#1214,#1215,#1216,#1217,#1218,#1219,#1220,#1221,#1222,#1223,#1224,#1225),
 .UNSPECIFIED.,.F.,.F.,(4,2,2,2,2,2,2,2,4),(0.332094007694706,0.415116580427418,
0.498139153160129,0.581163584111362,0.664188015062595,0.747212639950952,
0.83023726483931,0.913260034436368,0.996282804033426),.UNSPECIFIED.);
#307=B_SPLINE_CURVE_WITH_KNOTS('',3,(#1226,#1227,#1228,#1229,#1230,#1231,
#1232,#1233,#1234,#1235,#1236,#1237,#1238,#1239,#1240,#1241,#1242,#1243,
#1244),.UNSPECIFIED.,.F.,.F.,(4,2,2,2,3,2,2,2,4),(0.996282804033426,1.07930557366228,
1.16232834329114,1.24535296820924,1.32837759312733,1.41140202410509,1.49442645508285,
1.57744902785057,1.66047160061829),.UNSPECIFIED.);
#308=B_SPLINE_CURVE_WITH_KNOTS('',3,(#1247,#1248,#1249,#1250,#1251,#1252,
#1253,#1254,#1255,#1256,#1257,#1258,#1259,#1260,#1261,#1262,#1263,#1264,
#1265,#1266,#1267),.UNSPECIFIED.,.F.,.F.,(4,2,2,2,3,2,2,2,2,4),(1.04771996387843,
1.1439309671159,1.24014316965202,1.32338133639007,1.40661950312811,1.49347018709152,
1.58032087105493,1.6729635090656,1.76560614707626,1.76560734031131),
 .UNSPECIFIED.);
#309=B_SPLINE_CURVE_WITH_KNOTS('',3,(#1268,#1269,#1270,#1271,#1272,#1273,
#1274,#1275,#1276,#1277,#1278,#1279,#1280,#1281,#1282,#1283,#1284,#1285,
#1286,#1287),.UNSPECIFIED.,.F.,.F.,(4,2,2,2,2,2,2,2,2,4),(1.76560734031131,
1.85402554159451,1.94244493611276,2.0262089915512,2.10997304698964,2.19230325819082,
2.274633469392,2.36448586854994,2.45433826770788,2.45433946700654),
 .UNSPECIFIED.);
#310=B_SPLINE_CURVE_WITH_KNOTS('',3,(#1289,#1290,#1291,#1292,#1293,#1294,
#1295,#1296,#1297,#1298,#1299,#1300,#1301,#1302,#1303,#1304,#1305,#1306,
#1307,#1308,#1309,#1310,#1311,#1312,#1313,#1314,#1315,#1316,#1317,#1318,
#1319,#1320,#1321,#1322),.UNSPECIFIED.,.T.,.F.,(4,2,2,2,2,2,2,2,2,2,2,2,
2,2,2,2,4),(0.,0.0868507026370629,0.173701405274126,0.266344066633059,0.358986727991992,
0.447406139948992,0.535825551905992,0.619589620680844,0.703353689455695,
0.785683913912153,0.868014138368611,0.957866558211708,1.0477189780548,1.14393120462451,
1.24014343119422,1.32338160984282,1.40661978849142),.UNSPECIFIED.);
#311=B_SPLINE_CURVE_WITH_KNOTS('',3,(#1324,#1325,#1326,#1327,#1328,#1329,
#1330,#1331,#1332,#1333,#1334,#1335,#1336,#1337,#1338,#1339,#1340,#1341,
#1342,#1343,#1344,#1345,#1346,#1347,#1348,#1349,#1350,#1351,#1352,#1353,
#1354,#1355,#1356,#1357),.UNSPECIFIED.,.T.,.F.,(4,2,2,2,2,2,2,2,2,2,2,2,
2,2,2,2,4),(0.,0.113401283133056,0.226802566266113,0.340194893574133,0.453587220882153,
0.566979548238465,0.680371875594777,0.793773158733703,0.90717444187263,
1.02057608509563,1.13397772831862,1.24737042211272,1.36076311590681,1.47415580966884,
1.58754850343086,1.70095014663177,1.81435178983267),.UNSPECIFIED.);
#312=B_SPLINE_CURVE_WITH_KNOTS('',3,(#1360,#1361,#1362,#1363,#1364,#1365,
#1366,#1367,#1368,#1369,#1370,#1371,#1372,#1373,#1374,#1375,#1376,#1377),
 .UNSPECIFIED.,.F.,.F.,(4,2,2,2,2,2,2,2,4),(0.332094020292503,0.415116595847651,
0.498139171402798,0.581163605182889,0.66418803896298,0.747212666838232,
0.830237294713483,0.91326006719589,0.996282839678297),.UNSPECIFIED.);
#313=B_SPLINE_CURVE_WITH_KNOTS('',3,(#1378,#1379,#1380,#1381,#1382,#1383,
#1384,#1385,#1386,#1387,#1388,#1389,#1390,#1391,#1392,#1393,#1394,#1395,
#1396),.UNSPECIFIED.,.F.,.F.,(4,2,2,2,3,2,2,2,4),(0.996282839678297,1.07930561232448,
1.16232838497067,1.24535301299677,1.32837764102287,1.4114020749337,1.49442650884453,
1.57744908458357,1.6604716603226),.UNSPECIFIED.);
#314=(
BOUNDED_CURVE()
B_SPLINE_CURVE(2,(#1148,#1149,#1150),.UNSPECIFIED.,.F.,.F.)
B_SPLINE_CURVE_WITH_KNOTS((3,3),(0.0571373328411743,0.465959393847039),
 .UNSPECIFIED.)
CURVE()
GEOMETRIC_REPRESENTATION_ITEM()
RATIONAL_B_SPLINE_CURVE((1.02689228034468,1.12084860171979,1.18258049209106))
REPRESENTATION_ITEM('')
);
#315=(
BOUNDED_CURVE()
B_SPLINE_CURVE(2,(#1162,#1163,#1164),.UNSPECIFIED.,.F.,.F.)
B_SPLINE_CURVE_WITH_KNOTS((3,3),(-1.59169459755309,-0.941354645346936),
 .UNSPECIFIED.)
CURVE()
GEOMETRIC_REPRESENTATION_ITEM()
RATIONAL_B_SPLINE_CURVE((1.71933932144842,1.62970093012893,1.4932252757263))
REPRESENTATION_ITEM('')
);
#316=(
BOUNDED_CURVE()
B_SPLINE_CURVE(2,(#1189,#1190,#1191),.UNSPECIFIED.,.F.,.F.)
B_SPLINE_CURVE_WITH_KNOTS((3,3),(0.0849026006496464,0.641219600459343),
 .UNSPECIFIED.)
CURVE()
GEOMETRIC_REPRESENTATION_ITEM()
RATIONAL_B_SPLINE_CURVE((1.00525682921898,1.0198611120641,1.00015461965394))
REPRESENTATION_ITEM('')
);
#317=(
BOUNDED_CURVE()
B_SPLINE_CURVE(2,(#1400,#1401,#1402),.UNSPECIFIED.,.F.,.F.)
B_SPLINE_CURVE_WITH_KNOTS((3,3),(-4.73130142777591,-4.08097015676175),
 .UNSPECIFIED.)
CURVE()
GEOMETRIC_REPRESENTATION_ITEM()
RATIONAL_B_SPLINE_CURVE((1.4932289192627,1.6297021266848,1.71933932144841))
REPRESENTATION_ITEM('')
);
#318=CIRCLE('',#826,10.7940523177181);
#319=CIRCLE('',#828,8.99999991161251);
#320=CIRCLE('',#831,10.7940523177181);
#321=CIRCLE('',#833,2.19999997668898);
#322=CIRCLE('',#835,1.10000001631859);
#323=CIRCLE('',#836,1.10000001631859);
#324=CIRCLE('',#838,2.19999999289854);
#325=CIRCLE('',#840,2.19999997607839);
#326=CIRCLE('',#842,2.99999981572478);
#327=CIRCLE('',#843,2.99999981572478);
#328=CIRCLE('',#845,1.10000005203274);
#329=CIRCLE('',#846,1.10000005203274);
#330=CIRCLE('',#848,2.99999981572478);
#331=CIRCLE('',#849,2.99999981572478);
#332=CIRCLE('',#851,8.99999976158142);
#333=CIRCLE('',#852,8.99999976158142);
#334=CIRCLE('',#854,1.10000001631859);
#335=CIRCLE('',#855,1.10000001631859);
#336=CIRCLE('',#857,7.99999996014339);
#337=CIRCLE('',#858,7.99999996014339);
#338=CIRCLE('',#860,1.10000004710476);
#339=CIRCLE('',#861,1.10000004710476);
#340=CIRCLE('',#863,1.10000004710476);
#341=CIRCLE('',#864,1.10000004710476);
#342=CIRCLE('',#866,1.10000004710476);
#343=CIRCLE('',#867,1.10000004710476);
#344=CIRCLE('',#869,1.10000004710476);
#345=CIRCLE('',#870,1.10000004710476);
#346=CIRCLE('',#872,1.09999998680203);
#347=CIRCLE('',#873,1.09999998680203);
#348=CIRCLE('',#875,8.99999976158142);
#349=CIRCLE('',#876,8.99999976158142);
#350=CIRCLE('',#878,1.09999998680203);
#351=CIRCLE('',#879,1.09999998680203);
#352=CIRCLE('',#881,1.10000005203274);
#353=CIRCLE('',#882,1.10000005203274);
#354=CIRCLE('',#884,8.99999991161251);
#355=CIRCLE('',#885,8.99999991161251);
#356=CIRCLE('',#886,8.99999991161251);
#357=CIRCLE('',#887,8.99999991161251);
#358=CIRCLE('',#888,8.99999991161251);
#359=CIRCLE('',#890,1.10000001631859);
#360=CIRCLE('',#891,1.10000001631859);
#361=CIRCLE('',#893,2.19999964249123);
#362=CIRCLE('',#895,1.10000001631859);
#363=CIRCLE('',#896,1.10000001631859);
#364=CIRCLE('',#898,2.99999998644536);
#365=VERTEX_POINT('',#1144);
#366=VERTEX_POINT('',#1145);
#367=VERTEX_POINT('',#1147);
#368=VERTEX_POINT('',#1151);
#369=VERTEX_POINT('',#1166);
#370=VERTEX_POINT('',#1168);
#371=VERTEX_POINT('',#1170);
#372=VERTEX_POINT('',#1172);
#373=VERTEX_POINT('',#1174);
#374=VERTEX_POINT('',#1176);
#375=VERTEX_POINT('',#1178);
#376=VERTEX_POINT('',#1180);
#377=VERTEX_POINT('',#1182);
#378=VERTEX_POINT('',#1184);
#379=VERTEX_POINT('',#1186);
#380=VERTEX_POINT('',#1188);
#381=VERTEX_POINT('',#1194);
#382=VERTEX_POINT('',#1206);
#383=VERTEX_POINT('',#1207);
#384=VERTEX_POINT('',#1245);
#385=VERTEX_POINT('',#1246);
#386=VERTEX_POINT('',#1288);
#387=VERTEX_POINT('',#1323);
#388=VERTEX_POINT('',#1358);
#389=VERTEX_POINT('',#1359);
#390=VERTEX_POINT('',#1398);
#391=VERTEX_POINT('',#1404);
#392=VERTEX_POINT('',#1408);
#393=VERTEX_POINT('',#1410);
#394=VERTEX_POINT('',#1414);
#395=VERTEX_POINT('',#1418);
#396=VERTEX_POINT('',#1422);
#397=VERTEX_POINT('',#1424);
#398=VERTEX_POINT('',#1428);
#399=VERTEX_POINT('',#1430);
#400=VERTEX_POINT('',#1434);
#401=VERTEX_POINT('',#1436);
#402=VERTEX_POINT('',#1440);
#403=VERTEX_POINT('',#1442);
#404=VERTEX_POINT('',#1446);
#405=VERTEX_POINT('',#1448);
#406=VERTEX_POINT('',#1452);
#407=VERTEX_POINT('',#1454);
#408=VERTEX_POINT('',#1458);
#409=VERTEX_POINT('',#1460);
#410=VERTEX_POINT('',#1464);
#411=VERTEX_POINT('',#1466);
#412=VERTEX_POINT('',#1470);
#413=VERTEX_POINT('',#1472);
#414=VERTEX_POINT('',#1476);
#415=VERTEX_POINT('',#1478);
#416=VERTEX_POINT('',#1482);
#417=VERTEX_POINT('',#1484);
#418=VERTEX_POINT('',#1488);
#419=VERTEX_POINT('',#1490);
#420=VERTEX_POINT('',#1494);
#421=VERTEX_POINT('',#1496);
#422=VERTEX_POINT('',#1500);
#423=VERTEX_POINT('',#1502);
#424=VERTEX_POINT('',#1506);
#425=VERTEX_POINT('',#1508);
#426=VERTEX_POINT('',#1510);
#427=VERTEX_POINT('',#1512);
#428=VERTEX_POINT('',#1514);
#429=VERTEX_POINT('',#1519);
#430=VERTEX_POINT('',#1521);
#431=VERTEX_POINT('',#1525);
#432=VERTEX_POINT('',#1529);
#433=VERTEX_POINT('',#1531);
#434=VERTEX_POINT('',#1535);
#435=VERTEX_POINT('',#1541);
#436=VERTEX_POINT('',#1543);
#437=VERTEX_POINT('',#1547);
#438=VERTEX_POINT('',#1549);
#439=EDGE_CURVE('',#365,#366,#318,.T.);
#440=EDGE_CURVE('',#367,#365,#314,.T.);
#441=EDGE_CURVE('',#368,#367,#304,.T.);
#442=EDGE_CURVE('',#366,#368,#315,.T.);
#443=EDGE_CURVE('',#365,#369,#73,.T.);
#444=EDGE_CURVE('',#369,#370,#74,.T.);
#445=EDGE_CURVE('',#370,#371,#75,.T.);
#446=EDGE_CURVE('',#371,#372,#76,.T.);
#447=EDGE_CURVE('',#373,#372,#77,.T.);
#448=EDGE_CURVE('',#373,#374,#319,.T.);
#449=EDGE_CURVE('',#374,#375,#78,.T.);
#450=EDGE_CURVE('',#375,#376,#79,.T.);
#451=EDGE_CURVE('',#377,#376,#80,.T.);
#452=EDGE_CURVE('',#377,#378,#81,.T.);
#453=EDGE_CURVE('',#379,#378,#82,.T.);
#454=EDGE_CURVE('',#380,#379,#316,.T.);
#455=EDGE_CURVE('',#380,#367,#83,.T.);
#456=EDGE_CURVE('',#380,#381,#305,.T.);
#457=EDGE_CURVE('',#368,#381,#84,.T.);
#458=EDGE_CURVE('',#382,#383,#306,.T.);
#459=EDGE_CURVE('',#383,#382,#307,.T.);
#460=EDGE_CURVE('',#384,#385,#308,.T.);
#461=EDGE_CURVE('',#385,#384,#309,.T.);
#462=EDGE_CURVE('',#386,#386,#310,.T.);
#463=EDGE_CURVE('',#387,#387,#311,.T.);
#464=EDGE_CURVE('',#388,#389,#312,.T.);
#465=EDGE_CURVE('',#389,#388,#313,.T.);
#466=EDGE_CURVE('',#390,#379,#320,.T.);
#467=EDGE_CURVE('',#381,#390,#317,.T.);
#468=EDGE_CURVE('',#383,#391,#85,.T.);
#469=EDGE_CURVE('',#391,#391,#321,.T.);
#470=EDGE_CURVE('',#392,#392,#322,.T.);
#471=EDGE_CURVE('',#392,#393,#86,.T.);
#472=EDGE_CURVE('',#393,#393,#323,.T.);
#473=EDGE_CURVE('',#394,#394,#324,.T.);
#474=EDGE_CURVE('',#394,#386,#87,.T.);
#475=EDGE_CURVE('',#389,#395,#88,.T.);
#476=EDGE_CURVE('',#395,#395,#325,.T.);
#477=EDGE_CURVE('',#396,#396,#326,.T.);
#478=EDGE_CURVE('',#396,#397,#89,.T.);
#479=EDGE_CURVE('',#397,#397,#327,.T.);
#480=EDGE_CURVE('',#398,#398,#328,.T.);
#481=EDGE_CURVE('',#398,#399,#90,.T.);
#482=EDGE_CURVE('',#399,#399,#329,.T.);
#483=EDGE_CURVE('',#400,#400,#330,.T.);
#484=EDGE_CURVE('',#400,#401,#91,.T.);
#485=EDGE_CURVE('',#401,#401,#331,.T.);
#486=EDGE_CURVE('',#402,#369,#332,.T.);
#487=EDGE_CURVE('',#403,#402,#92,.T.);
#488=EDGE_CURVE('',#370,#403,#333,.T.);
#489=EDGE_CURVE('',#404,#404,#334,.T.);
#490=EDGE_CURVE('',#404,#405,#93,.T.);
#491=EDGE_CURVE('',#405,#405,#335,.T.);
#492=EDGE_CURVE('',#406,#406,#336,.T.);
#493=EDGE_CURVE('',#406,#407,#94,.T.);
#494=EDGE_CURVE('',#407,#407,#337,.T.);
#495=EDGE_CURVE('',#408,#408,#338,.T.);
#496=EDGE_CURVE('',#408,#409,#95,.T.);
#497=EDGE_CURVE('',#409,#409,#339,.T.);
#498=EDGE_CURVE('',#410,#410,#340,.T.);
#499=EDGE_CURVE('',#410,#411,#96,.T.);
#500=EDGE_CURVE('',#411,#411,#341,.T.);
#501=EDGE_CURVE('',#412,#412,#342,.T.);
#502=EDGE_CURVE('',#412,#413,#97,.T.);
#503=EDGE_CURVE('',#413,#413,#343,.T.);
#504=EDGE_CURVE('',#414,#414,#344,.T.);
#505=EDGE_CURVE('',#414,#415,#98,.T.);
#506=EDGE_CURVE('',#415,#415,#345,.T.);
#507=EDGE_CURVE('',#416,#416,#346,.T.);
#508=EDGE_CURVE('',#416,#417,#99,.T.);
#509=EDGE_CURVE('',#417,#417,#347,.T.);
#510=EDGE_CURVE('',#418,#377,#348,.T.);
#511=EDGE_CURVE('',#419,#418,#100,.T.);
#512=EDGE_CURVE('',#378,#419,#349,.T.);
#513=EDGE_CURVE('',#420,#420,#350,.T.);
#514=EDGE_CURVE('',#420,#421,#101,.T.);
#515=EDGE_CURVE('',#421,#421,#351,.T.);
#516=EDGE_CURVE('',#422,#422,#352,.T.);
#517=EDGE_CURVE('',#422,#423,#102,.T.);
#518=EDGE_CURVE('',#423,#423,#353,.T.);
#519=EDGE_CURVE('',#424,#373,#354,.T.);
#520=EDGE_CURVE('',#425,#424,#355,.T.);
#521=EDGE_CURVE('',#426,#425,#103,.T.);
#522=EDGE_CURVE('',#427,#426,#356,.T.);
#523=EDGE_CURVE('',#427,#428,#104,.T.);
#524=EDGE_CURVE('',#428,#428,#357,.T.);
#525=EDGE_CURVE('',#374,#427,#358,.T.);
#526=EDGE_CURVE('',#429,#429,#359,.T.);
#527=EDGE_CURVE('',#429,#430,#105,.T.);
#528=EDGE_CURVE('',#430,#430,#360,.T.);
#529=EDGE_CURVE('',#385,#431,#106,.T.);
#530=EDGE_CURVE('',#431,#431,#361,.T.);
#531=EDGE_CURVE('',#432,#432,#362,.T.);
#532=EDGE_CURVE('',#432,#433,#107,.T.);
#533=EDGE_CURVE('',#433,#433,#363,.T.);
#534=EDGE_CURVE('',#434,#434,#364,.T.);
#535=EDGE_CURVE('',#434,#387,#108,.T.);
#536=EDGE_CURVE('',#435,#375,#109,.T.);
#537=EDGE_CURVE('',#436,#435,#110,.T.);
#538=EDGE_CURVE('',#376,#436,#111,.T.);
#539=EDGE_CURVE('',#437,#371,#112,.T.);
#540=EDGE_CURVE('',#438,#437,#113,.T.);
#541=EDGE_CURVE('',#372,#438,#114,.T.);
#542=EDGE_CURVE('',#435,#426,#115,.T.);
#543=EDGE_CURVE('',#402,#366,#116,.T.);
#544=EDGE_CURVE('',#437,#403,#117,.T.);
#545=EDGE_CURVE('',#436,#418,#118,.T.);
#546=EDGE_CURVE('',#438,#424,#119,.T.);
#547=EDGE_CURVE('',#419,#390,#120,.T.);
#548=ORIENTED_EDGE('',*,*,#439,.F.);
#549=ORIENTED_EDGE('',*,*,#440,.F.);
#550=ORIENTED_EDGE('',*,*,#441,.F.);
#551=ORIENTED_EDGE('',*,*,#442,.F.);
#552=ORIENTED_EDGE('',*,*,#443,.T.);
#553=ORIENTED_EDGE('',*,*,#444,.T.);
#554=ORIENTED_EDGE('',*,*,#445,.T.);
#555=ORIENTED_EDGE('',*,*,#446,.T.);
#556=ORIENTED_EDGE('',*,*,#447,.F.);
#557=ORIENTED_EDGE('',*,*,#448,.T.);
#558=ORIENTED_EDGE('',*,*,#449,.T.);
#559=ORIENTED_EDGE('',*,*,#450,.T.);
#560=ORIENTED_EDGE('',*,*,#451,.F.);
#561=ORIENTED_EDGE('',*,*,#452,.T.);
#562=ORIENTED_EDGE('',*,*,#453,.F.);
#563=ORIENTED_EDGE('',*,*,#454,.F.);
#564=ORIENTED_EDGE('',*,*,#455,.T.);
#565=ORIENTED_EDGE('',*,*,#440,.T.);
#566=ORIENTED_EDGE('',*,*,#441,.T.);
#567=ORIENTED_EDGE('',*,*,#455,.F.);
#568=ORIENTED_EDGE('',*,*,#456,.T.);
#569=ORIENTED_EDGE('',*,*,#457,.F.);
#570=ORIENTED_EDGE('',*,*,#458,.T.);
#571=ORIENTED_EDGE('',*,*,#459,.T.);
#572=ORIENTED_EDGE('',*,*,#460,.F.);
#573=ORIENTED_EDGE('',*,*,#461,.F.);
#574=ORIENTED_EDGE('',*,*,#462,.T.);
#575=ORIENTED_EDGE('',*,*,#463,.F.);
#576=ORIENTED_EDGE('',*,*,#464,.T.);
#577=ORIENTED_EDGE('',*,*,#465,.T.);
#578=ORIENTED_EDGE('',*,*,#454,.T.);
#579=ORIENTED_EDGE('',*,*,#466,.F.);
#580=ORIENTED_EDGE('',*,*,#467,.F.);
#581=ORIENTED_EDGE('',*,*,#456,.F.);
#582=ORIENTED_EDGE('',*,*,#458,.F.);
#583=ORIENTED_EDGE('',*,*,#459,.F.);
#584=ORIENTED_EDGE('',*,*,#468,.T.);
#585=ORIENTED_EDGE('',*,*,#469,.F.);
#586=ORIENTED_EDGE('',*,*,#468,.F.);
#587=ORIENTED_EDGE('',*,*,#470,.F.);
#588=ORIENTED_EDGE('',*,*,#471,.T.);
#589=ORIENTED_EDGE('',*,*,#472,.F.);
#590=ORIENTED_EDGE('',*,*,#471,.F.);
#591=ORIENTED_EDGE('',*,*,#473,.F.);
#592=ORIENTED_EDGE('',*,*,#474,.T.);
#593=ORIENTED_EDGE('',*,*,#462,.F.);
#594=ORIENTED_EDGE('',*,*,#474,.F.);
#595=ORIENTED_EDGE('',*,*,#464,.F.);
#596=ORIENTED_EDGE('',*,*,#465,.F.);
#597=ORIENTED_EDGE('',*,*,#475,.T.);
#598=ORIENTED_EDGE('',*,*,#476,.F.);
#599=ORIENTED_EDGE('',*,*,#475,.F.);
#600=ORIENTED_EDGE('',*,*,#477,.F.);
#601=ORIENTED_EDGE('',*,*,#478,.T.);
#602=ORIENTED_EDGE('',*,*,#479,.F.);
#603=ORIENTED_EDGE('',*,*,#478,.F.);
#604=ORIENTED_EDGE('',*,*,#480,.F.);
#605=ORIENTED_EDGE('',*,*,#481,.T.);
#606=ORIENTED_EDGE('',*,*,#482,.F.);
#607=ORIENTED_EDGE('',*,*,#481,.F.);
#608=ORIENTED_EDGE('',*,*,#483,.F.);
#609=ORIENTED_EDGE('',*,*,#484,.T.);
#610=ORIENTED_EDGE('',*,*,#485,.F.);
#611=ORIENTED_EDGE('',*,*,#484,.F.);
#612=ORIENTED_EDGE('',*,*,#486,.F.);
#613=ORIENTED_EDGE('',*,*,#487,.F.);
#614=ORIENTED_EDGE('',*,*,#488,.F.);
#615=ORIENTED_EDGE('',*,*,#444,.F.);
#616=ORIENTED_EDGE('',*,*,#489,.F.);
#617=ORIENTED_EDGE('',*,*,#490,.T.);
#618=ORIENTED_EDGE('',*,*,#491,.F.);
#619=ORIENTED_EDGE('',*,*,#490,.F.);
#620=ORIENTED_EDGE('',*,*,#492,.F.);
#621=ORIENTED_EDGE('',*,*,#493,.T.);
#622=ORIENTED_EDGE('',*,*,#494,.F.);
#623=ORIENTED_EDGE('',*,*,#493,.F.);
#624=ORIENTED_EDGE('',*,*,#495,.F.);
#625=ORIENTED_EDGE('',*,*,#496,.T.);
#626=ORIENTED_EDGE('',*,*,#497,.F.);
#627=ORIENTED_EDGE('',*,*,#496,.F.);
#628=ORIENTED_EDGE('',*,*,#498,.F.);
#629=ORIENTED_EDGE('',*,*,#499,.T.);
#630=ORIENTED_EDGE('',*,*,#500,.F.);
#631=ORIENTED_EDGE('',*,*,#499,.F.);
#632=ORIENTED_EDGE('',*,*,#501,.F.);
#633=ORIENTED_EDGE('',*,*,#502,.T.);
#634=ORIENTED_EDGE('',*,*,#503,.F.);
#635=ORIENTED_EDGE('',*,*,#502,.F.);
#636=ORIENTED_EDGE('',*,*,#504,.F.);
#637=ORIENTED_EDGE('',*,*,#505,.T.);
#638=ORIENTED_EDGE('',*,*,#506,.F.);
#639=ORIENTED_EDGE('',*,*,#505,.F.);
#640=ORIENTED_EDGE('',*,*,#507,.F.);
#641=ORIENTED_EDGE('',*,*,#508,.T.);
#642=ORIENTED_EDGE('',*,*,#509,.F.);
#643=ORIENTED_EDGE('',*,*,#508,.F.);
#644=ORIENTED_EDGE('',*,*,#510,.F.);
#645=ORIENTED_EDGE('',*,*,#511,.F.);
#646=ORIENTED_EDGE('',*,*,#512,.F.);
#647=ORIENTED_EDGE('',*,*,#452,.F.);
#648=ORIENTED_EDGE('',*,*,#513,.F.);
#649=ORIENTED_EDGE('',*,*,#514,.T.);
#650=ORIENTED_EDGE('',*,*,#515,.F.);
#651=ORIENTED_EDGE('',*,*,#514,.F.);
#652=ORIENTED_EDGE('',*,*,#516,.F.);
#653=ORIENTED_EDGE('',*,*,#517,.T.);
#654=ORIENTED_EDGE('',*,*,#518,.F.);
#655=ORIENTED_EDGE('',*,*,#517,.F.);
#656=ORIENTED_EDGE('',*,*,#448,.F.);
#657=ORIENTED_EDGE('',*,*,#519,.F.);
#658=ORIENTED_EDGE('',*,*,#520,.F.);
#659=ORIENTED_EDGE('',*,*,#521,.F.);
#660=ORIENTED_EDGE('',*,*,#522,.F.);
#661=ORIENTED_EDGE('',*,*,#523,.T.);
#662=ORIENTED_EDGE('',*,*,#524,.F.);
#663=ORIENTED_EDGE('',*,*,#523,.F.);
#664=ORIENTED_EDGE('',*,*,#525,.F.);
#665=ORIENTED_EDGE('',*,*,#526,.F.);
#666=ORIENTED_EDGE('',*,*,#527,.T.);
#667=ORIENTED_EDGE('',*,*,#528,.F.);
#668=ORIENTED_EDGE('',*,*,#527,.F.);
#669=ORIENTED_EDGE('',*,*,#460,.T.);
#670=ORIENTED_EDGE('',*,*,#529,.T.);
#671=ORIENTED_EDGE('',*,*,#530,.F.);
#672=ORIENTED_EDGE('',*,*,#529,.F.);
#673=ORIENTED_EDGE('',*,*,#461,.T.);
#674=ORIENTED_EDGE('',*,*,#531,.F.);
#675=ORIENTED_EDGE('',*,*,#532,.T.);
#676=ORIENTED_EDGE('',*,*,#533,.F.);
#677=ORIENTED_EDGE('',*,*,#532,.F.);
#678=ORIENTED_EDGE('',*,*,#534,.F.);
#679=ORIENTED_EDGE('',*,*,#535,.T.);
#680=ORIENTED_EDGE('',*,*,#463,.T.);
#681=ORIENTED_EDGE('',*,*,#535,.F.);
#682=ORIENTED_EDGE('',*,*,#473,.T.);
#683=ORIENTED_EDGE('',*,*,#472,.T.);
#684=ORIENTED_EDGE('',*,*,#476,.T.);
#685=ORIENTED_EDGE('',*,*,#491,.T.);
#686=ORIENTED_EDGE('',*,*,#450,.F.);
#687=ORIENTED_EDGE('',*,*,#536,.F.);
#688=ORIENTED_EDGE('',*,*,#537,.F.);
#689=ORIENTED_EDGE('',*,*,#538,.F.);
#690=ORIENTED_EDGE('',*,*,#446,.F.);
#691=ORIENTED_EDGE('',*,*,#539,.F.);
#692=ORIENTED_EDGE('',*,*,#540,.F.);
#693=ORIENTED_EDGE('',*,*,#541,.F.);
#694=ORIENTED_EDGE('',*,*,#525,.T.);
#695=ORIENTED_EDGE('',*,*,#522,.T.);
#696=ORIENTED_EDGE('',*,*,#542,.F.);
#697=ORIENTED_EDGE('',*,*,#536,.T.);
#698=ORIENTED_EDGE('',*,*,#449,.F.);
#699=ORIENTED_EDGE('',*,*,#494,.T.);
#700=ORIENTED_EDGE('',*,*,#489,.T.);
#701=ORIENTED_EDGE('',*,*,#534,.T.);
#702=ORIENTED_EDGE('',*,*,#470,.T.);
#703=ORIENTED_EDGE('',*,*,#531,.T.);
#704=ORIENTED_EDGE('',*,*,#526,.T.);
#705=ORIENTED_EDGE('',*,*,#524,.T.);
#706=ORIENTED_EDGE('',*,*,#492,.T.);
#707=ORIENTED_EDGE('',*,*,#439,.T.);
#708=ORIENTED_EDGE('',*,*,#543,.F.);
#709=ORIENTED_EDGE('',*,*,#486,.T.);
#710=ORIENTED_EDGE('',*,*,#443,.F.);
#711=ORIENTED_EDGE('',*,*,#506,.T.);
#712=ORIENTED_EDGE('',*,*,#485,.T.);
#713=ORIENTED_EDGE('',*,*,#518,.T.);
#714=ORIENTED_EDGE('',*,*,#515,.T.);
#715=ORIENTED_EDGE('',*,*,#500,.T.);
#716=ORIENTED_EDGE('',*,*,#488,.T.);
#717=ORIENTED_EDGE('',*,*,#544,.F.);
#718=ORIENTED_EDGE('',*,*,#539,.T.);
#719=ORIENTED_EDGE('',*,*,#445,.F.);
#720=ORIENTED_EDGE('',*,*,#504,.T.);
#721=ORIENTED_EDGE('',*,*,#483,.T.);
#722=ORIENTED_EDGE('',*,*,#516,.T.);
#723=ORIENTED_EDGE('',*,*,#513,.T.);
#724=ORIENTED_EDGE('',*,*,#498,.T.);
#725=ORIENTED_EDGE('',*,*,#545,.F.);
#726=ORIENTED_EDGE('',*,*,#537,.T.);
#727=ORIENTED_EDGE('',*,*,#542,.T.);
#728=ORIENTED_EDGE('',*,*,#521,.T.);
#729=ORIENTED_EDGE('',*,*,#520,.T.);
#730=ORIENTED_EDGE('',*,*,#546,.F.);
#731=ORIENTED_EDGE('',*,*,#540,.T.);
#732=ORIENTED_EDGE('',*,*,#544,.T.);
#733=ORIENTED_EDGE('',*,*,#487,.T.);
#734=ORIENTED_EDGE('',*,*,#543,.T.);
#735=ORIENTED_EDGE('',*,*,#442,.T.);
#736=ORIENTED_EDGE('',*,*,#457,.T.);
#737=ORIENTED_EDGE('',*,*,#467,.T.);
#738=ORIENTED_EDGE('',*,*,#547,.F.);
#739=ORIENTED_EDGE('',*,*,#511,.T.);
#740=ORIENTED_EDGE('',*,*,#453,.T.);
#741=ORIENTED_EDGE('',*,*,#512,.T.);
#742=ORIENTED_EDGE('',*,*,#547,.T.);
#743=ORIENTED_EDGE('',*,*,#466,.T.);
#744=ORIENTED_EDGE('',*,*,#495,.T.);
#745=ORIENTED_EDGE('',*,*,#477,.T.);
#746=ORIENTED_EDGE('',*,*,#480,.T.);
#747=ORIENTED_EDGE('',*,*,#507,.T.);
#748=ORIENTED_EDGE('',*,*,#501,.T.);
#749=ORIENTED_EDGE('',*,*,#546,.T.);
#750=ORIENTED_EDGE('',*,*,#519,.T.);
#751=ORIENTED_EDGE('',*,*,#447,.T.);
#752=ORIENTED_EDGE('',*,*,#541,.T.);
#753=ORIENTED_EDGE('',*,*,#451,.T.);
#754=ORIENTED_EDGE('',*,*,#538,.T.);
#755=ORIENTED_EDGE('',*,*,#545,.T.);
#756=ORIENTED_EDGE('',*,*,#510,.T.);
#757=ORIENTED_EDGE('',*,*,#497,.T.);
#758=ORIENTED_EDGE('',*,*,#479,.T.);
#759=ORIENTED_EDGE('',*,*,#482,.T.);
#760=ORIENTED_EDGE('',*,*,#509,.T.);
#761=ORIENTED_EDGE('',*,*,#503,.T.);
#762=ORIENTED_EDGE('',*,*,#469,.T.);
#763=ORIENTED_EDGE('',*,*,#528,.T.);
#764=ORIENTED_EDGE('',*,*,#530,.T.);
#765=ORIENTED_EDGE('',*,*,#533,.T.);
#766=CONICAL_SURFACE('',#825,18.8869042973498,0.784736923893223);
#767=CONICAL_SURFACE('',#829,13.7932158989398,1.12261198605878E-5);
#768=CONICAL_SURFACE('',#830,18.8869042973499,0.784736923893223);
#769=ADVANCED_FACE('',(#185),#766,.F.);
#770=ADVANCED_FACE('',(#186),#169,.F.);
#771=ADVANCED_FACE('',(#187,#38,#39,#40,#41,#42),#767,.F.);
#772=ADVANCED_FACE('',(#188),#768,.F.);
#773=ADVANCED_FACE('',(#189),#15,.F.);
#774=ADVANCED_FACE('',(#190),#16,.F.);
#775=ADVANCED_FACE('',(#191),#17,.F.);
#776=ADVANCED_FACE('',(#192),#18,.F.);
#777=ADVANCED_FACE('',(#193),#19,.F.);
#778=ADVANCED_FACE('',(#194),#20,.F.);
#779=ADVANCED_FACE('',(#195),#21,.F.);
#780=ADVANCED_FACE('',(#196),#22,.T.);
#781=ADVANCED_FACE('',(#197),#23,.F.);
#782=ADVANCED_FACE('',(#198),#24,.T.);
#783=ADVANCED_FACE('',(#199),#25,.F.);
#784=ADVANCED_FACE('',(#200),#26,.F.);
#785=ADVANCED_FACE('',(#201),#27,.F.);
#786=ADVANCED_FACE('',(#202),#28,.F.);
#787=ADVANCED_FACE('',(#203),#29,.F.);
#788=ADVANCED_FACE('',(#204),#30,.T.);
#789=ADVANCED_FACE('',(#205),#31,.F.);
#790=ADVANCED_FACE('',(#206),#32,.F.);
#791=ADVANCED_FACE('',(#207),#33,.T.);
#792=ADVANCED_FACE('',(#208),#34,.F.);
#793=ADVANCED_FACE('',(#209),#35,.F.);
#794=ADVANCED_FACE('',(#210),#36,.F.);
#795=ADVANCED_FACE('',(#211),#37,.F.);
#796=ADVANCED_FACE('',(#212,#43),#170,.F.);
#797=ADVANCED_FACE('',(#213,#44),#171,.F.);
#798=ADVANCED_FACE('',(#214),#172,.F.);
#799=ADVANCED_FACE('',(#215),#173,.T.);
#800=ADVANCED_FACE('',(#216),#174,.T.);
#801=ADVANCED_FACE('',(#217,#45,#46,#47,#48,#49),#175,.T.);
#802=ADVANCED_FACE('',(#218,#50),#176,.T.);
#803=ADVANCED_FACE('',(#219,#51,#52,#53,#54,#55),#177,.F.);
#804=ADVANCED_FACE('',(#220,#56,#57,#58,#59,#60),#178,.T.);
#805=ADVANCED_FACE('',(#221),#179,.T.);
#806=ADVANCED_FACE('',(#222,#61,#62,#63,#64,#65),#180,.T.);
#807=ADVANCED_FACE('',(#223),#181,.T.);
#808=ADVANCED_FACE('',(#224,#66,#67,#68,#69,#70),#182,.F.);
#809=ADVANCED_FACE('',(#225,#71),#183,.F.);
#810=ADVANCED_FACE('',(#226,#72),#184,.F.);
#811=CLOSED_SHELL('',(#769,#770,#771,#772,#773,#774,#775,#776,#777,#778,
#779,#780,#781,#782,#783,#784,#785,#786,#787,#788,#789,#790,#791,#792,#793,
#794,#795,#796,#797,#798,#799,#800,#801,#802,#803,#804,#805,#806,#807,#808,
#809,#810));
#812=DERIVED_UNIT_ELEMENT(#814,1.);
#813=DERIVED_UNIT_ELEMENT(#1574,-3.);
#814=(
MASS_UNIT()
NAMED_UNIT(*)
SI_UNIT(.KILO.,.GRAM.)
);
#815=DERIVED_UNIT((#812,#813));
#816=MEASURE_REPRESENTATION_ITEM('density measure',
POSITIVE_RATIO_MEASURE(7850.),#815);
#817=PROPERTY_DEFINITION_REPRESENTATION(#822,#819);
#818=PROPERTY_DEFINITION_REPRESENTATION(#823,#820);
#819=REPRESENTATION('material name',(#821),#1571);
#820=REPRESENTATION('density',(#816),#1571);
#821=DESCRIPTIVE_REPRESENTATION_ITEM('Steel','Steel');
#822=PROPERTY_DEFINITION('material property','material name',#1581);
#823=PROPERTY_DEFINITION('material property','density of part',#1581);
#824=AXIS2_PLACEMENT_3D('',#1142,#914,#915);
#825=AXIS2_PLACEMENT_3D('',#1143,#916,#917);
#826=AXIS2_PLACEMENT_3D('',#1146,#918,#919);
#827=AXIS2_PLACEMENT_3D('',#1165,#920,#921);
#828=AXIS2_PLACEMENT_3D('',#1177,#927,#928);
#829=AXIS2_PLACEMENT_3D('',#1193,#935,#936);
#830=AXIS2_PLACEMENT_3D('',#1397,#938,#939);
#831=AXIS2_PLACEMENT_3D('',#1399,#940,#941);
#832=AXIS2_PLACEMENT_3D('',#1403,#942,#943);
#833=AXIS2_PLACEMENT_3D('',#1406,#945,#946);
#834=AXIS2_PLACEMENT_3D('',#1407,#947,#948);
#835=AXIS2_PLACEMENT_3D('',#1409,#949,#950);
#836=AXIS2_PLACEMENT_3D('',#1412,#952,#953);
#837=AXIS2_PLACEMENT_3D('',#1413,#954,#955);
#838=AXIS2_PLACEMENT_3D('',#1415,#956,#957);
#839=AXIS2_PLACEMENT_3D('',#1417,#959,#960);
#840=AXIS2_PLACEMENT_3D('',#1420,#962,#963);
#841=AXIS2_PLACEMENT_3D('',#1421,#964,#965);
#842=AXIS2_PLACEMENT_3D('',#1423,#966,#967);
#843=AXIS2_PLACEMENT_3D('',#1426,#969,#970);
#844=AXIS2_PLACEMENT_3D('',#1427,#971,#972);
#845=AXIS2_PLACEMENT_3D('',#1429,#973,#974);
#846=AXIS2_PLACEMENT_3D('',#1432,#976,#977);
#847=AXIS2_PLACEMENT_3D('',#1433,#978,#979);
#848=AXIS2_PLACEMENT_3D('',#1435,#980,#981);
#849=AXIS2_PLACEMENT_3D('',#1438,#983,#984);
#850=AXIS2_PLACEMENT_3D('',#1439,#985,#986);
#851=AXIS2_PLACEMENT_3D('',#1441,#987,#988);
#852=AXIS2_PLACEMENT_3D('',#1444,#990,#991);
#853=AXIS2_PLACEMENT_3D('',#1445,#992,#993);
#854=AXIS2_PLACEMENT_3D('',#1447,#994,#995);
#855=AXIS2_PLACEMENT_3D('',#1450,#997,#998);
#856=AXIS2_PLACEMENT_3D('',#1451,#999,#1000);
#857=AXIS2_PLACEMENT_3D('',#1453,#1001,#1002);
#858=AXIS2_PLACEMENT_3D('',#1456,#1004,#1005);
#859=AXIS2_PLACEMENT_3D('',#1457,#1006,#1007);
#860=AXIS2_PLACEMENT_3D('',#1459,#1008,#1009);
#861=AXIS2_PLACEMENT_3D('',#1462,#1011,#1012);
#862=AXIS2_PLACEMENT_3D('',#1463,#1013,#1014);
#863=AXIS2_PLACEMENT_3D('',#1465,#1015,#1016);
#864=AXIS2_PLACEMENT_3D('',#1468,#1018,#1019);
#865=AXIS2_PLACEMENT_3D('',#1469,#1020,#1021);
#866=AXIS2_PLACEMENT_3D('',#1471,#1022,#1023);
#867=AXIS2_PLACEMENT_3D('',#1474,#1025,#1026);
#868=AXIS2_PLACEMENT_3D('',#1475,#1027,#1028);
#869=AXIS2_PLACEMENT_3D('',#1477,#1029,#1030);
#870=AXIS2_PLACEMENT_3D('',#1480,#1032,#1033);
#871=AXIS2_PLACEMENT_3D('',#1481,#1034,#1035);
#872=AXIS2_PLACEMENT_3D('',#1483,#1036,#1037);
#873=AXIS2_PLACEMENT_3D('',#1486,#1039,#1040);
#874=AXIS2_PLACEMENT_3D('',#1487,#1041,#1042);
#875=AXIS2_PLACEMENT_3D('',#1489,#1043,#1044);
#876=AXIS2_PLACEMENT_3D('',#1492,#1046,#1047);
#877=AXIS2_PLACEMENT_3D('',#1493,#1048,#1049);
#878=AXIS2_PLACEMENT_3D('',#1495,#1050,#1051);
#879=AXIS2_PLACEMENT_3D('',#1498,#1053,#1054);
#880=AXIS2_PLACEMENT_3D('',#1499,#1055,#1056);
#881=AXIS2_PLACEMENT_3D('',#1501,#1057,#1058);
#882=AXIS2_PLACEMENT_3D('',#1504,#1060,#1061);
#883=AXIS2_PLACEMENT_3D('',#1505,#1062,#1063);
#884=AXIS2_PLACEMENT_3D('',#1507,#1064,#1065);
#885=AXIS2_PLACEMENT_3D('',#1509,#1066,#1067);
#886=AXIS2_PLACEMENT_3D('',#1513,#1069,#1070);
#887=AXIS2_PLACEMENT_3D('',#1516,#1072,#1073);
#888=AXIS2_PLACEMENT_3D('',#1517,#1074,#1075);
#889=AXIS2_PLACEMENT_3D('',#1518,#1076,#1077);
#890=AXIS2_PLACEMENT_3D('',#1520,#1078,#1079);
#891=AXIS2_PLACEMENT_3D('',#1523,#1081,#1082);
#892=AXIS2_PLACEMENT_3D('',#1524,#1083,#1084);
#893=AXIS2_PLACEMENT_3D('',#1527,#1086,#1087);
#894=AXIS2_PLACEMENT_3D('',#1528,#1088,#1089);
#895=AXIS2_PLACEMENT_3D('',#1530,#1090,#1091);
#896=AXIS2_PLACEMENT_3D('',#1533,#1093,#1094);
#897=AXIS2_PLACEMENT_3D('',#1534,#1095,#1096);
#898=AXIS2_PLACEMENT_3D('',#1536,#1097,#1098);
#899=AXIS2_PLACEMENT_3D('',#1538,#1100,#1101);
#900=AXIS2_PLACEMENT_3D('',#1539,#1102,#1103);
#901=AXIS2_PLACEMENT_3D('',#1540,#1104,#1105);
#902=AXIS2_PLACEMENT_3D('',#1546,#1109,#1110);
#903=AXIS2_PLACEMENT_3D('',#1552,#1114,#1115);
#904=AXIS2_PLACEMENT_3D('',#1554,#1117,#1118);
#905=AXIS2_PLACEMENT_3D('',#1555,#1119,#1120);
#906=AXIS2_PLACEMENT_3D('',#1556,#1121,#1122);
#907=AXIS2_PLACEMENT_3D('',#1558,#1124,#1125);
#908=AXIS2_PLACEMENT_3D('',#1560,#1127,#1128);
#909=AXIS2_PLACEMENT_3D('',#1564,#1132,#1133);
#910=AXIS2_PLACEMENT_3D('',#1565,#1134,#1135);
#911=AXIS2_PLACEMENT_3D('',#1566,#1136,#1137);
#912=AXIS2_PLACEMENT_3D('',#1567,#1138,#1139);
#913=AXIS2_PLACEMENT_3D('',#1568,#1140,#1141);
#914=DIRECTION('axis',(0.,0.,1.));
#915=DIRECTION('refdir',(1.,0.,0.));
#916=DIRECTION('center_axis',(-0.999999758583018,0.000201499419641284,0.000665005180356786));
#917=DIRECTION('ref_axis',(0.000201499464196033,0.999999979698983,0.));
#918=DIRECTION('center_axis',(-1.,0.,0.));
#919=DIRECTION('ref_axis',(0.,0.289984588230373,0.95703131536479));
#920=DIRECTION('center_axis',(0.,1.,0.));
#921=DIRECTION('ref_axis',(0.,0.,1.));
#922=DIRECTION('',(0.,0.,-1.));
#923=DIRECTION('',(1.,0.,-5.57470210036603E-17));
#924=DIRECTION('',(0.,0.,1.));
#925=DIRECTION('',(-0.707106921676023,0.,0.707106640697044));
#926=DIRECTION('',(1.,0.,0.));
#927=DIRECTION('center_axis',(0.,0.,-1.));
#928=DIRECTION('ref_axis',(1.,0.,5.51018210259917E-24));
#929=DIRECTION('',(-1.,0.,0.));
#930=DIRECTION('',(-0.707106921676023,0.,-0.707106640697044));
#931=DIRECTION('',(0.,0.,1.));
#932=DIRECTION('',(1.,0.,-5.57470210036603E-17));
#933=DIRECTION('',(0.,0.,-1.));
#934=DIRECTION('',(0.9999999999949,-3.80966797114157E-17,3.19365693773924E-6));
#935=DIRECTION('center_axis',(0.999999999932484,4.01505896358967E-10,-1.16202891355843E-5));
#936=DIRECTION('ref_axis',(-4.01505896386075E-10,1.,0.));
#937=DIRECTION('',(-0.999999999994898,0.,-3.19434838573285E-6));
#938=DIRECTION('center_axis',(0.999999758583018,0.000201499419641718,0.00066500518035741));
#939=DIRECTION('ref_axis',(-0.000201499464196467,0.999999979698983,0.));
#940=DIRECTION('center_axis',(1.,0.,0.));
#941=DIRECTION('ref_axis',(0.,0.289984589645535,0.95703131493599));
#942=DIRECTION('center_axis',(-5.11483225169072E-9,-5.63315174301384E-10,
1.));
#943=DIRECTION('ref_axis',(-1.,0.,-5.11483225169072E-9));
#944=DIRECTION('',(-5.11483225169072E-9,-5.63315174301384E-10,1.));
#945=DIRECTION('center_axis',(0.,0.,-1.));
#946=DIRECTION('ref_axis',(-1.,-2.8812626213835E-18,0.));
#947=DIRECTION('center_axis',(1.11179564289002E-24,3.11376388528462E-17,
-1.));
#948=DIRECTION('ref_axis',(1.,0.,1.11179564289002E-24));
#949=DIRECTION('center_axis',(0.,0.,-1.));
#950=DIRECTION('ref_axis',(1.,0.,1.11179564289002E-24));
#951=DIRECTION('',(1.11179564289002E-24,3.11376388528462E-17,-1.));
#952=DIRECTION('center_axis',(0.,0.,1.));
#953=DIRECTION('ref_axis',(1.,0.,1.11179564289002E-24));
#954=DIRECTION('center_axis',(-1.94186087181878E-9,6.29202129901826E-10,
-1.));
#955=DIRECTION('ref_axis',(1.,0.,-1.94186087181878E-9));
#956=DIRECTION('center_axis',(0.,0.,-1.));
#957=DIRECTION('ref_axis',(1.,-1.2218229965214E-18,0.));
#958=DIRECTION('',(-1.94186087181878E-9,6.29202129901826E-10,-1.));
#959=DIRECTION('center_axis',(1.40121030393429E-8,-4.48853490240527E-9,
1.));
#960=DIRECTION('ref_axis',(-1.,0.,1.40121030393429E-8));
#961=DIRECTION('',(1.40121030393429E-8,-4.48853490240526E-9,1.));
#962=DIRECTION('center_axis',(0.,0.,-1.));
#963=DIRECTION('ref_axis',(-1.,6.28938135481895E-17,0.));
#964=DIRECTION('center_axis',(-1.,3.40864914330018E-17,8.30257730823091E-18));
#965=DIRECTION('ref_axis',(3.40864914330018E-17,1.,0.));
#966=DIRECTION('center_axis',(-1.,0.,0.));
#967=DIRECTION('ref_axis',(3.40864914330018E-17,1.,0.));
#968=DIRECTION('',(-1.,3.40864914330018E-17,8.30257730823091E-18));
#969=DIRECTION('center_axis',(1.,0.,0.));
#970=DIRECTION('ref_axis',(3.40864914330018E-17,1.,0.));
#971=DIRECTION('center_axis',(-1.,1.78425614591097E-18,-1.80912804878088E-17));
#972=DIRECTION('ref_axis',(1.78425614591097E-18,1.,0.));
#973=DIRECTION('center_axis',(-1.,0.,0.));
#974=DIRECTION('ref_axis',(1.78425614591097E-18,1.,0.));
#975=DIRECTION('',(-1.,1.78425614591097E-18,-1.80912804878088E-17));
#976=DIRECTION('center_axis',(1.,0.,0.));
#977=DIRECTION('ref_axis',(1.78425614591097E-18,1.,0.));
#978=DIRECTION('center_axis',(-1.,3.40864914330018E-17,8.30257730823091E-18));
#979=DIRECTION('ref_axis',(3.40864914330018E-17,1.,0.));
#980=DIRECTION('center_axis',(-1.,0.,0.));
#981=DIRECTION('ref_axis',(3.40864914330018E-17,1.,0.));
#982=DIRECTION('',(-1.,3.40864914330018E-17,8.30257730823091E-18));
#983=DIRECTION('center_axis',(1.,0.,0.));
#984=DIRECTION('ref_axis',(3.40864914330018E-17,1.,0.));
#985=DIRECTION('center_axis',(1.,0.,-5.57470210036603E-17));
#986=DIRECTION('ref_axis',(0.,1.,0.));
#987=DIRECTION('center_axis',(-1.,0.,0.));
#988=DIRECTION('ref_axis',(0.,1.,0.));
#989=DIRECTION('',(-1.,0.,5.57470210036603E-17));
#990=DIRECTION('center_axis',(1.,0.,0.));
#991=DIRECTION('ref_axis',(0.,1.,0.));
#992=DIRECTION('center_axis',(2.52135787771252E-17,2.78794851210174E-18,
-1.));
#993=DIRECTION('ref_axis',(1.,0.,2.52135787771252E-17));
#994=DIRECTION('center_axis',(0.,0.,-1.));
#995=DIRECTION('ref_axis',(1.,0.,2.52135787771252E-17));
#996=DIRECTION('',(2.52135787771252E-17,2.78794851210174E-18,-1.));
#997=DIRECTION('center_axis',(0.,0.,1.));
#998=DIRECTION('ref_axis',(1.,0.,2.52135787771252E-17));
#999=DIRECTION('center_axis',(9.8690210617674E-10,9.8690208913763E-10,-1.));
#1000=DIRECTION('ref_axis',(1.,0.,9.8690210617674E-10));
#1001=DIRECTION('center_axis',(0.,0.,-1.));
#1002=DIRECTION('ref_axis',(1.,9.73975750360152E-19,0.));
#1003=DIRECTION('',(-9.8690210617674E-10,-9.8690208913763E-10,1.));
#1004=DIRECTION('center_axis',(0.,0.,1.));
#1005=DIRECTION('ref_axis',(1.,9.73975750360152E-19,0.));
#1006=DIRECTION('center_axis',(-1.,2.35564691025646E-18,-2.16962677311338E-17));
#1007=DIRECTION('ref_axis',(2.35564691025646E-18,1.,0.));
#1008=DIRECTION('center_axis',(-1.,0.,0.));
#1009=DIRECTION('ref_axis',(2.35564691025646E-18,1.,0.));
#1010=DIRECTION('',(-1.,2.35564691025646E-18,-2.16962677311338E-17));
#1011=DIRECTION('center_axis',(1.,0.,0.));
#1012=DIRECTION('ref_axis',(2.35564691025646E-18,1.,0.));
#1013=DIRECTION('center_axis',(-1.,-2.35565344306074E-18,-2.16962738568022E-17));
#1014=DIRECTION('ref_axis',(-2.35565344306074E-18,1.,0.));
#1015=DIRECTION('center_axis',(-1.,0.,0.));
#1016=DIRECTION('ref_axis',(-2.35565344306074E-18,1.,0.));
#1017=DIRECTION('',(-1.,-2.35565344306074E-18,-2.16962738568022E-17));
#1018=DIRECTION('center_axis',(1.,0.,0.));
#1019=DIRECTION('ref_axis',(-2.35565344306074E-18,1.,0.));
#1020=DIRECTION('center_axis',(-1.,-2.35565344306074E-18,-2.16962738568022E-17));
#1021=DIRECTION('ref_axis',(-2.35565344306074E-18,1.,0.));
#1022=DIRECTION('center_axis',(-1.,0.,0.));
#1023=DIRECTION('ref_axis',(-2.35565344306074E-18,1.,0.));
#1024=DIRECTION('',(-1.,-2.35565344306074E-18,-2.16962738568022E-17));
#1025=DIRECTION('center_axis',(1.,0.,0.));
#1026=DIRECTION('ref_axis',(-2.35565344306074E-18,1.,0.));
#1027=DIRECTION('center_axis',(-1.,2.35564691025646E-18,-2.16962677311338E-17));
#1028=DIRECTION('ref_axis',(2.35564691025646E-18,1.,0.));
#1029=DIRECTION('center_axis',(-1.,0.,0.));
#1030=DIRECTION('ref_axis',(2.35564691025646E-18,1.,0.));
#1031=DIRECTION('',(-1.,2.35564691025646E-18,-2.16962677311338E-17));
#1032=DIRECTION('center_axis',(1.,0.,0.));
#1033=DIRECTION('ref_axis',(2.35564691025646E-18,1.,0.));
#1034=DIRECTION('center_axis',(-1.,1.01881257952113E-18,-4.55229787323079E-20));
#1035=DIRECTION('ref_axis',(1.01881257952113E-18,1.,0.));
#1036=DIRECTION('center_axis',(-1.,0.,0.));
#1037=DIRECTION('ref_axis',(1.01881257952113E-18,1.,0.));
#1038=DIRECTION('',(-1.,1.01881257952113E-18,-4.55229787323079E-20));
#1039=DIRECTION('center_axis',(1.,0.,0.));
#1040=DIRECTION('ref_axis',(1.01881257952113E-18,1.,0.));
#1041=DIRECTION('center_axis',(1.,0.,-5.57470210036603E-17));
#1042=DIRECTION('ref_axis',(0.,1.,0.));
#1043=DIRECTION('center_axis',(-1.,0.,0.));
#1044=DIRECTION('ref_axis',(0.,1.,0.));
#1045=DIRECTION('',(-1.,0.,5.57470210036603E-17));
#1046=DIRECTION('center_axis',(1.,0.,0.));
#1047=DIRECTION('ref_axis',(0.,1.,0.));
#1048=DIRECTION('center_axis',(-1.,1.01881257952113E-18,-4.55229787323079E-20));
#1049=DIRECTION('ref_axis',(1.01881257952113E-18,1.,0.));
#1050=DIRECTION('center_axis',(-1.,0.,0.));
#1051=DIRECTION('ref_axis',(1.01881257952113E-18,1.,0.));
#1052=DIRECTION('',(-1.,1.01881257952113E-18,-4.55229787323079E-20));
#1053=DIRECTION('center_axis',(1.,0.,0.));
#1054=DIRECTION('ref_axis',(1.01881257952113E-18,1.,0.));
#1055=DIRECTION('center_axis',(-1.,1.78425614591097E-18,-1.80912804878088E-17));
#1056=DIRECTION('ref_axis',(1.78425614591097E-18,1.,0.));
#1057=DIRECTION('center_axis',(-1.,0.,0.));
#1058=DIRECTION('ref_axis',(1.78425614591097E-18,1.,0.));
#1059=DIRECTION('',(-1.,1.78425614591097E-18,-1.80912804878088E-17));
#1060=DIRECTION('center_axis',(1.,0.,0.));
#1061=DIRECTION('ref_axis',(1.78425614591097E-18,1.,0.));
#1062=DIRECTION('center_axis',(5.51018210259917E-24,9.18302218761687E-24,
-1.));
#1063=DIRECTION('ref_axis',(1.,0.,5.51018210259917E-24));
#1064=DIRECTION('center_axis',(0.,0.,-1.));
#1065=DIRECTION('ref_axis',(1.,0.,5.51018210259917E-24));
#1066=DIRECTION('center_axis',(0.,0.,-1.));
#1067=DIRECTION('ref_axis',(1.,0.,5.51018210259917E-24));
#1068=DIRECTION('',(1.,0.,0.));
#1069=DIRECTION('center_axis',(0.,0.,-1.));
#1070=DIRECTION('ref_axis',(1.,0.,5.51018210259917E-24));
#1071=DIRECTION('',(-5.51018210259917E-24,-9.18302218761687E-24,1.));
#1072=DIRECTION('center_axis',(0.,0.,1.));
#1073=DIRECTION('ref_axis',(1.,0.,5.51018210259917E-24));
#1074=DIRECTION('center_axis',(0.,0.,-1.));
#1075=DIRECTION('ref_axis',(1.,0.,5.51018210259917E-24));
#1076=DIRECTION('center_axis',(-4.07752296312116E-16,1.78334092136029E-17,
-1.));
#1077=DIRECTION('ref_axis',(1.,0.,-4.07752296312116E-16));
#1078=DIRECTION('center_axis',(0.,0.,-1.));
#1079=DIRECTION('ref_axis',(1.,0.,-4.07752296312116E-16));
#1080=DIRECTION('',(-4.07752296312116E-16,1.78334092136029E-17,-1.));
#1081=DIRECTION('center_axis',(0.,0.,1.));
#1082=DIRECTION('ref_axis',(1.,0.,-4.07752296312116E-16));
#1083=DIRECTION('center_axis',(-9.950109728171E-8,1.46058555162142E-7,0.999999999999984));
#1084=DIRECTION('ref_axis',(-0.999999999999995,0.,-9.9501097281711E-8));
#1085=DIRECTION('',(-9.950109728171E-8,1.46058555162142E-7,0.999999999999984));
#1086=DIRECTION('center_axis',(0.,0.,-1.));
#1087=DIRECTION('ref_axis',(-3.58573197006397E-30,-1.,0.));
#1088=DIRECTION('center_axis',(1.84703588147921E-24,-3.11376406927903E-17,
-1.));
#1089=DIRECTION('ref_axis',(1.,0.,1.84703588147921E-24));
#1090=DIRECTION('center_axis',(0.,0.,-1.));
#1091=DIRECTION('ref_axis',(1.,0.,1.84703588147921E-24));
#1092=DIRECTION('',(1.84703588147921E-24,-3.11376406927903E-17,-1.));
#1093=DIRECTION('center_axis',(0.,0.,1.));
#1094=DIRECTION('ref_axis',(1.,0.,1.84703588147921E-24));
#1095=DIRECTION('center_axis',(-9.9976056600336E-10,1.67361232353255E-9,
-1.));
#1096=DIRECTION('ref_axis',(1.,0.,-9.9976056600336E-10));
#1097=DIRECTION('center_axis',(0.,0.,-1.));
#1098=DIRECTION('ref_axis',(1.,-1.6732116038451E-18,0.));
#1099=DIRECTION('',(-9.9976056600336E-10,1.67361232353255E-9,-1.));
#1100=DIRECTION('center_axis',(0.,0.,1.));
#1101=DIRECTION('ref_axis',(1.,0.,0.));
#1102=DIRECTION('center_axis',(0.,0.,1.));
#1103=DIRECTION('ref_axis',(1.,0.,0.));
#1104=DIRECTION('center_axis',(0.707106640697044,3.29597460435593E-17,-0.707106921676023));
#1105=DIRECTION('ref_axis',(-0.707106921676023,0.,-0.707106640697044));
#1106=DIRECTION('',(4.66121291281731E-17,-1.,0.));
#1107=DIRECTION('',(0.707106921676023,0.,0.707106640697044));
#1108=DIRECTION('',(0.,1.,4.66121106061815E-17));
#1109=DIRECTION('center_axis',(0.707106640697044,-3.29597460435593E-17,
0.707106921676023));
#1110=DIRECTION('ref_axis',(0.707106921676023,0.,-0.707106640697044));
#1111=DIRECTION('',(0.,-1.,-4.66121106061815E-17));
#1112=DIRECTION('',(0.707106921676023,0.,-0.707106640697044));
#1113=DIRECTION('',(4.66121291281731E-17,1.,0.));
#1114=DIRECTION('center_axis',(0.,0.,1.));
#1115=DIRECTION('ref_axis',(1.,0.,0.));
#1116=DIRECTION('',(1.,0.,0.));
#1117=DIRECTION('center_axis',(0.,0.,1.));
#1118=DIRECTION('ref_axis',(1.,0.,0.));
#1119=DIRECTION('center_axis',(0.,0.,1.));
#1120=DIRECTION('ref_axis',(1.,0.,0.));
#1121=DIRECTION('center_axis',(1.,0.,0.));
#1122=DIRECTION('ref_axis',(0.,0.,-1.));
#1123=DIRECTION('',(0.,0.,1.));
#1124=DIRECTION('center_axis',(1.,0.,0.));
#1125=DIRECTION('ref_axis',(0.,0.,-1.));
#1126=DIRECTION('',(0.,0.,-1.));
#1127=DIRECTION('center_axis',(0.,1.,0.));
#1128=DIRECTION('ref_axis',(0.,0.,1.));
#1129=DIRECTION('',(0.,0.,-1.));
#1130=DIRECTION('',(-1.,0.,0.));
#1131=DIRECTION('',(0.,0.,1.));
#1132=DIRECTION('center_axis',(1.,0.,0.));
#1133=DIRECTION('ref_axis',(0.,0.,-1.));
#1134=DIRECTION('center_axis',(0.,0.,1.));
#1135=DIRECTION('ref_axis',(1.,0.,0.));
#1136=DIRECTION('center_axis',(1.,0.,0.));
#1137=DIRECTION('ref_axis',(0.,0.,-1.));
#1138=DIRECTION('center_axis',(0.,0.,1.));
#1139=DIRECTION('ref_axis',(1.,0.,0.));
#1140=DIRECTION('center_axis',(0.,0.,1.));
#1141=DIRECTION('ref_axis',(1.,0.,0.));
#1142=CARTESIAN_POINT('',(0.,0.,0.));
#1143=CARTESIAN_POINT('Origin',(6.39643173718219,-0.000882476811911428,
-5.08874342878321));
#1144=CARTESIAN_POINT('',(14.4999992847443,-8.99999976158142,0.872704419830344));
#1145=CARTESIAN_POINT('',(14.4999992847443,8.99999976158141,0.871672518508426));
#1146=CARTESIAN_POINT('Origin',(14.4999992847443,-0.000343220047276382,
-5.08696372865971));
#1147=CARTESIAN_POINT('',(11.4986809119331,-8.99999976158142,5.36629145262442));
#1148=CARTESIAN_POINT('Ctrl Pts',(11.4986809119331,-8.99999976158142,5.36629145262442));
#1149=CARTESIAN_POINT('Ctrl Pts',(13.4099308854435,-8.99999976158142,2.84519533029076));
#1150=CARTESIAN_POINT('Ctrl Pts',(14.4999992847443,-8.99999976158142,0.872704419830344));
#1151=CARTESIAN_POINT('',(11.4998132517479,8.99999976158142,5.36629145659445));
#1152=CARTESIAN_POINT('Ctrl Pts',(11.4998132514767,8.99999976175794,5.36629145680039));
#1153=CARTESIAN_POINT('Ctrl Pts',(11.4999615529623,7.91957191468433,6.29658404609149));
#1154=CARTESIAN_POINT('Ctrl Pts',(11.5000660621586,6.64547961494213,7.09089574001728));
#1155=CARTESIAN_POINT('Ctrl Pts',(11.5001684021888,3.5792649599731,8.36096342865151));
#1156=CARTESIAN_POINT('Ctrl Pts',(11.5001326113352,1.73191246891202,8.70708650857429));
#1157=CARTESIAN_POINT('Ctrl Pts',(11.4999146210114,-1.73191248155885,8.70708650866022));
#1158=CARTESIAN_POINT('Ctrl Pts',(11.499717892124,-3.57926497541543,8.36096342422922));
#1159=CARTESIAN_POINT('Ctrl Pts',(11.4992297697032,-6.64547962616496,7.09089573283706));
#1160=CARTESIAN_POINT('Ctrl Pts',(11.498965019176,-7.91957192082458,6.29658403883496));
#1161=CARTESIAN_POINT('Ctrl Pts',(11.4986809116617,-8.99999976175794,5.3662914528304));
#1162=CARTESIAN_POINT('Ctrl Pts',(14.4999992847443,8.99999976158142,0.871672518508432));
#1163=CARTESIAN_POINT('Ctrl Pts',(13.4104626426327,8.99999976158142,2.8448686158202));
#1164=CARTESIAN_POINT('Ctrl Pts',(11.499813251748,8.99999976158142,5.36629145659438));
#1165=CARTESIAN_POINT('Origin',(0.,-8.99999976158142,2.98617632765519));
#1166=CARTESIAN_POINT('',(14.4999992847443,-8.99999976158142,-5.08602142333984));
#1167=CARTESIAN_POINT('',(14.4999992847443,-8.99999976158142,-1.01080027010678));
#1168=CARTESIAN_POINT('',(17.5,-8.99999976158142,-5.08602142333984));
#1169=CARTESIAN_POINT('',(17.5,-8.99999976158142,-5.08602142333984));
#1170=CARTESIAN_POINT('',(17.5,-8.99999976158142,7.70709156990051));
#1171=CARTESIAN_POINT('',(17.5,-8.99999976158142,-1.26043104496453));
#1172=CARTESIAN_POINT('',(14.4999992847443,-8.99999976158142,10.7070910930634));
#1173=CARTESIAN_POINT('',(13.7052269290414,-8.99999976158142,11.5018631329522));
#1174=CARTESIAN_POINT('',(0.00164333790345777,-8.99999976158142,10.7070910930634));
#1175=CARTESIAN_POINT('',(3.01453701005532,-8.99999976158142,10.7070910930634));
#1176=CARTESIAN_POINT('',(-0.00164333790345777,-8.99999976158142,10.7070910930634));
#1177=CARTESIAN_POINT('Origin',(9.1681914156982E-25,1.40042313756145E-16,
10.7070910930634));
#1178=CARTESIAN_POINT('',(-14.4999992847443,-8.99999976158142,10.7070910930634));
#1179=CARTESIAN_POINT('',(-3.01453701005532,-8.99999976158142,10.7070910930634));
#1180=CARTESIAN_POINT('',(-17.5,-8.99999976158142,7.70709156990051));
#1181=CARTESIAN_POINT('',(-13.7052269290414,-8.99999976158142,11.5018631329522));
#1182=CARTESIAN_POINT('',(-17.5,-8.99999976158142,-5.08602142333984));
#1183=CARTESIAN_POINT('',(-17.5,-8.99999976158142,-1.26043104496453));
#1184=CARTESIAN_POINT('',(-14.4999992847443,-8.99999976158142,-5.08602142333984));
#1185=CARTESIAN_POINT('',(-14.4999992847443,-8.99999976158142,-5.08602142333984));
#1186=CARTESIAN_POINT('',(-14.4999992847443,-8.99999976158142,0.872704419830349));
#1187=CARTESIAN_POINT('',(-14.4999992847443,-8.99999976158142,-1.01080027010678));
#1188=CARTESIAN_POINT('',(-11.498736591362,-8.99999976158142,5.36621800676246));
#1189=CARTESIAN_POINT('Ctrl Pts',(-11.498736591362,-8.99999976158142,5.36621800676246));
#1190=CARTESIAN_POINT('Ctrl Pts',(-13.4099462338913,-8.99999976158142,2.84516755710358));
#1191=CARTESIAN_POINT('Ctrl Pts',(-14.4999992847443,-8.99999976158142,0.872704419830336));
#1192=CARTESIAN_POINT('',(3.78930220534812E-11,-8.99999976158142,5.36625472978235));
#1193=CARTESIAN_POINT('Origin',(7.60102593129021,-1.35994933997837E-9,-5.08612785258935));
#1194=CARTESIAN_POINT('',(-11.4998689226662,8.99999976117621,5.3662179888064));
#1195=CARTESIAN_POINT('Ctrl Pts',(-11.4987365910906,-8.99999976175794,5.36621800696844));
#1196=CARTESIAN_POINT('Ctrl Pts',(-11.4990024581066,-7.92041081454779,6.29581856738198));
#1197=CARTESIAN_POINT('Ctrl Pts',(-11.4992516125513,-6.64756518526174,7.08957435457089));
#1198=CARTESIAN_POINT('Ctrl Pts',(-11.4997151782108,-3.58234658715366,8.36022765755937));
#1199=CARTESIAN_POINT('Ctrl Pts',(-11.4999053438242,-1.73443434506325,8.70685542402205));
#1200=CARTESIAN_POINT('Ctrl Pts',(-11.5001235280545,1.73079979168289,8.70733548623363));
#1201=CARTESIAN_POINT('Ctrl Pts',(-11.5001660668103,3.57899482660213,8.36114554118844));
#1202=CARTESIAN_POINT('Ctrl Pts',(-11.5000882986185,6.64572167060086,7.09071696111711));
#1203=CARTESIAN_POINT('Ctrl Pts',(-11.4999991896463,7.91964451473254,6.29647839024904));
#1204=CARTESIAN_POINT('Ctrl Pts',(-11.4998689237279,8.99999976092833,5.36621798851712));
#1205=CARTESIAN_POINT('',(3.78075348805851E-11,8.99999976158142,5.36625472218455));
#1206=CARTESIAN_POINT('',(3.8000000089551,-1.76747188025984E-17,8.70708954372998));
#1207=CARTESIAN_POINT('',(8.19999996233307,3.36240984057559E-9,8.70708780938519));
#1208=CARTESIAN_POINT('Ctrl Pts',(3.8000000089551,0.,8.70708954372998));
#1209=CARTESIAN_POINT('Ctrl Pts',(3.8000000093225,-0.27674190919393,8.70708954378789));
#1210=CARTESIAN_POINT('Ctrl Pts',(3.85540351642442,-0.571609634719049,8.6979134678048));
#1211=CARTESIAN_POINT('Ctrl Pts',(4.08006900642197,-1.11350644100469,8.66474961032113));
#1212=CARTESIAN_POINT('Ctrl Pts',(4.24930504688352,-1.3605745097521,8.64122481465388));
#1213=CARTESIAN_POINT('Ctrl Pts',(4.63942667604575,-1.75069684356154,8.59694306893008));
#1214=CARTESIAN_POINT('Ctrl Pts',(4.88649256879856,-1.91992991175906,8.57328623948308));
#1215=CARTESIAN_POINT('Ctrl Pts',(5.42838255223677,-2.14459389487956,8.5398192879498));
#1216=CARTESIAN_POINT('Ctrl Pts',(5.723247944957,-2.19999947824398,8.53050975837188));
#1217=CARTESIAN_POINT('Ctrl Pts',(6.27674479792445,-2.20000046908765,8.53050946065429));
#1218=CARTESIAN_POINT('Ctrl Pts',(6.57161104202569,-2.14459568410287,8.53981871668983));
#1219=CARTESIAN_POINT('Ctrl Pts',(7.11350283330473,-1.9199326620223,8.57328522335458));
#1220=CARTESIAN_POINT('Ctrl Pts',(7.36056968205214,-1.75069975631002,8.59694187819596));
#1221=CARTESIAN_POINT('Ctrl Pts',(7.75069295124016,-1.36057718514328,8.64122336664059));
#1222=CARTESIAN_POINT('Ctrl Pts',(7.919929718366,-1.11350876373146,8.66474805429815));
#1223=CARTESIAN_POINT('Ctrl Pts',(8.14459619493381,-0.571610946792819,8.69791176769441));
#1224=CARTESIAN_POINT('Ctrl Pts',(8.19999996244418,-0.276742561604348,8.70708780948397));
#1225=CARTESIAN_POINT('Ctrl Pts',(8.19999996233307,3.80407039202169E-9,
8.70708780938519));
#1226=CARTESIAN_POINT('Ctrl Pts',(8.19999996233307,3.80407053079956E-9,
8.70708780938519));
#1227=CARTESIAN_POINT('Ctrl Pts',(8.19999996222195,0.276742569233597,8.7070878092864));
#1228=CARTESIAN_POINT('Ctrl Pts',(8.14459619446764,0.571610954391987,8.69791176728512));
#1229=CARTESIAN_POINT('Ctrl Pts',(7.91992971746151,1.11350877117936,8.66474805349605));
#1230=CARTESIAN_POINT('Ctrl Pts',(7.75069295014183,1.36057719247058,8.64122336565718));
#1231=CARTESIAN_POINT('Ctrl Pts',(7.36056968065691,1.75069976335757,8.59694187692198));
#1232=CARTESIAN_POINT('Ctrl Pts',(7.11350283178261,1.91993266889734,8.5732852219512));
#1233=CARTESIAN_POINT('Ctrl Pts',(6.57161104032529,2.14459569058604,8.53981871511154));
#1234=CARTESIAN_POINT('Ctrl Pts',(6.27674479617204,2.20000047535032,8.53050945903119));
#1235=CARTESIAN_POINT('Ctrl Pts',(5.99999604644554,2.19999997970567,8.53050960789016));
#1236=CARTESIAN_POINT('Ctrl Pts',(5.72324794318682,2.19999948406218,8.53050975674878));
#1237=CARTESIAN_POINT('Ctrl Pts',(5.4283825505142,2.14459390044894,8.53981928637077));
#1238=CARTESIAN_POINT('Ctrl Pts',(4.88649256727476,1.91992991686594,8.5732862380768));
#1239=CARTESIAN_POINT('Ctrl Pts',(4.63942667467245,1.75069684845582,8.59694306765185));
#1240=CARTESIAN_POINT('Ctrl Pts',(4.24930504582857,1.36057451431088,8.64122481366623));
#1241=CARTESIAN_POINT('Ctrl Pts',(4.08006900555831,1.11350644540667,8.66474960951615));
#1242=CARTESIAN_POINT('Ctrl Pts',(3.8554035159768,0.571609638895253,8.69791346739478));
#1243=CARTESIAN_POINT('Ctrl Pts',(3.80000000884398,0.276741911263164,8.7070895436312));
#1244=CARTESIAN_POINT('Ctrl Pts',(3.8000000089551,2.03742682447494E-9,8.70708954372998));
#1245=CARTESIAN_POINT('',(-2.19999960066774,5.99999994901635,7.3337191313275));
#1246=CARTESIAN_POINT('',(2.19999968431432,5.99999989440453,7.33372288628462));
#1247=CARTESIAN_POINT('Ctrl Pts',(-2.19999960066774,5.99999994901635,7.3337191313275));
#1248=CARTESIAN_POINT('Ctrl Pts',(-2.19999957961918,6.28877151962646,7.19421296018417));
#1249=CARTESIAN_POINT('Ctrl Pts',(-2.14025581448883,6.59230710680983,7.03396696877816));
#1250=CARTESIAN_POINT('Ctrl Pts',(-1.9009341913531,7.14803033964512,6.71475399972772));
#1251=CARTESIAN_POINT('Ctrl Pts',(-1.72159207303897,7.40052167080552,6.55613914000933));
#1252=CARTESIAN_POINT('Ctrl Pts',(-1.32509529370512,7.77425974816086,6.30932952267529));
#1253=CARTESIAN_POINT('Ctrl Pts',(-1.09098684194354,7.93122312478337,6.19949459026005));
#1254=CARTESIAN_POINT('Ctrl Pts',(-0.567422201963673,8.14427285369494,6.04672399716004));
#1255=CARTESIAN_POINT('Ctrl Pts',(-0.277475065244674,8.19999749091795,6.00496933361755));
#1256=CARTESIAN_POINT('Ctrl Pts',(-1.45094583103855E-5,8.19999934277741,
6.00496861404986));
#1257=CARTESIAN_POINT('Ctrl Pts',(0.289487770412303,8.20000127500714,6.0049678632531));
#1258=CARTESIAN_POINT('Ctrl Pts',(0.590562647433584,8.13945637798752,6.05037062304701));
#1259=CARTESIAN_POINT('Ctrl Pts',(1.13047817233238,7.90998911034719,6.21451249049417));
#1260=CARTESIAN_POINT('Ctrl Pts',(1.36985933087761,7.74140774320177,6.33194718721788));
#1261=CARTESIAN_POINT('Ctrl Pts',(1.75378079299211,7.35749073015658,6.58331977600233));
#1262=CARTESIAN_POINT('Ctrl Pts',(1.92132395679136,7.11074497904928,6.73700390367777));
#1263=CARTESIAN_POINT('Ctrl Pts',(2.14453037054837,6.57116540734228,7.04519403572772));
#1264=CARTESIAN_POINT('Ctrl Pts',(2.19999833967321,6.27807160894186,7.19938613699352));
#1265=CARTESIAN_POINT('Ctrl Pts',(2.19999968430592,6.00000705724889,7.33371942590925));
#1266=CARTESIAN_POINT('Ctrl Pts',(2.19999968431449,6.00000347582562,7.33372115609683));
#1267=CARTESIAN_POINT('Ctrl Pts',(2.19999968431432,5.99999989439799,7.33372288628461));
#1268=CARTESIAN_POINT('Ctrl Pts',(2.19999968431431,5.99999989439799,7.33372288628461));
#1269=CARTESIAN_POINT('Ctrl Pts',(2.19999967155763,5.7346176554995,7.46192905286215));
#1270=CARTESIAN_POINT('Ctrl Pts',(2.14894796747582,5.44486769953702,7.59031561495972));
#1271=CARTESIAN_POINT('Ctrl Pts',(1.92824671173128,4.90090206038206,7.81038291914874));
#1272=CARTESIAN_POINT('Ctrl Pts',(1.75826067556562,4.6469929525098,7.90248358129526));
#1273=CARTESIAN_POINT('Ctrl Pts',(1.36368908868433,4.25241825111868,8.03678450978195));
#1274=CARTESIAN_POINT('Ctrl Pts',(1.11824780824914,4.08275549766572,8.08952551920886));
#1275=CARTESIAN_POINT('Ctrl Pts',(0.575992977785073,3.85651286148549,8.1575140802874));
#1276=CARTESIAN_POINT('Ctrl Pts',(0.279220281430648,3.80000123822077,8.17331346873938));
#1277=CARTESIAN_POINT('Ctrl Pts',(-0.274427274031915,3.79999952568271,8.1733139274953));
#1278=CARTESIAN_POINT('Ctrl Pts',(-0.566475596006136,3.85460546391792,8.15803711802629));
#1279=CARTESIAN_POINT('Ctrl Pts',(-1.10162471458149,4.07385488318691,8.09224767100002));
#1280=CARTESIAN_POINT('Ctrl Pts',(-1.34469034684749,4.23842903795839,8.04121899594899));
#1281=CARTESIAN_POINT('Ctrl Pts',(-1.74458412037217,4.62836608424853,7.90914504383271));
#1282=CARTESIAN_POINT('Ctrl Pts',(-1.91973356828259,4.88487627951531,7.81654589093731));
#1283=CARTESIAN_POINT('Ctrl Pts',(-2.14727421689002,5.43600441293228,7.59420375170477));
#1284=CARTESIAN_POINT('Ctrl Pts',(-2.19999829652417,5.73030290386591,7.46401006869058));
#1285=CARTESIAN_POINT('Ctrl Pts',(-2.19999960065944,5.99999274977232,7.33372260929595));
#1286=CARTESIAN_POINT('Ctrl Pts',(-2.19999960066801,5.99999634939315,7.33372087031326));
#1287=CARTESIAN_POINT('Ctrl Pts',(-2.19999960066774,5.99999994901635,7.3337191313275));
#1288=CARTESIAN_POINT('',(-2.19999999855374,-5.99999995102017,7.33371913547527));
#1289=CARTESIAN_POINT('Ctrl Pts',(-1.46899653317989E-5,-8.1999999701447,
6.0049681567368));
#1290=CARTESIAN_POINT('Ctrl Pts',(0.289487652150791,-8.20000190214252,6.00496740593978));
#1291=CARTESIAN_POINT('Ctrl Pts',(0.590562586339209,-8.13945698272649,6.05037018771965));
#1292=CARTESIAN_POINT('Ctrl Pts',(1.1304782093192,-7.9099896502393,6.21451211868762));
#1293=CARTESIAN_POINT('Ctrl Pts',(1.36985940928745,-7.74140824094715,6.33194685600824));
#1294=CARTESIAN_POINT('Ctrl Pts',(1.75378094869548,-7.35749113893545,6.58331952426384));
#1295=CARTESIAN_POINT('Ctrl Pts',(1.92132415323683,-7.11074532893192,6.73700369968013));
#1296=CARTESIAN_POINT('Ctrl Pts',(2.14453063404302,-6.57116562852609,7.04519392176652));
#1297=CARTESIAN_POINT('Ctrl Pts',(2.19999862919782,-6.27807176016565,7.19938606527843));
#1298=CARTESIAN_POINT('Ctrl Pts',(2.20000128332913,-5.73462549481233,7.46192555423299));
#1299=CARTESIAN_POINT('Ctrl Pts',(2.14894978059834,-5.44487133990328,7.59031414748956));
#1300=CARTESIAN_POINT('Ctrl Pts',(1.92824702575439,-4.90090191027059,7.81038298041297));
#1301=CARTESIAN_POINT('Ctrl Pts',(1.75826097119276,-4.64699274304808,7.90248365971168));
#1302=CARTESIAN_POINT('Ctrl Pts',(1.36368932951537,-4.25241795433907,8.03678460906997));
#1303=CARTESIAN_POINT('Ctrl Pts',(1.1182480154542,-4.08275516598183,8.08952562465374));
#1304=CARTESIAN_POINT('Ctrl Pts',(0.575993104742053,-3.85651248370733,8.15751419293876));
#1305=CARTESIAN_POINT('Ctrl Pts',(0.279220361811088,-3.80000084920824,8.17331358269105));
#1306=CARTESIAN_POINT('Ctrl Pts',(-0.274427282290441,-3.79999913711468,
8.17331404144699));
#1307=CARTESIAN_POINT('Ctrl Pts',(-0.566475650475892,-3.85460508668071,
8.15803723069272));
#1308=CARTESIAN_POINT('Ctrl Pts',(-1.10162485401309,-4.07385454664398,8.09224777821235));
#1309=CARTESIAN_POINT('Ctrl Pts',(-1.34469052503632,-4.23842873071865,8.04121909880066));
#1310=CARTESIAN_POINT('Ctrl Pts',(-1.74458438001156,-4.62836585439352,7.90914513013259));
#1311=CARTESIAN_POINT('Ctrl Pts',(-1.91973386963882,-4.88487610934251,7.81654596083913));
#1312=CARTESIAN_POINT('Ctrl Pts',(-2.14727458074442,-5.4360043698685,7.59420377626579));
#1313=CARTESIAN_POINT('Ctrl Pts',(-2.19999868140947,-5.73030292805163,7.46401006412816));
#1314=CARTESIAN_POINT('Ctrl Pts',(-2.20000140887191,-6.28876409750311,7.19421685847712));
#1315=CARTESIAN_POINT('Ctrl Pts',(-2.1402577225119,-6.59230387701929,7.03396883921405));
#1316=CARTESIAN_POINT('Ctrl Pts',(-1.90093459150747,-7.14803071946239,6.71475377834424));
#1317=CARTESIAN_POINT('Ctrl Pts',(-1.72159245258442,-7.4005221197179,6.55613886268692));
#1318=CARTESIAN_POINT('Ctrl Pts',(-1.32509562536303,-7.77426028450104,6.3093291642928));
#1319=CARTESIAN_POINT('Ctrl Pts',(-1.09098715450274,-7.93122369333905,6.19949419789457));
#1320=CARTESIAN_POINT('Ctrl Pts',(-0.56742245906505,-8.14427346809166,6.04672355487266));
#1321=CARTESIAN_POINT('Ctrl Pts',(-0.277475285453544,-8.19999811850764,
6.0049688763047));
#1322=CARTESIAN_POINT('Ctrl Pts',(-1.46899653319377E-5,-8.1999999701447,
6.0049681567368));
#1323=CARTESIAN_POINT('',(-2.99999999288137,1.82549809369155E-15,8.70709222408105));
#1324=CARTESIAN_POINT('Ctrl Pts',(-7.33059033135308E-6,-2.99999997914203,
8.37688924176999));
#1325=CARTESIAN_POINT('Ctrl Pts',(-0.378011607699309,-2.99999905632973,
8.37688949235579));
#1326=CARTESIAN_POINT('Ctrl Pts',(-0.780353128955397,-2.92420584967906,
8.39446312726888));
#1327=CARTESIAN_POINT('Ctrl Pts',(-1.51911209015251,-2.61767643729754,8.45732438706559));
#1328=CARTESIAN_POINT('Ctrl Pts',(-1.85563819275991,-2.38700313085325,8.50163786316798));
#1329=CARTESIAN_POINT('Ctrl Pts',(-2.38698674463891,-1.85565326686087,8.58434116133693));
#1330=CARTESIAN_POINT('Ctrl Pts',(-2.61767561877733,-1.51911775831905,8.6281926175661));
#1331=CARTESIAN_POINT('Ctrl Pts',(-2.9242151284466,-0.780327109797785,8.68998960460952));
#1332=CARTESIAN_POINT('Ctrl Pts',(-2.99999999272961,-0.377974418822849,
8.7070922243867));
#1333=CARTESIAN_POINT('Ctrl Pts',(-2.99999999303314,0.377974430058258,8.70709222377541));
#1334=CARTESIAN_POINT('Ctrl Pts',(-2.92421512901545,0.780327121225918,8.68998960333409));
#1335=CARTESIAN_POINT('Ctrl Pts',(-2.6176756198427,1.51911777024067,8.62819261504006));
#1336=CARTESIAN_POINT('Ctrl Pts',(-2.38698674593857,1.85565327908577,8.5843411582233));
#1337=CARTESIAN_POINT('Ctrl Pts',(-1.8556381945128,2.38700314364146,8.50163785911135));
#1338=CARTESIAN_POINT('Ctrl Pts',(-1.5191120921649,2.61767645044111,8.45732438258553));
#1339=CARTESIAN_POINT('Ctrl Pts',(-0.780353131307508,2.92420586357406,8.39446312220638));
#1340=CARTESIAN_POINT('Ctrl Pts',(-0.378011610127964,2.99999907061497,8.37688948713872));
#1341=CARTESIAN_POINT('Ctrl Pts',(0.377998144409361,3.00000091684958,8.37688898596631));
#1342=CARTESIAN_POINT('Ctrl Pts',(0.780341248904903,2.92420919633097,8.39446219965917));
#1343=CARTESIAN_POINT('Ctrl Pts',(1.51910357171461,2.61768157214448,8.4573228334068));
#1344=CARTESIAN_POINT('Ctrl Pts',(1.85563145187149,2.38700856758722,8.50163609613472));
#1345=CARTESIAN_POINT('Ctrl Pts',(2.38698305416876,1.85565826304792,8.58433910408843));
#1346=CARTESIAN_POINT('Ctrl Pts',(2.6176732817433,1.51912209808943,8.62819044356723));
#1347=CARTESIAN_POINT('Ctrl Pts',(2.92421462998987,0.780329568610345,8.68998727410319));
#1348=CARTESIAN_POINT('Ctrl Pts',(2.99999997985759,0.377975653926631,8.70708985875977));
#1349=CARTESIAN_POINT('Ctrl Pts',(2.99999998016111,-0.377975637927093,8.70708985937105));
#1350=CARTESIAN_POINT('Ctrl Pts',(2.9242146306528,-0.780329552593394,8.68998727537364));
#1351=CARTESIAN_POINT('Ctrl Pts',(2.617673283016,-1.51912208215293,8.62819044607343));
#1352=CARTESIAN_POINT('Ctrl Pts',(2.38698305568888,-1.85565824720672,8.58433910717277));
#1353=CARTESIAN_POINT('Ctrl Pts',(1.85563145373495,-2.38700855197924,8.50163610016186));
#1354=CARTESIAN_POINT('Ctrl Pts',(1.51910357371712,-2.61768155666284,8.45732283786673));
#1355=CARTESIAN_POINT('Ctrl Pts',(0.780341251141601,-2.92420918120416,8.39446220471654));
#1356=CARTESIAN_POINT('Ctrl Pts',(0.37799814674482,-3.00000090195725,8.37688899118339));
#1357=CARTESIAN_POINT('Ctrl Pts',(-7.33059033156125E-6,-2.99999997914203,
8.37688924176999));
#1358=CARTESIAN_POINT('',(-8.1999999809826,3.82596349186418E-15,8.70709427376128));
#1359=CARTESIAN_POINT('',(-3.80000002882584,1.12527148118453E-8,8.70709253941649));
#1360=CARTESIAN_POINT('Ctrl Pts',(-8.1999999809826,3.7470027081099E-15,
8.70709427376128));
#1361=CARTESIAN_POINT('Ctrl Pts',(-8.19999997962266,-0.276741918930804,
8.70709427391585));
#1362=CARTESIAN_POINT('Ctrl Pts',(-8.14459646986235,-0.571609640747761,
8.69791810827389));
#1363=CARTESIAN_POINT('Ctrl Pts',(-7.9199309775804,-1.11350644424895,8.66475392585183));
#1364=CARTESIAN_POINT('Ctrl Pts',(-7.75069493897607,-1.36057450677249,8.64122889936367));
#1365=CARTESIAN_POINT('Ctrl Pts',(-7.36057332100798,-1.75069682989252,8.59694671717254));
#1366=CARTESIAN_POINT('Ctrl Pts',(-7.11350743498431,-1.91992989630945,8.57328965295577));
#1367=CARTESIAN_POINT('Ctrl Pts',(-6.57161745529917,-2.14459388190238,8.5398223672605));
#1368=CARTESIAN_POINT('Ctrl Pts',(-6.27675205876549,-2.19999946904512,8.53051274369895));
#1369=CARTESIAN_POINT('Ctrl Pts',(-5.72325518575466,-2.20000045989851,8.53051244597979));
#1370=CARTESIAN_POINT('Ctrl Pts',(-5.42838893731432,-2.14459567096329,8.53982179602725));
#1371=CARTESIAN_POINT('Ctrl Pts',(-4.88649714853891,-1.91993264623434,8.57328863687667));
#1372=CARTESIAN_POINT('Ctrl Pts',(-4.63943030579233,-1.75069974230986,8.59694552648195));
#1373=CARTESIAN_POINT('Ctrl Pts',(-4.24930704650755,-1.36057718207393,8.64122745135717));
#1374=CARTESIAN_POINT('Ctrl Pts',(-4.08007028043568,-1.11350876710813,8.66475236981751));
#1375=CARTESIAN_POINT('Ctrl Pts',(-3.85540380031369,-0.571610953109747,
8.69791640815028));
#1376=CARTESIAN_POINT('Ctrl Pts',(-3.80000002871472,-0.276742563660621,
8.70709253977025));
#1377=CARTESIAN_POINT('Ctrl Pts',(-3.80000002882584,1.16943846967255E-8,
8.70709253941649));
#1378=CARTESIAN_POINT('Ctrl Pts',(-3.80000002882584,1.16943847661144E-8,
8.70709253941649));
#1379=CARTESIAN_POINT('Ctrl Pts',(-3.80000002893695,0.276742587181666,8.70709253906272));
#1380=CARTESIAN_POINT('Ctrl Pts',(-3.85540380081751,0.571610976694196,8.69791640668122));
#1381=CARTESIAN_POINT('Ctrl Pts',(-4.08007028139457,1.11350879075838,8.66475236692581));
#1382=CARTESIAN_POINT('Ctrl Pts',(-4.24930704763624,1.36057720572926,8.64122744780299));
#1383=CARTESIAN_POINT('Ctrl Pts',(-4.63943030713174,1.75069976594686,8.59694552185477));
#1384=CARTESIAN_POINT('Ctrl Pts',(-4.88649714995776,1.91993266988057,8.57328863176299));
#1385=CARTESIAN_POINT('Ctrl Pts',(-5.42838893890014,2.14459569450972,8.53982179024816));
#1386=CARTESIAN_POINT('Ctrl Pts',(-5.72325518743216,2.20000048332801,8.53051244002615));
#1387=CARTESIAN_POINT('Ctrl Pts',(-6.00000394751869,2.1999999876785,8.5305125888859));
#1388=CARTESIAN_POINT('Ctrl Pts',(-6.2767520605543,2.19999949203014,8.53051273774531));
#1389=CARTESIAN_POINT('Ctrl Pts',(-6.571617457024,2.14459390455736,8.53982236147681));
#1390=CARTESIAN_POINT('Ctrl Pts',(-7.11350743641361,1.91992991829373,8.57328964782391));
#1391=CARTESIAN_POINT('Ctrl Pts',(-7.36057332220988,1.75069685154399,8.59694671251863));
#1392=CARTESIAN_POINT('Ctrl Pts',(-7.75069493983291,1.36057452788651,8.64122889578287));
#1393=CARTESIAN_POINT('Ctrl Pts',(-7.91993097828345,1.11350646505106,8.66475392294208));
#1394=CARTESIAN_POINT('Ctrl Pts',(-8.14459647024998,0.571609661021549,8.6979181068003));
#1395=CARTESIAN_POINT('Ctrl Pts',(-8.19999998109371,0.276741929057828,8.70709427340751));
#1396=CARTESIAN_POINT('Ctrl Pts',(-8.1999999809826,9.927697552925E-9,8.70709427376128));
#1397=CARTESIAN_POINT('Origin',(-6.39643173718205,-0.000882476811913629,
-5.08874342878321));
#1398=CARTESIAN_POINT('',(-14.4999992847443,8.99999976158142,0.871672518508442));
#1399=CARTESIAN_POINT('Origin',(-14.4999992847443,-0.000343220047280823,
-5.0869637286597));
#1400=CARTESIAN_POINT('Ctrl Pts',(-11.4998689229307,8.99999976158142,5.36621798900678));
#1401=CARTESIAN_POINT('Ctrl Pts',(-13.4104779864752,8.99999976158142,2.84484082748446));
#1402=CARTESIAN_POINT('Ctrl Pts',(-14.4999992847443,8.99999976158142,0.871672518508428));
#1403=CARTESIAN_POINT('Origin',(5.99999997440307,1.68273517308607E-9,10.9048162345581));
#1404=CARTESIAN_POINT('',(8.19999995210339,1.79411700834896E-9,10.7070911162175));
#1405=CARTESIAN_POINT('',(8.19999995109205,1.68273544250836E-9,10.9048162458108));
#1406=CARTESIAN_POINT('Origin',(5.99999997541441,1.79411674563097E-9,10.7070910930634));
#1407=CARTESIAN_POINT('Origin',(2.39372485250656E-23,-6.00000008039292,
10.7070910930634));
#1408=CARTESIAN_POINT('',(-1.10000001631858,-6.00000023841858,13.6070919036865));
#1409=CARTESIAN_POINT('Origin',(2.07130402594373E-23,-6.00000008039292,
13.6070919036865));
#1410=CARTESIAN_POINT('',(-1.10000001631858,-6.00000023841858,10.7070910930634));
#1411=CARTESIAN_POINT('',(-1.10000001631859,-6.00000008039292,10.7070910930634));
#1412=CARTESIAN_POINT('Origin',(2.39372485250656E-23,-6.00000008039292,
10.7070910930634));
#1413=CARTESIAN_POINT('Origin',(-5.65519940574296E-9,-5.9999999781312,7.3337197303772));
#1414=CARTESIAN_POINT('',(-2.1999999920031,-6.00000023841858,10.7070910930634));
#1415=CARTESIAN_POINT('Origin',(8.95418449571304E-10,-5.99999998025373,
10.7070910930634));
#1416=CARTESIAN_POINT('',(-2.19999999855374,-5.9999999781312,7.33371973464929));
#1417=CARTESIAN_POINT('Origin',(-5.99999997410858,9.4619198650107E-10,10.904881578357));
#1418=CARTESIAN_POINT('',(-3.80000000080165,1.83398159095355E-9,10.7070910982338));
#1419=CARTESIAN_POINT('',(-3.79999999803019,9.46192255923363E-10,10.9048815475304));
#1420=CARTESIAN_POINT('Origin',(-5.99999997688004,1.83398148310526E-9,10.7070910930634));
#1421=CARTESIAN_POINT('Origin',(-17.5,-6.41736590572195E-9,-5.08602263878676));
#1422=CARTESIAN_POINT('',(-14.4999992847443,-2.9999998221419,-5.08602142333996));
#1423=CARTESIAN_POINT('Origin',(-14.4999992847443,-6.41736600798145E-9,
-5.08602263878676));
#1424=CARTESIAN_POINT('',(-17.5,-2.9999998221419,-5.08602142333996));
#1425=CARTESIAN_POINT('',(-17.5,-2.99999982214215,-5.08602263878676));
#1426=CARTESIAN_POINT('Origin',(-17.5,-6.41736590572195E-9,-5.08602263878676));
#1427=CARTESIAN_POINT('Origin',(-17.5,-1.85672344914534E-17,-11.0860226738261));
#1428=CARTESIAN_POINT('',(-14.4999992847443,-1.10000005203053,-11.0860204696654));
#1429=CARTESIAN_POINT('Origin',(-14.4999992847443,-2.39200042053858E-17,
-11.0860226738261));
#1430=CARTESIAN_POINT('',(-17.5,-1.10000005203053,-11.0860204696654));
#1431=CARTESIAN_POINT('',(-17.5,-1.10000005203274,-11.0860226738261));
#1432=CARTESIAN_POINT('Origin',(-17.5,-1.85672344914534E-17,-11.0860226738261));
#1433=CARTESIAN_POINT('Origin',(14.4999992847443,-6.41736590572195E-9,-5.08602263878676));
#1434=CARTESIAN_POINT('',(17.5,-2.9999998221419,-5.08602142333996));
#1435=CARTESIAN_POINT('Origin',(17.5,-6.41736600798145E-9,-5.08602263878676));
#1436=CARTESIAN_POINT('',(14.4999992847443,-2.9999998221419,-5.08602142333996));
#1437=CARTESIAN_POINT('',(14.4999992847443,-2.99999982214215,-5.08602263878676));
#1438=CARTESIAN_POINT('Origin',(14.4999992847443,-6.41736590572195E-9,-5.08602263878676));
#1439=CARTESIAN_POINT('Origin',(17.5,0.,-5.08602142333984));
#1440=CARTESIAN_POINT('',(14.4999992847443,8.99999976158142,-5.08602142333984));
#1441=CARTESIAN_POINT('Origin',(14.4999992847443,0.,-5.08602142333984));
#1442=CARTESIAN_POINT('',(17.5,8.99999976158142,-5.08602142333984));
#1443=CARTESIAN_POINT('',(17.5,8.99999976158142,-5.08602142333984));
#1444=CARTESIAN_POINT('Origin',(17.5,0.,-5.08602142333984));
#1445=CARTESIAN_POINT('Origin',(-6.00000008039292,-2.97702769608788E-17,
10.7070910930634));
#1446=CARTESIAN_POINT('',(-7.10000009671151,2.35793340946205E-15,13.6070919036865));
#1447=CARTESIAN_POINT('Origin',(-6.00000008039292,-3.78553299059495E-17,
13.6070919036865));
#1448=CARTESIAN_POINT('',(-7.10000009671151,2.35793340717407E-15,10.7070910930634));
#1449=CARTESIAN_POINT('',(-7.10000009671151,1.04940872943781E-16,10.7070910930634));
#1450=CARTESIAN_POINT('Origin',(-6.00000008039292,-2.97702769608788E-17,
10.7070910930634));
#1451=CARTESIAN_POINT('Origin',(-5.3363020946732E-13,-5.33731698775051E-13,
11.7070913314819));
#1452=CARTESIAN_POINT('',(-7.99999996014392,4.89848119015794E-16,11.7070913314819));
#1453=CARTESIAN_POINT('Origin',(-5.3363020946732E-13,-5.33731698775051E-13,
11.7070913314819));
#1454=CARTESIAN_POINT('',(-7.99999996201904,4.53004528784549E-16,13.6070919036865));
#1455=CARTESIAN_POINT('',(-7.99999996014392,-5.32751981340615E-13,11.7070913235867));
#1456=CARTESIAN_POINT('Origin',(-1.87564819665519E-9,-1.87564826577018E-9,
13.6070919036865));
#1457=CARTESIAN_POINT('Origin',(-17.5,-6.00000008039292,-5.08602239913114));
#1458=CARTESIAN_POINT('',(-14.4999992847443,-7.10000012749725,-5.08602142333954));
#1459=CARTESIAN_POINT('Origin',(-14.4999992847443,-6.00000008039292,-5.08602239913114));
#1460=CARTESIAN_POINT('',(-17.5,-7.10000012749725,-5.08602142333954));
#1461=CARTESIAN_POINT('',(-17.5,-7.10000012749768,-5.08602239913114));
#1462=CARTESIAN_POINT('Origin',(-17.5,-6.00000008039292,-5.08602239913114));
#1463=CARTESIAN_POINT('Origin',(14.4999992847443,6.00000008039292,-5.08602239913114));
#1464=CARTESIAN_POINT('',(17.5,4.90000003328859,-5.08602142333979));
#1465=CARTESIAN_POINT('Origin',(17.5,6.00000008039292,-5.08602239913114));
#1466=CARTESIAN_POINT('',(14.4999992847443,4.90000003328859,-5.08602142333979));
#1467=CARTESIAN_POINT('',(14.4999992847443,4.90000003328816,-5.08602239913114));
#1468=CARTESIAN_POINT('Origin',(14.4999992847443,6.00000008039292,-5.08602239913114));
#1469=CARTESIAN_POINT('Origin',(-17.5,6.00000008039292,-5.08602239913114));
#1470=CARTESIAN_POINT('',(-14.4999992847443,4.90000003328859,-5.08602142333979));
#1471=CARTESIAN_POINT('Origin',(-14.4999992847443,6.00000008039292,-5.08602239913114));
#1472=CARTESIAN_POINT('',(-17.5,4.90000003328859,-5.08602142333979));
#1473=CARTESIAN_POINT('',(-17.5,4.90000003328816,-5.08602239913114));
#1474=CARTESIAN_POINT('Origin',(-17.5,6.00000008039292,-5.08602239913114));
#1475=CARTESIAN_POINT('Origin',(14.4999992847443,-6.00000008039292,-5.08602239913114));
#1476=CARTESIAN_POINT('',(17.5,-7.10000012749725,-5.08602142333954));
#1477=CARTESIAN_POINT('Origin',(17.5,-6.00000008039292,-5.08602239913114));
#1478=CARTESIAN_POINT('',(14.4999992847443,-7.10000012749725,-5.08602142333954));
#1479=CARTESIAN_POINT('',(14.4999992847443,-7.10000012749768,-5.08602239913114));
#1480=CARTESIAN_POINT('Origin',(14.4999992847443,-6.00000008039292,-5.08602239913114));
#1481=CARTESIAN_POINT('Origin',(-17.5,3.97648711190652E-17,0.91397762298584));
#1482=CARTESIAN_POINT('',(-14.4999992847443,-1.09999998680203,0.91397762298584));
#1483=CARTESIAN_POINT('Origin',(-14.4999992847443,3.67084326517903E-17,
0.91397762298584));
#1484=CARTESIAN_POINT('',(-17.5,-1.09999998680203,0.91397762298584));
#1485=CARTESIAN_POINT('',(-17.5,-1.09999998680203,0.91397762298584));
#1486=CARTESIAN_POINT('Origin',(-17.5,3.97648711190652E-17,0.91397762298584));
#1487=CARTESIAN_POINT('Origin',(-14.4999992847443,0.,-5.08602142333984));
#1488=CARTESIAN_POINT('',(-17.5,8.99999976158142,-5.08602142333984));
#1489=CARTESIAN_POINT('Origin',(-17.5,0.,-5.08602142333984));
#1490=CARTESIAN_POINT('',(-14.4999992847443,8.99999976158142,-5.08602142333984));
#1491=CARTESIAN_POINT('',(-14.4999992847443,8.99999976158142,-5.08602142333984));
#1492=CARTESIAN_POINT('Origin',(-14.4999992847443,0.,-5.08602142333984));
#1493=CARTESIAN_POINT('Origin',(14.4999992847443,3.97648711190652E-17,0.91397762298584));
#1494=CARTESIAN_POINT('',(17.5,-1.09999998680203,0.91397762298584));
#1495=CARTESIAN_POINT('Origin',(17.5,3.67084326517903E-17,0.91397762298584));
#1496=CARTESIAN_POINT('',(14.4999992847443,-1.09999998680203,0.91397762298584));
#1497=CARTESIAN_POINT('',(14.4999992847443,-1.09999998680203,0.91397762298584));
#1498=CARTESIAN_POINT('Origin',(14.4999992847443,3.97648711190652E-17,0.91397762298584));
#1499=CARTESIAN_POINT('Origin',(14.4999992847443,-1.85672344914534E-17,
-11.0860226738261));
#1500=CARTESIAN_POINT('',(17.5,-1.10000005203053,-11.0860204696654));
#1501=CARTESIAN_POINT('Origin',(17.5,-2.39200042053858E-17,-11.0860226738261));
#1502=CARTESIAN_POINT('',(14.4999992847443,-1.10000005203053,-11.0860204696654));
#1503=CARTESIAN_POINT('',(14.4999992847443,-1.10000005203274,-11.0860226738261));
#1504=CARTESIAN_POINT('Origin',(14.4999992847443,-1.85672344914534E-17,
-11.0860226738261));
#1505=CARTESIAN_POINT('Origin',(9.1681914156982E-25,1.40042313756145E-16,
10.7070910930634));
#1506=CARTESIAN_POINT('',(0.00164333790345777,8.99999976158142,10.7070910930634));
#1507=CARTESIAN_POINT('Origin',(9.1681914156982E-25,1.40042313756145E-16,
10.7070910930634));
#1508=CARTESIAN_POINT('',(-7.64174298584554E-33,8.99999983659696,10.7070910930634));
#1509=CARTESIAN_POINT('Origin',(9.1681914156982E-25,1.40042313756145E-16,
10.7070910930634));
#1510=CARTESIAN_POINT('',(-0.00164333790345777,8.99999976158142,10.7070910930634));
#1511=CARTESIAN_POINT('',(-3.01453701005532,8.99999976158142,10.7070910930634));
#1512=CARTESIAN_POINT('',(-8.99999991161251,1.24222442216442E-15,10.7070910930634));
#1513=CARTESIAN_POINT('Origin',(9.1681914156982E-25,1.40042313756145E-16,
10.7070910930634));
#1514=CARTESIAN_POINT('',(-8.9999999116125,2.32647211138194E-15,11.7070913314819));
#1515=CARTESIAN_POINT('',(-8.99999991161251,1.24222442216442E-15,10.7070910930634));
#1516=CARTESIAN_POINT('Origin',(-4.59336427475914E-24,1.4004230457312E-16,
11.7070913314819));
#1517=CARTESIAN_POINT('Origin',(9.1681914156982E-25,1.40042313756145E-16,
10.7070910930634));
#1518=CARTESIAN_POINT('Origin',(6.00000008039292,-9.22328438792014E-18,
10.7070910930634));
#1519=CARTESIAN_POINT('',(4.90000006407433,-2.44152471154185E-16,13.6070919036865));
#1520=CARTESIAN_POINT('Origin',(6.00000008039292,-6.09401855635432E-17,
13.6070919036865));
#1521=CARTESIAN_POINT('',(4.90000006407433,-2.44152472625442E-16,10.7070910930634));
#1522=CARTESIAN_POINT('',(4.90000006407433,1.2548786551674E-16,10.7070910930634));
#1523=CARTESIAN_POINT('Origin',(6.00000008039292,-9.22328438792014E-18,
10.7070910930634));
#1524=CARTESIAN_POINT('Origin',(-3.01297219570105E-7,6.00000039808051,10.7821302941962));
#1525=CARTESIAN_POINT('',(2.19999934866042,6.00000038712045,10.7070917479115));
#1526=CARTESIAN_POINT('',(2.19999934119398,6.00000039808051,10.7821305130985));
#1527=CARTESIAN_POINT('Origin',(-2.93830736718249E-7,6.00000038712039,10.7070910930634));
#1528=CARTESIAN_POINT('Origin',(5.51017467551944E-25,6.00000008039292,10.7070910930634));
#1529=CARTESIAN_POINT('',(-1.10000001631858,6.00000023841858,13.6070919036865));
#1530=CARTESIAN_POINT('Origin',(-4.80538808598785E-24,6.00000008039292,
13.6070919036865));
#1531=CARTESIAN_POINT('',(-1.10000001631858,6.00000023841858,10.7070910930634));
#1532=CARTESIAN_POINT('',(-1.10000001631859,6.00000008039292,10.7070910930634));
#1533=CARTESIAN_POINT('Origin',(5.51017467551944E-25,6.00000008039292,10.7070910930634));
#1534=CARTESIAN_POINT('Origin',(-6.43663126921598E-9,6.74280223749753E-9,
8.70647072792053));
#1535=CARTESIAN_POINT('',(-2.99999998798255,2.52453458877062E-16,13.6070919036865));
#1536=CARTESIAN_POINT('Origin',(-1.53718346876412E-9,-1.45893775522898E-9,
13.6070919036865));
#1537=CARTESIAN_POINT('',(-2.99999999288199,6.74280260489157E-9,8.70647073091981));
#1538=CARTESIAN_POINT('Origin',(0.,-6.00000003973643,10.7070910930634));
#1539=CARTESIAN_POINT('Origin',(-6.00000003973643,0.,10.7070910930634));
#1540=CARTESIAN_POINT('Origin',(-16.2999997138977,-0.409999996423721,8.90709137916565));
#1541=CARTESIAN_POINT('',(-14.4999992847443,8.99999976158142,10.7070910930634));
#1542=CARTESIAN_POINT('',(-14.4999992847443,-0.204999998211861,10.7070910930634));
#1543=CARTESIAN_POINT('',(-17.5,8.99999976158142,7.70709156990051));
#1544=CARTESIAN_POINT('',(-13.7052269290414,8.99999976158142,11.5018631329522));
#1545=CARTESIAN_POINT('',(-17.5,-0.196501420057441,7.70709156990051));
#1546=CARTESIAN_POINT('Origin',(16.2999997138977,-0.409999996423721,8.90709137916565));
#1547=CARTESIAN_POINT('',(17.5,8.99999976158142,7.70709156990051));
#1548=CARTESIAN_POINT('',(17.5,-0.196501420057441,7.70709156990051));
#1549=CARTESIAN_POINT('',(14.4999992847443,8.99999976158142,10.7070910930634));
#1550=CARTESIAN_POINT('',(13.7052269290414,8.99999976158142,11.5018631329522));
#1551=CARTESIAN_POINT('',(14.4999992847443,-0.204999998211861,10.7070910930634));
#1552=CARTESIAN_POINT('Origin',(-6.02907402011064,0.,10.7070910930634));
#1553=CARTESIAN_POINT('',(-3.01453701005532,8.99999976158142,10.7070910930634));
#1554=CARTESIAN_POINT('Origin',(0.0036051236603358,0.0036051236603358,13.6070919036865));
#1555=CARTESIAN_POINT('Origin',(6.16790569236198E-17,0.,11.7070913314819));
#1556=CARTESIAN_POINT('Origin',(14.4999992847443,0.0160393387567802,-5.00777686786875));
#1557=CARTESIAN_POINT('',(14.4999992847443,8.99999976158142,-1.01080027010678));
#1558=CARTESIAN_POINT('Origin',(17.5,0.0169971563088392,-5.50703841758425));
#1559=CARTESIAN_POINT('',(17.5,8.99999976158142,-1.26043104496453));
#1560=CARTESIAN_POINT('Origin',(0.,8.99999976158142,2.98617632765519));
#1561=CARTESIAN_POINT('',(-17.5,8.99999976158142,-1.26043104496453));
#1562=CARTESIAN_POINT('',(3.01453701005532,8.99999976158142,10.7070910930634));
#1563=CARTESIAN_POINT('',(-14.4999992847443,8.99999976158142,-1.01080027010678));
#1564=CARTESIAN_POINT('Origin',(-14.4999992847443,0.0160393387567803,-5.00777686786875));
#1565=CARTESIAN_POINT('Origin',(6.02907402011064,0.,10.7070910930634));
#1566=CARTESIAN_POINT('Origin',(-17.5,0.0169971563088391,-5.50703841758425));
#1567=CARTESIAN_POINT('Origin',(6.00000003973643,0.,10.7070910930634));
#1568=CARTESIAN_POINT('Origin',(-2.31296463463574E-17,6.00000003973643,
10.7070910930634));
#1569=UNCERTAINTY_MEASURE_WITH_UNIT(LENGTH_MEASURE(0.01),#1573,
'DISTANCE_ACCURACY_VALUE',
'Maximum model space distance between geometric entities at asserted c
onnectivities');
#1570=UNCERTAINTY_MEASURE_WITH_UNIT(LENGTH_MEASURE(0.01),#1573,
'DISTANCE_ACCURACY_VALUE',
'Maximum model space distance between geometric entities at asserted c
onnectivities');
#1571=(
GEOMETRIC_REPRESENTATION_CONTEXT(3)
GLOBAL_UNCERTAINTY_ASSIGNED_CONTEXT((#1569))
GLOBAL_UNIT_ASSIGNED_CONTEXT((#1573,#1575,#1576))
REPRESENTATION_CONTEXT('','3D')
);
#1572=(
GEOMETRIC_REPRESENTATION_CONTEXT(3)
GLOBAL_UNCERTAINTY_ASSIGNED_CONTEXT((#1570))
GLOBAL_UNIT_ASSIGNED_CONTEXT((#1573,#1575,#1576))
REPRESENTATION_CONTEXT('','3D')
);
#1573=(
LENGTH_UNIT()
NAMED_UNIT(*)
SI_UNIT(.MILLI.,.METRE.)
);
#1574=(
LENGTH_UNIT()
NAMED_UNIT(*)
SI_UNIT($,.METRE.)
);
#1575=(
NAMED_UNIT(*)
PLANE_ANGLE_UNIT()
SI_UNIT($,.RADIAN.)
);
#1576=(
NAMED_UNIT(*)
SI_UNIT($,.STERADIAN.)
SOLID_ANGLE_UNIT()
);
#1577=SHAPE_DEFINITION_REPRESENTATION(#1578,#1579);
#1578=PRODUCT_DEFINITION_SHAPE('',$,#1581);
#1579=SHAPE_REPRESENTATION('',(#824),#1571);
#1580=PRODUCT_DEFINITION_CONTEXT('part definition',#1585,'design');
#1581=PRODUCT_DEFINITION('2026-09-06-23-56-11-532','neck_pitch',#1582,#1580);
#1582=PRODUCT_DEFINITION_FORMATION('',$,#1587);
#1583=PRODUCT_RELATED_PRODUCT_CATEGORY('neck_pitch','neck_pitch',(#1587));
#1584=APPLICATION_PROTOCOL_DEFINITION('international standard',
'automotive_design',2009,#1585);
#1585=APPLICATION_CONTEXT(
'Core Data for Automotive Mechanical Design Process');
#1586=PRODUCT_CONTEXT('part definition',#1585,'mechanical');
#1587=PRODUCT('2026-09-06-23-56-11-532','neck_pitch',$,(#1586));
#1588=PRESENTATION_STYLE_ASSIGNMENT((#1589));
#1589=SURFACE_STYLE_USAGE(.BOTH.,#1590);
#1590=SURFACE_SIDE_STYLE('',(#1591));
#1591=SURFACE_STYLE_FILL_AREA(#1592);
#1592=FILL_AREA_STYLE('Steel - Satin',(#1593));
#1593=FILL_AREA_STYLE_COLOUR('Steel - Satin',#1594);
#1594=COLOUR_RGB('Steel - Satin',0.627450980392157,0.627450980392157,0.627450980392157);
ENDSEC;
END-ISO-10303-21;
