ISO-10303-21;
HEADER;
/* Generated by software containing ST-Developer
 * from STEP Tools, Inc. (www.steptools.com) 
 */

FILE_DESCRIPTION(
/* description */ (''),
/* implementation_level */ '2;1');

FILE_NAME(
/* name */ 'sole_right.step',
/* time_stamp */ '2026-09-08T17:05:21-06:00',
/* author */ (''),
/* organization */ (''),
/* preprocessor_version */ 'ST-DEVELOPER v20.2',
/* originating_system */ 'Autodesk Translation Framework v15.15.0.0',
/* authorisation */ '');

FILE_SCHEMA (('AUTOMOTIVE_DESIGN { 1 0 10303 214 3 1 1 }'));
ENDSEC;

DATA;
#10=MECHANICAL_DESIGN_GEOMETRIC_PRESENTATION_REPRESENTATION('',(#13),#921);
#11=SHAPE_REPRESENTATION_RELATIONSHIP('SRR','None',#927,#12);
#12=ADVANCED_BREP_SHAPE_REPRESENTATION('',(#14),#920);
#13=STYLED_ITEM('',(#936),#14);
#14=MANIFOLD_SOLID_BREP('sole_right',#525);
#15=FACE_BOUND('',#109,.T.);
#16=ELLIPSE('',#582,6.03850665222669,6.);
#17=ELLIPSE('',#585,6.04674335081588,6.);
#18=ELLIPSE('',#588,6.04674335081588,6.);
#19=ELLIPSE('',#591,6.03850665222669,6.);
#20=PLANE('',#549);
#21=PLANE('',#552);
#22=PLANE('',#553);
#23=PLANE('',#554);
#24=PLANE('',#555);
#25=PLANE('',#580);
#26=PLANE('',#583);
#27=PLANE('',#586);
#28=PLANE('',#589);
#29=PLANE('',#592);
#30=PLANE('',#593);
#31=SPHERICAL_SURFACE('',#533,4.5);
#32=SPHERICAL_SURFACE('',#538,4.5);
#33=SPHERICAL_SURFACE('',#543,4.5);
#34=SPHERICAL_SURFACE('',#545,4.5);
#35=SPHERICAL_SURFACE('',#556,6.);
#36=SPHERICAL_SURFACE('',#562,6.);
#37=SPHERICAL_SURFACE('',#567,6.);
#38=SPHERICAL_SURFACE('',#572,6.);
#39=FACE_OUTER_BOUND('',#74,.T.);
#40=FACE_OUTER_BOUND('',#75,.T.);
#41=FACE_OUTER_BOUND('',#76,.T.);
#42=FACE_OUTER_BOUND('',#77,.T.);
#43=FACE_OUTER_BOUND('',#78,.T.);
#44=FACE_OUTER_BOUND('',#79,.T.);
#45=FACE_OUTER_BOUND('',#80,.T.);
#46=FACE_OUTER_BOUND('',#81,.T.);
#47=FACE_OUTER_BOUND('',#82,.T.);
#48=FACE_OUTER_BOUND('',#83,.T.);
#49=FACE_OUTER_BOUND('',#84,.T.);
#50=FACE_OUTER_BOUND('',#85,.T.);
#51=FACE_OUTER_BOUND('',#86,.T.);
#52=FACE_OUTER_BOUND('',#87,.T.);
#53=FACE_OUTER_BOUND('',#88,.T.);
#54=FACE_OUTER_BOUND('',#89,.T.);
#55=FACE_OUTER_BOUND('',#90,.T.);
#56=FACE_OUTER_BOUND('',#91,.T.);
#57=FACE_OUTER_BOUND('',#92,.T.);
#58=FACE_OUTER_BOUND('',#93,.T.);
#59=FACE_OUTER_BOUND('',#94,.T.);
#60=FACE_OUTER_BOUND('',#95,.T.);
#61=FACE_OUTER_BOUND('',#96,.T.);
#62=FACE_OUTER_BOUND('',#97,.T.);
#63=FACE_OUTER_BOUND('',#98,.T.);
#64=FACE_OUTER_BOUND('',#99,.T.);
#65=FACE_OUTER_BOUND('',#100,.T.);
#66=FACE_OUTER_BOUND('',#101,.T.);
#67=FACE_OUTER_BOUND('',#102,.T.);
#68=FACE_OUTER_BOUND('',#103,.T.);
#69=FACE_OUTER_BOUND('',#104,.T.);
#70=FACE_OUTER_BOUND('',#105,.T.);
#71=FACE_OUTER_BOUND('',#106,.T.);
#72=FACE_OUTER_BOUND('',#107,.T.);
#73=FACE_OUTER_BOUND('',#108,.T.);
#74=EDGE_LOOP('',(#330,#331,#332,#333));
#75=EDGE_LOOP('',(#334,#335,#336,#337));
#76=EDGE_LOOP('',(#338,#339,#340));
#77=EDGE_LOOP('',(#341,#342,#343,#344));
#78=EDGE_LOOP('',(#345,#346,#347));
#79=EDGE_LOOP('',(#348,#349,#350,#351));
#80=EDGE_LOOP('',(#352,#353,#354));
#81=EDGE_LOOP('',(#355,#356,#357));
#82=EDGE_LOOP('',(#358,#359,#360,#361));
#83=EDGE_LOOP('',(#362,#363,#364,#365));
#84=EDGE_LOOP('',(#366,#367,#368,#369));
#85=EDGE_LOOP('',(#370,#371,#372,#373));
#86=EDGE_LOOP('',(#374,#375,#376,#377));
#87=EDGE_LOOP('',(#378,#379,#380,#381));
#88=EDGE_LOOP('',(#382,#383,#384,#385));
#89=EDGE_LOOP('',(#386,#387,#388));
#90=EDGE_LOOP('',(#389,#390,#391,#392));
#91=EDGE_LOOP('',(#393,#394,#395));
#92=EDGE_LOOP('',(#396,#397,#398,#399));
#93=EDGE_LOOP('',(#400,#401,#402));
#94=EDGE_LOOP('',(#403,#404,#405,#406));
#95=EDGE_LOOP('',(#407,#408,#409));
#96=EDGE_LOOP('',(#410,#411,#412,#413));
#97=EDGE_LOOP('',(#414,#415,#416,#417));
#98=EDGE_LOOP('',(#418,#419,#420,#421));
#99=EDGE_LOOP('',(#422,#423,#424,#425));
#100=EDGE_LOOP('',(#426,#427,#428,#429));
#101=EDGE_LOOP('',(#430,#431,#432,#433));
#102=EDGE_LOOP('',(#434,#435,#436,#437));
#103=EDGE_LOOP('',(#438,#439,#440,#441));
#104=EDGE_LOOP('',(#442,#443,#444,#445));
#105=EDGE_LOOP('',(#446,#447,#448,#449));
#106=EDGE_LOOP('',(#450,#451,#452,#453));
#107=EDGE_LOOP('',(#454,#455,#456,#457));
#108=EDGE_LOOP('',(#458,#459,#460,#461,#462,#463,#464,#465));
#109=EDGE_LOOP('',(#466,#467,#468,#469,#470,#471,#472,#473));
#110=LINE('',#776,#150);
#111=LINE('',#779,#151);
#112=LINE('',#785,#152);
#113=LINE('',#787,#153);
#114=LINE('',#794,#154);
#115=LINE('',#797,#155);
#116=LINE('',#803,#156);
#117=LINE('',#806,#157);
#118=LINE('',#813,#158);
#119=LINE('',#816,#159);
#120=LINE('',#819,#160);
#121=LINE('',#820,#161);
#122=LINE('',#823,#162);
#123=LINE('',#827,#163);
#124=LINE('',#828,#164);
#125=LINE('',#832,#165);
#126=LINE('',#833,#166);
#127=LINE('',#837,#167);
#128=LINE('',#839,#168);
#129=LINE('',#841,#169);
#130=LINE('',#842,#170);
#131=LINE('',#851,#171);
#132=LINE('',#859,#172);
#133=LINE('',#867,#173);
#134=LINE('',#874,#174);
#135=LINE('',#877,#175);
#136=LINE('',#882,#176);
#137=LINE('',#884,#177);
#138=LINE('',#887,#178);
#139=LINE('',#890,#179);
#140=LINE('',#893,#180);
#141=LINE('',#894,#181);
#142=LINE('',#898,#182);
#143=LINE('',#901,#183);
#144=LINE('',#902,#184);
#145=LINE('',#906,#185);
#146=LINE('',#909,#186);
#147=LINE('',#910,#187);
#148=LINE('',#914,#188);
#149=LINE('',#916,#189);
#150=VECTOR('',#600,10.);
#151=VECTOR('',#603,10.);
#152=VECTOR('',#608,10.);
#153=VECTOR('',#611,10.);
#154=VECTOR('',#620,10.);
#155=VECTOR('',#623,10.);
#156=VECTOR('',#632,10.);
#157=VECTOR('',#635,10.);
#158=VECTOR('',#646,10.);
#159=VECTOR('',#649,10.);
#160=VECTOR('',#652,10.);
#161=VECTOR('',#653,10.);
#162=VECTOR('',#656,10.);
#163=VECTOR('',#661,10.);
#164=VECTOR('',#662,10.);
#165=VECTOR('',#667,10.);
#166=VECTOR('',#668,10.);
#167=VECTOR('',#671,10.);
#168=VECTOR('',#672,10.);
#169=VECTOR('',#673,10.);
#170=VECTOR('',#674,10.);
#171=VECTOR('',#685,10.);
#172=VECTOR('',#696,10.);
#173=VECTOR('',#707,10.);
#174=VECTOR('',#718,10.);
#175=VECTOR('',#721,10.);
#176=VECTOR('',#728,10.);
#177=VECTOR('',#731,10.);
#178=VECTOR('',#734,10.);
#179=VECTOR('',#737,10.);
#180=VECTOR('',#740,10.);
#181=VECTOR('',#741,10.);
#182=VECTOR('',#746,10.);
#183=VECTOR('',#749,10.);
#184=VECTOR('',#750,10.);
#185=VECTOR('',#755,10.);
#186=VECTOR('',#758,10.);
#187=VECTOR('',#759,10.);
#188=VECTOR('',#764,10.);
#189=VECTOR('',#767,10.);
#190=CIRCLE('',#528,4.5);
#191=CIRCLE('',#529,4.5);
#192=CIRCLE('',#531,4.5);
#193=CIRCLE('',#532,4.49999999999999);
#194=CIRCLE('',#534,4.5);
#195=CIRCLE('',#536,4.5);
#196=CIRCLE('',#537,4.5);
#197=CIRCLE('',#539,4.5);
#198=CIRCLE('',#541,4.5);
#199=CIRCLE('',#542,4.5);
#200=CIRCLE('',#544,4.5);
#201=CIRCLE('',#546,4.5);
#202=CIRCLE('',#548,4.5);
#203=CIRCLE('',#551,4.5);
#204=CIRCLE('',#557,6.);
#205=CIRCLE('',#558,6.);
#206=CIRCLE('',#559,6.);
#207=CIRCLE('',#561,6.);
#208=CIRCLE('',#563,6.);
#209=CIRCLE('',#564,6.);
#210=CIRCLE('',#566,6.00000000000001);
#211=CIRCLE('',#568,6.);
#212=CIRCLE('',#569,6.);
#213=CIRCLE('',#571,6.);
#214=CIRCLE('',#573,6.);
#215=CIRCLE('',#574,6.);
#216=CIRCLE('',#577,4.5);
#217=CIRCLE('',#579,4.5);
#218=VERTEX_POINT('',#772);
#219=VERTEX_POINT('',#773);
#220=VERTEX_POINT('',#775);
#221=VERTEX_POINT('',#777);
#222=VERTEX_POINT('',#781);
#223=VERTEX_POINT('',#782);
#224=VERTEX_POINT('',#784);
#225=VERTEX_POINT('',#791);
#226=VERTEX_POINT('',#793);
#227=VERTEX_POINT('',#795);
#228=VERTEX_POINT('',#801);
#229=VERTEX_POINT('',#804);
#230=VERTEX_POINT('',#812);
#231=VERTEX_POINT('',#814);
#232=VERTEX_POINT('',#818);
#233=VERTEX_POINT('',#822);
#234=VERTEX_POINT('',#826);
#235=VERTEX_POINT('',#831);
#236=VERTEX_POINT('',#835);
#237=VERTEX_POINT('',#836);
#238=VERTEX_POINT('',#838);
#239=VERTEX_POINT('',#840);
#240=VERTEX_POINT('',#844);
#241=VERTEX_POINT('',#846);
#242=VERTEX_POINT('',#850);
#243=VERTEX_POINT('',#854);
#244=VERTEX_POINT('',#858);
#245=VERTEX_POINT('',#862);
#246=VERTEX_POINT('',#866);
#247=VERTEX_POINT('',#870);
#248=VERTEX_POINT('',#876);
#249=VERTEX_POINT('',#880);
#250=VERTEX_POINT('',#886);
#251=VERTEX_POINT('',#888);
#252=VERTEX_POINT('',#892);
#253=VERTEX_POINT('',#896);
#254=VERTEX_POINT('',#900);
#255=VERTEX_POINT('',#904);
#256=VERTEX_POINT('',#908);
#257=VERTEX_POINT('',#912);
#258=EDGE_CURVE('',#218,#219,#190,.T.);
#259=EDGE_CURVE('',#219,#220,#110,.T.);
#260=EDGE_CURVE('',#220,#221,#191,.T.);
#261=EDGE_CURVE('',#221,#218,#111,.T.);
#262=EDGE_CURVE('',#222,#223,#192,.T.);
#263=EDGE_CURVE('',#223,#224,#112,.T.);
#264=EDGE_CURVE('',#224,#220,#193,.T.);
#265=EDGE_CURVE('',#220,#222,#113,.T.);
#266=EDGE_CURVE('',#224,#221,#194,.T.);
#267=EDGE_CURVE('',#225,#222,#195,.T.);
#268=EDGE_CURVE('',#222,#226,#114,.T.);
#269=EDGE_CURVE('',#226,#227,#196,.T.);
#270=EDGE_CURVE('',#227,#225,#115,.T.);
#271=EDGE_CURVE('',#225,#223,#197,.T.);
#272=EDGE_CURVE('',#228,#226,#198,.T.);
#273=EDGE_CURVE('',#226,#219,#116,.T.);
#274=EDGE_CURVE('',#219,#229,#199,.T.);
#275=EDGE_CURVE('',#229,#228,#117,.T.);
#276=EDGE_CURVE('',#228,#227,#200,.T.);
#277=EDGE_CURVE('',#218,#229,#201,.T.);
#278=EDGE_CURVE('',#225,#230,#118,.T.);
#279=EDGE_CURVE('',#231,#230,#202,.T.);
#280=EDGE_CURVE('',#231,#223,#119,.T.);
#281=EDGE_CURVE('',#232,#227,#120,.T.);
#282=EDGE_CURVE('',#230,#232,#121,.T.);
#283=EDGE_CURVE('',#228,#233,#122,.T.);
#284=EDGE_CURVE('',#232,#233,#203,.T.);
#285=EDGE_CURVE('',#234,#229,#123,.T.);
#286=EDGE_CURVE('',#233,#234,#124,.T.);
#287=EDGE_CURVE('',#235,#231,#125,.T.);
#288=EDGE_CURVE('',#224,#235,#126,.T.);
#289=EDGE_CURVE('',#236,#237,#127,.T.);
#290=EDGE_CURVE('',#238,#236,#128,.T.);
#291=EDGE_CURVE('',#239,#238,#129,.T.);
#292=EDGE_CURVE('',#237,#239,#130,.T.);
#293=EDGE_CURVE('',#240,#236,#204,.T.);
#294=EDGE_CURVE('',#240,#241,#205,.T.);
#295=EDGE_CURVE('',#236,#241,#206,.T.);
#296=EDGE_CURVE('',#241,#242,#131,.T.);
#297=EDGE_CURVE('',#242,#238,#207,.T.);
#298=EDGE_CURVE('',#242,#243,#208,.T.);
#299=EDGE_CURVE('',#238,#243,#209,.T.);
#300=EDGE_CURVE('',#243,#244,#132,.T.);
#301=EDGE_CURVE('',#244,#239,#210,.T.);
#302=EDGE_CURVE('',#244,#245,#211,.T.);
#303=EDGE_CURVE('',#239,#245,#212,.T.);
#304=EDGE_CURVE('',#245,#246,#133,.T.);
#305=EDGE_CURVE('',#246,#237,#213,.T.);
#306=EDGE_CURVE('',#246,#247,#214,.T.);
#307=EDGE_CURVE('',#237,#247,#215,.T.);
#308=EDGE_CURVE('',#247,#240,#134,.T.);
#309=EDGE_CURVE('',#218,#248,#135,.T.);
#310=EDGE_CURVE('',#234,#248,#216,.T.);
#311=EDGE_CURVE('',#249,#235,#217,.T.);
#312=EDGE_CURVE('',#249,#221,#136,.T.);
#313=EDGE_CURVE('',#248,#249,#137,.T.);
#314=EDGE_CURVE('',#240,#250,#138,.T.);
#315=EDGE_CURVE('',#250,#251,#16,.T.);
#316=EDGE_CURVE('',#251,#241,#139,.T.);
#317=EDGE_CURVE('',#252,#251,#140,.T.);
#318=EDGE_CURVE('',#242,#252,#141,.T.);
#319=EDGE_CURVE('',#252,#253,#17,.T.);
#320=EDGE_CURVE('',#253,#243,#142,.T.);
#321=EDGE_CURVE('',#254,#253,#143,.F.);
#322=EDGE_CURVE('',#244,#254,#144,.T.);
#323=EDGE_CURVE('',#254,#255,#18,.T.);
#324=EDGE_CURVE('',#255,#245,#145,.T.);
#325=EDGE_CURVE('',#255,#256,#146,.T.);
#326=EDGE_CURVE('',#246,#256,#147,.T.);
#327=EDGE_CURVE('',#256,#257,#19,.T.);
#328=EDGE_CURVE('',#257,#247,#148,.T.);
#329=EDGE_CURVE('',#250,#257,#149,.T.);
#330=ORIENTED_EDGE('',*,*,#258,.T.);
#331=ORIENTED_EDGE('',*,*,#259,.T.);
#332=ORIENTED_EDGE('',*,*,#260,.T.);
#333=ORIENTED_EDGE('',*,*,#261,.T.);
#334=ORIENTED_EDGE('',*,*,#262,.T.);
#335=ORIENTED_EDGE('',*,*,#263,.T.);
#336=ORIENTED_EDGE('',*,*,#264,.T.);
#337=ORIENTED_EDGE('',*,*,#265,.T.);
#338=ORIENTED_EDGE('',*,*,#264,.F.);
#339=ORIENTED_EDGE('',*,*,#266,.T.);
#340=ORIENTED_EDGE('',*,*,#260,.F.);
#341=ORIENTED_EDGE('',*,*,#267,.T.);
#342=ORIENTED_EDGE('',*,*,#268,.T.);
#343=ORIENTED_EDGE('',*,*,#269,.T.);
#344=ORIENTED_EDGE('',*,*,#270,.T.);
#345=ORIENTED_EDGE('',*,*,#267,.F.);
#346=ORIENTED_EDGE('',*,*,#271,.T.);
#347=ORIENTED_EDGE('',*,*,#262,.F.);
#348=ORIENTED_EDGE('',*,*,#272,.T.);
#349=ORIENTED_EDGE('',*,*,#273,.T.);
#350=ORIENTED_EDGE('',*,*,#274,.T.);
#351=ORIENTED_EDGE('',*,*,#275,.T.);
#352=ORIENTED_EDGE('',*,*,#272,.F.);
#353=ORIENTED_EDGE('',*,*,#276,.T.);
#354=ORIENTED_EDGE('',*,*,#269,.F.);
#355=ORIENTED_EDGE('',*,*,#258,.F.);
#356=ORIENTED_EDGE('',*,*,#277,.T.);
#357=ORIENTED_EDGE('',*,*,#274,.F.);
#358=ORIENTED_EDGE('',*,*,#271,.F.);
#359=ORIENTED_EDGE('',*,*,#278,.T.);
#360=ORIENTED_EDGE('',*,*,#279,.F.);
#361=ORIENTED_EDGE('',*,*,#280,.T.);
#362=ORIENTED_EDGE('',*,*,#270,.F.);
#363=ORIENTED_EDGE('',*,*,#281,.F.);
#364=ORIENTED_EDGE('',*,*,#282,.F.);
#365=ORIENTED_EDGE('',*,*,#278,.F.);
#366=ORIENTED_EDGE('',*,*,#276,.F.);
#367=ORIENTED_EDGE('',*,*,#283,.T.);
#368=ORIENTED_EDGE('',*,*,#284,.F.);
#369=ORIENTED_EDGE('',*,*,#281,.T.);
#370=ORIENTED_EDGE('',*,*,#275,.F.);
#371=ORIENTED_EDGE('',*,*,#285,.F.);
#372=ORIENTED_EDGE('',*,*,#286,.F.);
#373=ORIENTED_EDGE('',*,*,#283,.F.);
#374=ORIENTED_EDGE('',*,*,#259,.F.);
#375=ORIENTED_EDGE('',*,*,#273,.F.);
#376=ORIENTED_EDGE('',*,*,#268,.F.);
#377=ORIENTED_EDGE('',*,*,#265,.F.);
#378=ORIENTED_EDGE('',*,*,#263,.F.);
#379=ORIENTED_EDGE('',*,*,#280,.F.);
#380=ORIENTED_EDGE('',*,*,#287,.F.);
#381=ORIENTED_EDGE('',*,*,#288,.F.);
#382=ORIENTED_EDGE('',*,*,#289,.F.);
#383=ORIENTED_EDGE('',*,*,#290,.F.);
#384=ORIENTED_EDGE('',*,*,#291,.F.);
#385=ORIENTED_EDGE('',*,*,#292,.F.);
#386=ORIENTED_EDGE('',*,*,#293,.F.);
#387=ORIENTED_EDGE('',*,*,#294,.T.);
#388=ORIENTED_EDGE('',*,*,#295,.F.);
#389=ORIENTED_EDGE('',*,*,#295,.T.);
#390=ORIENTED_EDGE('',*,*,#296,.T.);
#391=ORIENTED_EDGE('',*,*,#297,.T.);
#392=ORIENTED_EDGE('',*,*,#290,.T.);
#393=ORIENTED_EDGE('',*,*,#297,.F.);
#394=ORIENTED_EDGE('',*,*,#298,.T.);
#395=ORIENTED_EDGE('',*,*,#299,.F.);
#396=ORIENTED_EDGE('',*,*,#299,.T.);
#397=ORIENTED_EDGE('',*,*,#300,.T.);
#398=ORIENTED_EDGE('',*,*,#301,.T.);
#399=ORIENTED_EDGE('',*,*,#291,.T.);
#400=ORIENTED_EDGE('',*,*,#301,.F.);
#401=ORIENTED_EDGE('',*,*,#302,.T.);
#402=ORIENTED_EDGE('',*,*,#303,.F.);
#403=ORIENTED_EDGE('',*,*,#303,.T.);
#404=ORIENTED_EDGE('',*,*,#304,.T.);
#405=ORIENTED_EDGE('',*,*,#305,.T.);
#406=ORIENTED_EDGE('',*,*,#292,.T.);
#407=ORIENTED_EDGE('',*,*,#305,.F.);
#408=ORIENTED_EDGE('',*,*,#306,.T.);
#409=ORIENTED_EDGE('',*,*,#307,.F.);
#410=ORIENTED_EDGE('',*,*,#308,.T.);
#411=ORIENTED_EDGE('',*,*,#293,.T.);
#412=ORIENTED_EDGE('',*,*,#289,.T.);
#413=ORIENTED_EDGE('',*,*,#307,.T.);
#414=ORIENTED_EDGE('',*,*,#277,.F.);
#415=ORIENTED_EDGE('',*,*,#309,.T.);
#416=ORIENTED_EDGE('',*,*,#310,.F.);
#417=ORIENTED_EDGE('',*,*,#285,.T.);
#418=ORIENTED_EDGE('',*,*,#266,.F.);
#419=ORIENTED_EDGE('',*,*,#288,.T.);
#420=ORIENTED_EDGE('',*,*,#311,.F.);
#421=ORIENTED_EDGE('',*,*,#312,.T.);
#422=ORIENTED_EDGE('',*,*,#261,.F.);
#423=ORIENTED_EDGE('',*,*,#312,.F.);
#424=ORIENTED_EDGE('',*,*,#313,.F.);
#425=ORIENTED_EDGE('',*,*,#309,.F.);
#426=ORIENTED_EDGE('',*,*,#294,.F.);
#427=ORIENTED_EDGE('',*,*,#314,.T.);
#428=ORIENTED_EDGE('',*,*,#315,.T.);
#429=ORIENTED_EDGE('',*,*,#316,.T.);
#430=ORIENTED_EDGE('',*,*,#296,.F.);
#431=ORIENTED_EDGE('',*,*,#316,.F.);
#432=ORIENTED_EDGE('',*,*,#317,.F.);
#433=ORIENTED_EDGE('',*,*,#318,.F.);
#434=ORIENTED_EDGE('',*,*,#298,.F.);
#435=ORIENTED_EDGE('',*,*,#318,.T.);
#436=ORIENTED_EDGE('',*,*,#319,.T.);
#437=ORIENTED_EDGE('',*,*,#320,.T.);
#438=ORIENTED_EDGE('',*,*,#321,.F.);
#439=ORIENTED_EDGE('',*,*,#322,.F.);
#440=ORIENTED_EDGE('',*,*,#300,.F.);
#441=ORIENTED_EDGE('',*,*,#320,.F.);
#442=ORIENTED_EDGE('',*,*,#302,.F.);
#443=ORIENTED_EDGE('',*,*,#322,.T.);
#444=ORIENTED_EDGE('',*,*,#323,.T.);
#445=ORIENTED_EDGE('',*,*,#324,.T.);
#446=ORIENTED_EDGE('',*,*,#304,.F.);
#447=ORIENTED_EDGE('',*,*,#324,.F.);
#448=ORIENTED_EDGE('',*,*,#325,.T.);
#449=ORIENTED_EDGE('',*,*,#326,.F.);
#450=ORIENTED_EDGE('',*,*,#306,.F.);
#451=ORIENTED_EDGE('',*,*,#326,.T.);
#452=ORIENTED_EDGE('',*,*,#327,.T.);
#453=ORIENTED_EDGE('',*,*,#328,.T.);
#454=ORIENTED_EDGE('',*,*,#329,.F.);
#455=ORIENTED_EDGE('',*,*,#314,.F.);
#456=ORIENTED_EDGE('',*,*,#308,.F.);
#457=ORIENTED_EDGE('',*,*,#328,.F.);
#458=ORIENTED_EDGE('',*,*,#329,.T.);
#459=ORIENTED_EDGE('',*,*,#327,.F.);
#460=ORIENTED_EDGE('',*,*,#325,.F.);
#461=ORIENTED_EDGE('',*,*,#323,.F.);
#462=ORIENTED_EDGE('',*,*,#321,.T.);
#463=ORIENTED_EDGE('',*,*,#319,.F.);
#464=ORIENTED_EDGE('',*,*,#317,.T.);
#465=ORIENTED_EDGE('',*,*,#315,.F.);
#466=ORIENTED_EDGE('',*,*,#313,.T.);
#467=ORIENTED_EDGE('',*,*,#311,.T.);
#468=ORIENTED_EDGE('',*,*,#287,.T.);
#469=ORIENTED_EDGE('',*,*,#279,.T.);
#470=ORIENTED_EDGE('',*,*,#282,.T.);
#471=ORIENTED_EDGE('',*,*,#284,.T.);
#472=ORIENTED_EDGE('',*,*,#286,.T.);
#473=ORIENTED_EDGE('',*,*,#310,.T.);
#474=CYLINDRICAL_SURFACE('',#527,4.5);
#475=CYLINDRICAL_SURFACE('',#530,4.5);
#476=CYLINDRICAL_SURFACE('',#535,4.5);
#477=CYLINDRICAL_SURFACE('',#540,4.5);
#478=CYLINDRICAL_SURFACE('',#547,4.5);
#479=CYLINDRICAL_SURFACE('',#550,4.5);
#480=CYLINDRICAL_SURFACE('',#560,6.);
#481=CYLINDRICAL_SURFACE('',#565,6.);
#482=CYLINDRICAL_SURFACE('',#570,6.);
#483=CYLINDRICAL_SURFACE('',#575,6.);
#484=CYLINDRICAL_SURFACE('',#576,4.5);
#485=CYLINDRICAL_SURFACE('',#578,4.5);
#486=CYLINDRICAL_SURFACE('',#581,6.);
#487=CYLINDRICAL_SURFACE('',#584,6.);
#488=CYLINDRICAL_SURFACE('',#587,6.);
#489=CYLINDRICAL_SURFACE('',#590,6.);
#490=ADVANCED_FACE('',(#39),#474,.F.);
#491=ADVANCED_FACE('',(#40),#475,.F.);
#492=ADVANCED_FACE('',(#41),#31,.F.);
#493=ADVANCED_FACE('',(#42),#476,.F.);
#494=ADVANCED_FACE('',(#43),#32,.F.);
#495=ADVANCED_FACE('',(#44),#477,.F.);
#496=ADVANCED_FACE('',(#45),#33,.F.);
#497=ADVANCED_FACE('',(#46),#34,.F.);
#498=ADVANCED_FACE('',(#47),#478,.F.);
#499=ADVANCED_FACE('',(#48),#20,.T.);
#500=ADVANCED_FACE('',(#49),#479,.F.);
#501=ADVANCED_FACE('',(#50),#21,.T.);
#502=ADVANCED_FACE('',(#51),#22,.T.);
#503=ADVANCED_FACE('',(#52),#23,.T.);
#504=ADVANCED_FACE('',(#53),#24,.F.);
#505=ADVANCED_FACE('',(#54),#35,.T.);
#506=ADVANCED_FACE('',(#55),#480,.T.);
#507=ADVANCED_FACE('',(#56),#36,.T.);
#508=ADVANCED_FACE('',(#57),#481,.T.);
#509=ADVANCED_FACE('',(#58),#37,.T.);
#510=ADVANCED_FACE('',(#59),#482,.T.);
#511=ADVANCED_FACE('',(#60),#38,.T.);
#512=ADVANCED_FACE('',(#61),#483,.T.);
#513=ADVANCED_FACE('',(#62),#484,.F.);
#514=ADVANCED_FACE('',(#63),#485,.F.);
#515=ADVANCED_FACE('',(#64),#25,.T.);
#516=ADVANCED_FACE('',(#65),#486,.T.);
#517=ADVANCED_FACE('',(#66),#26,.T.);
#518=ADVANCED_FACE('',(#67),#487,.T.);
#519=ADVANCED_FACE('',(#68),#27,.F.);
#520=ADVANCED_FACE('',(#69),#488,.T.);
#521=ADVANCED_FACE('',(#70),#28,.F.);
#522=ADVANCED_FACE('',(#71),#489,.T.);
#523=ADVANCED_FACE('',(#72),#29,.T.);
#524=ADVANCED_FACE('',(#73,#15),#30,.T.);
#525=CLOSED_SHELL('',(#490,#491,#492,#493,#494,#495,#496,#497,#498,#499,
#500,#501,#502,#503,#504,#505,#506,#507,#508,#509,#510,#511,#512,#513,#514,
#515,#516,#517,#518,#519,#520,#521,#522,#523,#524));
#526=AXIS2_PLACEMENT_3D('',#770,#594,#595);
#527=AXIS2_PLACEMENT_3D('',#771,#596,#597);
#528=AXIS2_PLACEMENT_3D('',#774,#598,#599);
#529=AXIS2_PLACEMENT_3D('',#778,#601,#602);
#530=AXIS2_PLACEMENT_3D('',#780,#604,#605);
#531=AXIS2_PLACEMENT_3D('',#783,#606,#607);
#532=AXIS2_PLACEMENT_3D('',#786,#609,#610);
#533=AXIS2_PLACEMENT_3D('',#788,#612,#613);
#534=AXIS2_PLACEMENT_3D('',#789,#614,#615);
#535=AXIS2_PLACEMENT_3D('',#790,#616,#617);
#536=AXIS2_PLACEMENT_3D('',#792,#618,#619);
#537=AXIS2_PLACEMENT_3D('',#796,#621,#622);
#538=AXIS2_PLACEMENT_3D('',#798,#624,#625);
#539=AXIS2_PLACEMENT_3D('',#799,#626,#627);
#540=AXIS2_PLACEMENT_3D('',#800,#628,#629);
#541=AXIS2_PLACEMENT_3D('',#802,#630,#631);
#542=AXIS2_PLACEMENT_3D('',#805,#633,#634);
#543=AXIS2_PLACEMENT_3D('',#807,#636,#637);
#544=AXIS2_PLACEMENT_3D('',#808,#638,#639);
#545=AXIS2_PLACEMENT_3D('',#809,#640,#641);
#546=AXIS2_PLACEMENT_3D('',#810,#642,#643);
#547=AXIS2_PLACEMENT_3D('',#811,#644,#645);
#548=AXIS2_PLACEMENT_3D('',#815,#647,#648);
#549=AXIS2_PLACEMENT_3D('',#817,#650,#651);
#550=AXIS2_PLACEMENT_3D('',#821,#654,#655);
#551=AXIS2_PLACEMENT_3D('',#824,#657,#658);
#552=AXIS2_PLACEMENT_3D('',#825,#659,#660);
#553=AXIS2_PLACEMENT_3D('',#829,#663,#664);
#554=AXIS2_PLACEMENT_3D('',#830,#665,#666);
#555=AXIS2_PLACEMENT_3D('',#834,#669,#670);
#556=AXIS2_PLACEMENT_3D('',#843,#675,#676);
#557=AXIS2_PLACEMENT_3D('',#845,#677,#678);
#558=AXIS2_PLACEMENT_3D('',#847,#679,#680);
#559=AXIS2_PLACEMENT_3D('',#848,#681,#682);
#560=AXIS2_PLACEMENT_3D('',#849,#683,#684);
#561=AXIS2_PLACEMENT_3D('',#852,#686,#687);
#562=AXIS2_PLACEMENT_3D('',#853,#688,#689);
#563=AXIS2_PLACEMENT_3D('',#855,#690,#691);
#564=AXIS2_PLACEMENT_3D('',#856,#692,#693);
#565=AXIS2_PLACEMENT_3D('',#857,#694,#695);
#566=AXIS2_PLACEMENT_3D('',#860,#697,#698);
#567=AXIS2_PLACEMENT_3D('',#861,#699,#700);
#568=AXIS2_PLACEMENT_3D('',#863,#701,#702);
#569=AXIS2_PLACEMENT_3D('',#864,#703,#704);
#570=AXIS2_PLACEMENT_3D('',#865,#705,#706);
#571=AXIS2_PLACEMENT_3D('',#868,#708,#709);
#572=AXIS2_PLACEMENT_3D('',#869,#710,#711);
#573=AXIS2_PLACEMENT_3D('',#871,#712,#713);
#574=AXIS2_PLACEMENT_3D('',#872,#714,#715);
#575=AXIS2_PLACEMENT_3D('',#873,#716,#717);
#576=AXIS2_PLACEMENT_3D('',#875,#719,#720);
#577=AXIS2_PLACEMENT_3D('',#878,#722,#723);
#578=AXIS2_PLACEMENT_3D('',#879,#724,#725);
#579=AXIS2_PLACEMENT_3D('',#881,#726,#727);
#580=AXIS2_PLACEMENT_3D('',#883,#729,#730);
#581=AXIS2_PLACEMENT_3D('',#885,#732,#733);
#582=AXIS2_PLACEMENT_3D('',#889,#735,#736);
#583=AXIS2_PLACEMENT_3D('',#891,#738,#739);
#584=AXIS2_PLACEMENT_3D('',#895,#742,#743);
#585=AXIS2_PLACEMENT_3D('',#897,#744,#745);
#586=AXIS2_PLACEMENT_3D('',#899,#747,#748);
#587=AXIS2_PLACEMENT_3D('',#903,#751,#752);
#588=AXIS2_PLACEMENT_3D('',#905,#753,#754);
#589=AXIS2_PLACEMENT_3D('',#907,#756,#757);
#590=AXIS2_PLACEMENT_3D('',#911,#760,#761);
#591=AXIS2_PLACEMENT_3D('',#913,#762,#763);
#592=AXIS2_PLACEMENT_3D('',#915,#765,#766);
#593=AXIS2_PLACEMENT_3D('',#917,#768,#769);
#594=DIRECTION('axis',(0.,0.,1.));
#595=DIRECTION('refdir',(1.,0.,0.));
#596=DIRECTION('center_axis',(-5.55111512312578E-17,1.,-6.93889390390723E-18));
#597=DIRECTION('ref_axis',(-0.737277336810104,0.,-0.675590207615682));
#598=DIRECTION('center_axis',(0.,-1.,0.));
#599=DIRECTION('ref_axis',(-1.,0.,-5.85951040774388E-14));
#600=DIRECTION('',(-5.55111512312578E-17,1.,-6.93889390390723E-18));
#601=DIRECTION('center_axis',(0.,1.,0.));
#602=DIRECTION('ref_axis',(-0.0871557427476584,0.,-0.996194698091746));
#603=DIRECTION('',(5.55111512312578E-17,-1.,6.93889390390723E-18));
#604=DIRECTION('center_axis',(-0.996194698091746,-5.46951500895059E-17,
0.0871557427476584));
#605=DIRECTION('ref_axis',(-0.0616284167162184,0.707106781186548,-0.704416026402758));
#606=DIRECTION('center_axis',(0.996194698091746,0.,-0.0871557427476579));
#607=DIRECTION('ref_axis',(-0.0871557427476579,0.,-0.996194698091746));
#608=DIRECTION('',(-0.996194698091746,-5.46951500895059E-17,0.0871557427476584));
#609=DIRECTION('center_axis',(-0.996194698091746,8.60220892868528E-16,0.0871557427476579));
#610=DIRECTION('ref_axis',(8.63506796930679E-16,1.,0.));
#611=DIRECTION('',(0.996194698091746,5.46951500895059E-17,-0.0871557427476584));
#612=DIRECTION('center_axis',(0.,0.,1.));
#613=DIRECTION('ref_axis',(1.,0.,0.));
#614=DIRECTION('center_axis',(-5.8564264548977E-14,6.93889390390398E-18,
1.));
#615=DIRECTION('ref_axis',(-0.707106781186547,0.707106781186548,-4.14483262526725E-14));
#616=DIRECTION('center_axis',(5.55111512312578E-17,-1.,6.93889390390723E-18));
#617=DIRECTION('ref_axis',(0.675590207615661,0.,-0.737277336810123));
#618=DIRECTION('center_axis',(0.,1.,0.));
#619=DIRECTION('ref_axis',(1.,0.,0.));
#620=DIRECTION('',(5.55111512312578E-17,-1.,6.93889390390723E-18));
#621=DIRECTION('center_axis',(0.,-1.,0.));
#622=DIRECTION('ref_axis',(-0.087155742747658,0.,-0.996194698091746));
#623=DIRECTION('',(-5.55111512312578E-17,1.,-6.93889390390723E-18));
#624=DIRECTION('center_axis',(-0.83970462616996,0.384720966881297,-0.383256987451877));
#625=DIRECTION('ref_axis',(0.543043405989584,0.594891627651954,-0.592627885406046));
#626=DIRECTION('center_axis',(-3.85185988877447E-34,6.93889390390723E-18,
1.));
#627=DIRECTION('ref_axis',(0.707106781186547,0.707106781186548,0.));
#628=DIRECTION('center_axis',(-0.996194698091746,-5.46951500895059E-17,
0.0871557427476584));
#629=DIRECTION('ref_axis',(-0.0616284167162199,-0.707106781186548,-0.704416026402759));
#630=DIRECTION('center_axis',(0.996194698091746,0.,-0.0871557427476579));
#631=DIRECTION('ref_axis',(0.,-1.,0.));
#632=DIRECTION('',(-0.996194698091746,-5.46951500895059E-17,0.0871557427476584));
#633=DIRECTION('center_axis',(-0.996194698091746,-1.3625270568297E-15,0.087155742747658));
#634=DIRECTION('ref_axis',(-0.0871557427476579,0.,-0.996194698091746));
#635=DIRECTION('',(0.996194698091746,5.46951500895059E-17,-0.0871557427476584));
#636=DIRECTION('center_axis',(-0.83970462616996,-0.384720966881297,-0.383256987451877));
#637=DIRECTION('ref_axis',(0.543043405989584,-0.594891627651954,-0.592627885406045));
#638=DIRECTION('center_axis',(-3.85185988877447E-34,6.93889390390723E-18,
1.));
#639=DIRECTION('ref_axis',(0.707106781186547,-0.707106781186548,0.));
#640=DIRECTION('center_axis',(0.,0.,1.));
#641=DIRECTION('ref_axis',(1.,0.,0.));
#642=DIRECTION('center_axis',(-5.8564264548977E-14,6.93889390390398E-18,
1.));
#643=DIRECTION('ref_axis',(-0.707106781186547,-0.707106781186549,-4.14483262526725E-14));
#644=DIRECTION('center_axis',(-3.85185988877447E-34,6.93889390390723E-18,
1.));
#645=DIRECTION('ref_axis',(0.707106781186548,0.707106781186547,-4.9065389333868E-18));
#646=DIRECTION('',(-3.85185988877447E-34,6.93889390390723E-18,1.));
#647=DIRECTION('center_axis',(-6.93889390390723E-18,-3.46944695195361E-17,
-1.));
#648=DIRECTION('ref_axis',(0.707106781186548,0.707106781186547,-4.9065389333868E-18));
#649=DIRECTION('',(3.85185988877447E-34,-6.93889390390723E-18,-1.));
#650=DIRECTION('center_axis',(-1.,-5.55111512312578E-17,0.));
#651=DIRECTION('ref_axis',(3.85185988877447E-34,-6.93889390390723E-18,-1.));
#652=DIRECTION('',(3.85185988877447E-34,-6.93889390390723E-18,-1.));
#653=DIRECTION('',(5.55111512312578E-17,-1.,3.46944695195361E-17));
#654=DIRECTION('center_axis',(3.85185988877447E-34,-6.93889390390723E-18,
-1.));
#655=DIRECTION('ref_axis',(0.707106781186547,-0.707106781186548,4.9065389333868E-18));
#656=DIRECTION('',(-3.85185988877447E-34,6.93889390390723E-18,1.));
#657=DIRECTION('center_axis',(-6.93889390390723E-18,-3.46944695195361E-17,
-1.));
#658=DIRECTION('ref_axis',(0.707106781186547,-0.707106781186548,4.9065389333868E-18));
#659=DIRECTION('center_axis',(-5.55111512312578E-17,1.,-6.93889390390723E-18));
#660=DIRECTION('ref_axis',(3.85185988877447E-34,-6.93889390390723E-18,-1.));
#661=DIRECTION('',(5.8564264548977E-14,-6.93889390390398E-18,-1.));
#662=DIRECTION('',(-1.,-5.55111512312578E-17,6.93889390390723E-18));
#663=DIRECTION('center_axis',(0.0871557427476584,1.17506049340314E-17,0.996194698091746));
#664=DIRECTION('ref_axis',(-0.996194698091746,-5.46951500895059E-17,0.0871557427476584));
#665=DIRECTION('center_axis',(5.55111512312578E-17,-1.,6.93889390390723E-18));
#666=DIRECTION('ref_axis',(-3.85185988877447E-34,6.93889390390723E-18,1.));
#667=DIRECTION('',(1.,5.55111512312578E-17,-6.93889390390723E-18));
#668=DIRECTION('',(-5.8564264548977E-14,6.93889390390398E-18,1.));
#669=DIRECTION('center_axis',(0.0871557427476582,8.45179835588473E-10,0.996194698091746));
#670=DIRECTION('ref_axis',(0.996194698091746,-3.69013049610367E-11,-0.0871557427476582));
#671=DIRECTION('',(9.83918764330019E-9,-1.,-1.24090918377854E-11));
#672=DIRECTION('',(-0.996194698091746,-4.19073583047967E-17,0.0871557427476582));
#673=DIRECTION('',(-9.69735067800493E-9,1.,-3.46944695654276E-17));
#674=DIRECTION('',(0.996194698091746,4.19073583047967E-17,-0.0871557427476582));
#675=DIRECTION('center_axis',(0.,0.,1.));
#676=DIRECTION('ref_axis',(-0.707106784691919,0.707106777681176,0.));
#677=DIRECTION('center_axis',(9.83918763796127E-9,-1.,-1.24087033776569E-11));
#678=DIRECTION('ref_axis',(-0.993623149820909,-9.77784371987885E-9,0.112752100379439));
#679=DIRECTION('center_axis',(-0.112752100379439,-3.95586646882086E-17,
-0.993623149820909));
#680=DIRECTION('ref_axis',(-0.702597670617246,0.707106777729559,0.0797277751611099));
#681=DIRECTION('center_axis',(0.996194698091746,1.61270520544595E-17,-0.087155742747658));
#682=DIRECTION('ref_axis',(-0.087155742747658,-8.45180222105076E-10,-0.996194698091746));
#683=DIRECTION('center_axis',(0.996194698091746,4.19073583047967E-17,-0.0871557427476582));
#684=DIRECTION('ref_axis',(-0.0616284167422632,0.70710678088773,-0.704416026700439));
#685=DIRECTION('',(0.996194698091746,4.19073583047967E-17,-0.0871557427476582));
#686=DIRECTION('center_axis',(-0.996194698091746,-7.37332193887309E-16,
0.0871557427476584));
#687=DIRECTION('ref_axis',(-7.40148683083438E-16,1.,0.));
#688=DIRECTION('center_axis',(-0.82610011745422,0.424705561158319,-0.370383291015295));
#689=DIRECTION('ref_axis',(0.563523376571126,0.622599396126497,-0.542965372745627));
#690=DIRECTION('center_axis',(0.124100409389559,-2.88289924207182E-17,-0.992269665156274));
#691=DIRECTION('ref_axis',(0.701640605621977,0.707106784588576,0.0877522406051913));
#692=DIRECTION('center_axis',(9.69735105374251E-9,-1.,3.89814722131705E-16));
#693=DIRECTION('ref_axis',(-0.0871557427476584,-8.45180222105076E-10,-0.996194698091745));
#694=DIRECTION('center_axis',(9.69735067800493E-9,-1.,3.4694469578252E-17));
#695=DIRECTION('ref_axis',(0.720120187952063,6.98325799298551E-9,-0.69384934597064));
#696=DIRECTION('',(9.69735067800493E-9,-1.,3.46944695326891E-17));
#697=DIRECTION('center_axis',(-9.69735095931118E-9,1.,-2.65884271501371E-17));
#698=DIRECTION('ref_axis',(0.992269665156274,9.62238719259822E-9,0.124100409389559));
#699=DIRECTION('center_axis',(-0.826100114838477,-0.424705560827557,-0.370383297228702));
#700=DIRECTION('ref_axis',(0.563523380405689,-0.622599389433679,-0.5429653764403));
#701=DIRECTION('center_axis',(0.124100409389559,-2.88289924207182E-17,-0.992269665156274));
#702=DIRECTION('ref_axis',(0.701640612373435,-0.70710677778452,0.0877522414495777));
#703=DIRECTION('center_axis',(-0.996194698091746,-1.61270520544594E-17,
0.0871557427476577));
#704=DIRECTION('ref_axis',(-0.0871557427476577,-8.45179852030734E-10,-0.996194698091746));
#705=DIRECTION('center_axis',(-0.996194698091746,-4.19073583047967E-17,
0.0871557427476582));
#706=DIRECTION('ref_axis',(-0.061628416690176,-0.707106781485364,-0.704416026105079));
#707=DIRECTION('',(-0.996194698091746,-4.19073583047967E-17,0.0871557427476582));
#708=DIRECTION('center_axis',(0.996194698091746,-1.68205996417367E-16,-0.0871557427476581));
#709=DIRECTION('ref_axis',(-1.85037170770859E-16,-1.,-1.85037170770859E-16));
#710=DIRECTION('center_axis',(0.,0.,1.));
#711=DIRECTION('ref_axis',(1.,0.,0.));
#712=DIRECTION('center_axis',(-0.112752100379439,-3.95586646882086E-17,
-0.993623149820909));
#713=DIRECTION('ref_axis',(-0.702597663747357,-0.707106784643537,0.0797277743815443));
#714=DIRECTION('center_axis',(-9.83918741182674E-9,1.,1.24090550814142E-11));
#715=DIRECTION('ref_axis',(-0.0871557427476581,-8.45179852030734E-10,-0.996194698091746));
#716=DIRECTION('center_axis',(-9.83918764330019E-9,1.,1.24090918377854E-11));
#717=DIRECTION('ref_axis',(-0.774248993615947,-7.61012736252895E-9,-0.632881107226857));
#718=DIRECTION('',(-9.83918764330019E-9,1.,1.24090918377852E-11));
#719=DIRECTION('center_axis',(-5.8564264548977E-14,6.93889390390398E-18,
1.));
#720=DIRECTION('ref_axis',(-0.707106781186547,-0.707106781186549,-4.11664068221078E-14));
#721=DIRECTION('',(-5.8564264548977E-14,6.93889390390398E-18,1.));
#722=DIRECTION('center_axis',(-6.93889390390723E-18,-3.46944695195361E-17,
-1.));
#723=DIRECTION('ref_axis',(-0.707106781186547,-0.707106781186549,-4.11664068221078E-14));
#724=DIRECTION('center_axis',(5.8564264548977E-14,-6.93889390390398E-18,
-1.));
#725=DIRECTION('ref_axis',(-0.707106781186547,0.707106781186548,-4.11762198999746E-14));
#726=DIRECTION('center_axis',(-6.93889390390723E-18,-3.46944695195361E-17,
-1.));
#727=DIRECTION('ref_axis',(-0.707106781186547,0.707106781186548,-4.11762198999746E-14));
#728=DIRECTION('',(5.8564264548977E-14,-6.93889390390398E-18,-1.));
#729=DIRECTION('center_axis',(1.,5.55111512312582E-17,5.8564264548977E-14));
#730=DIRECTION('ref_axis',(-5.8564264548977E-14,6.93889390390398E-18,1.));
#731=DIRECTION('',(-5.55111512312562E-17,1.,-3.46944695195361E-17));
#732=DIRECTION('center_axis',(0.112752100379439,3.95586646882086E-17,0.993623149820909));
#733=DIRECTION('ref_axis',(-0.702597670617246,0.707106777729559,0.0797277751611103));
#734=DIRECTION('',(0.112752100379439,3.95586646882086E-17,0.993623149820909));
#735=DIRECTION('center_axis',(-6.93889390390723E-18,-3.46944695195361E-17,
-1.));
#736=DIRECTION('ref_axis',(-1.,1.11233615955451E-14,8.12541758422811E-18));
#737=DIRECTION('',(-0.112752100379439,-3.95586646882086E-17,-0.993623149820909));
#738=DIRECTION('center_axis',(-4.5102810375397E-17,1.,-3.46944695195361E-17));
#739=DIRECTION('ref_axis',(6.93889390390723E-18,3.46944695195361E-17,1.));
#740=DIRECTION('',(-1.,-4.5102810375397E-17,6.93889390390723E-18));
#741=DIRECTION('',(-0.124100409389559,2.88289924207182E-17,0.992269665156274));
#742=DIRECTION('center_axis',(-0.124100409389559,2.88289924207182E-17,0.992269665156274));
#743=DIRECTION('ref_axis',(0.701640605621977,0.707106784588576,0.087752240605191));
#744=DIRECTION('center_axis',(-6.93889390390723E-18,-3.46944695195361E-17,
-1.));
#745=DIRECTION('ref_axis',(1.,7.3442708592906E-16,-8.11434937898137E-18));
#746=DIRECTION('',(0.124100409389559,-2.88289924207182E-17,-0.992269665156274));
#747=DIRECTION('center_axis',(-0.992269665156274,-9.62238691447252E-9,-0.124100409389559));
#748=DIRECTION('ref_axis',(-0.124100409389559,2.88289924207182E-17,0.992269665156274));
#749=DIRECTION('',(9.69735067800493E-9,-1.,3.46944694522472E-17));
#750=DIRECTION('',(-0.124100409389559,2.88289924207182E-17,0.992269665156274));
#751=DIRECTION('center_axis',(0.124100409389559,-2.88289924207182E-17,-0.992269665156274));
#752=DIRECTION('ref_axis',(0.701640612373435,-0.70710677778452,0.0877522414495771));
#753=DIRECTION('center_axis',(-6.93889390390723E-18,-3.46944695195361E-17,
-1.));
#754=DIRECTION('ref_axis',(1.,4.86557944428002E-15,-8.11434937898157E-18));
#755=DIRECTION('',(0.124100409389559,-2.88289924207182E-17,-0.992269665156274));
#756=DIRECTION('center_axis',(-4.5102810375397E-17,1.,-3.46944695195361E-17));
#757=DIRECTION('ref_axis',(6.93889390390723E-18,3.46944695195361E-17,1.));
#758=DIRECTION('',(-1.,-4.5102810375397E-17,6.93889390390723E-18));
#759=DIRECTION('',(0.112752100379439,3.95586646882086E-17,0.993623149820909));
#760=DIRECTION('center_axis',(-0.112752100379439,-3.95586646882086E-17,
-0.993623149820909));
#761=DIRECTION('ref_axis',(-0.702597663747357,-0.707106784643537,0.0797277743815446));
#762=DIRECTION('center_axis',(-6.93889390390723E-18,-3.46944695195361E-17,
-1.));
#763=DIRECTION('ref_axis',(-1.,-7.81393169934986E-15,8.12541758422884E-18));
#764=DIRECTION('',(-0.112752100379439,-3.95586646882086E-17,-0.993623149820909));
#765=DIRECTION('center_axis',(-0.993623149820909,-9.77784376898342E-9,0.112752100379439));
#766=DIRECTION('ref_axis',(0.112752100379439,3.95586646882086E-17,0.993623149820909));
#767=DIRECTION('',(9.84059577784359E-9,-1.,3.46944694512533E-17));
#768=DIRECTION('center_axis',(6.93889390390723E-18,3.46944695195361E-17,
1.));
#769=DIRECTION('ref_axis',(1.,4.5102810375397E-17,-6.93889390390723E-18));
#770=CARTESIAN_POINT('',(0.,0.,0.));
#771=CARTESIAN_POINT('Origin',(4.84974993482213,19.4867927785963,-4.05603736965651));
#772=CARTESIAN_POINT('',(0.349749934822129,-0.80000021494925,-4.05603736965677));
#773=CARTESIAN_POINT('',(4.45754909245766,-0.800000214949253,-8.53891351106936));
#774=CARTESIAN_POINT('Origin',(4.84974993482213,-0.80000021494925,-4.05603736965651));
#775=CARTESIAN_POINT('',(4.45754909245767,40.2000003254507,-8.53891351106937));
#776=CARTESIAN_POINT('',(4.45754909245767,19.4867927785963,-8.53891351106937));
#777=CARTESIAN_POINT('',(0.349749934822127,40.2000003254507,-4.05603736965677));
#778=CARTESIAN_POINT('Origin',(4.84974993482213,40.2000003254507,-4.05603736965651));
#779=CARTESIAN_POINT('',(0.349749934822129,19.4867927785963,-4.05603736965677));
#780=CARTESIAN_POINT('Origin',(27.8664276972866,40.2000003254507,-6.06973574590138));
#781=CARTESIAN_POINT('',(32.2580492228136,40.2000003254507,-10.9711421128265));
#782=CARTESIAN_POINT('',(32.6502500651781,44.7000003254507,-6.48826597141364));
#783=CARTESIAN_POINT('Origin',(32.6502500651781,40.2000003254507,-6.48826597141364));
#784=CARTESIAN_POINT('',(4.84974993482213,44.7000003254507,-4.05603736965651));
#785=CARTESIAN_POINT('',(27.8664276972866,44.7000003254507,-6.06973574590138));
#786=CARTESIAN_POINT('Origin',(4.84974993482212,40.2000003254507,-4.05603736965651));
#787=CARTESIAN_POINT('',(27.4742268549221,40.2000003254507,-10.5526118873142));
#788=CARTESIAN_POINT('Origin',(4.84974993482213,40.2000003254507,-4.05603736965651));
#789=CARTESIAN_POINT('Origin',(4.84974993482213,40.2000003254507,-4.05603736965651));
#790=CARTESIAN_POINT('Origin',(32.6502500651781,19.4867927785963,-6.48826597141364));
#791=CARTESIAN_POINT('',(37.1502500651781,40.2000003254507,-6.48826597141364));
#792=CARTESIAN_POINT('Origin',(32.6502500651781,40.2000003254507,-6.48826597141364));
#793=CARTESIAN_POINT('',(32.2580492228136,-0.80000021494925,-10.9711421128265));
#794=CARTESIAN_POINT('',(32.2580492228136,19.4867927785963,-10.9711421128265));
#795=CARTESIAN_POINT('',(37.1502500651781,-0.80000021494925,-6.48826597141364));
#796=CARTESIAN_POINT('Origin',(32.6502500651781,-0.80000021494925,-6.48826597141364));
#797=CARTESIAN_POINT('',(37.1502500651781,19.4867927785963,-6.48826597141364));
#798=CARTESIAN_POINT('Origin',(32.6502500651781,40.2000003254507,-6.48826597141364));
#799=CARTESIAN_POINT('Origin',(32.6502500651781,40.2000003254507,-6.48826597141364));
#800=CARTESIAN_POINT('Origin',(27.8664276972866,-0.800000214949251,-6.06973574590138));
#801=CARTESIAN_POINT('',(32.6502500651781,-5.30000021494925,-6.48826597141364));
#802=CARTESIAN_POINT('Origin',(32.6502500651781,-0.800000214949251,-6.48826597141364));
#803=CARTESIAN_POINT('',(27.4742268549221,-0.800000214949251,-10.5526118873142));
#804=CARTESIAN_POINT('',(4.84974993482213,-5.30000021494925,-4.05603736965651));
#805=CARTESIAN_POINT('Origin',(4.84974993482212,-0.800000214949253,-4.05603736965651));
#806=CARTESIAN_POINT('',(27.8664276972866,-5.30000021494925,-6.06973574590138));
#807=CARTESIAN_POINT('Origin',(32.6502500651781,-0.80000021494925,-6.48826597141364));
#808=CARTESIAN_POINT('Origin',(32.6502500651781,-0.80000021494925,-6.48826597141364));
#809=CARTESIAN_POINT('Origin',(4.84974993482213,-0.80000021494925,-4.05603736965651));
#810=CARTESIAN_POINT('Origin',(4.84974993482213,-0.80000021494925,-4.05603736965651));
#811=CARTESIAN_POINT('Origin',(32.6502500651781,40.2000003254507,-2.98926804476735));
#812=CARTESIAN_POINT('',(37.1502500651781,40.2000003254507,-0.199999999999999));
#813=CARTESIAN_POINT('',(37.1502500651781,40.2000003254507,-2.98926804476735));
#814=CARTESIAN_POINT('',(32.6502500651781,44.7000003254507,-0.199999999999999));
#815=CARTESIAN_POINT('Origin',(32.6502500651781,40.2000003254507,-0.199999999999997));
#816=CARTESIAN_POINT('',(32.6502500651781,44.7000003254507,-2.98926804476735));
#817=CARTESIAN_POINT('Origin',(37.1502500651781,19.4867927785963,-0.2));
#818=CARTESIAN_POINT('',(37.1502500651781,-0.80000021494925,-0.199999999999999));
#819=CARTESIAN_POINT('',(37.1502500651781,-0.80000021494925,-2.98926804476735));
#820=CARTESIAN_POINT('',(37.1502500651781,14.1885390534007,-0.199999999999997));
#821=CARTESIAN_POINT('Origin',(32.6502500651781,-0.80000021494925,-2.98926804476735));
#822=CARTESIAN_POINT('',(32.6502500651781,-5.30000021494925,-0.199999999999999));
#823=CARTESIAN_POINT('',(32.6502500651781,-5.30000021494925,-2.98926804476735));
#824=CARTESIAN_POINT('Origin',(32.6502500651781,-0.80000021494925,-0.199999999999997));
#825=CARTESIAN_POINT('Origin',(18.6265,-5.30000021494925,-5.77853608953469));
#826=CARTESIAN_POINT('',(4.8497499348219,-5.30000021494925,-0.200000000000001));
#827=CARTESIAN_POINT('',(4.8497499348223,-5.30000021494925,-6.98926804476762));
#828=CARTESIAN_POINT('',(18.5688387776117,-5.30000021494925,-0.199999999999996));
#829=CARTESIAN_POINT('Origin',(36.6692500651781,19.4867927785963,-11.3570721790694));
#830=CARTESIAN_POINT('Origin',(18.6265,44.7000003254507,-5.77853608953469));
#831=CARTESIAN_POINT('',(4.8497499348219,44.7000003254507,-0.200000000000001));
#832=CARTESIAN_POINT('',(18.5688387776117,44.7000003254507,-0.199999999999998));
#833=CARTESIAN_POINT('',(4.8497499348223,44.7000003254507,-6.98926804476762));
#834=CARTESIAN_POINT('Origin',(18.8216130123627,13.3990018634624,-12.1533778319952));
#835=CARTESIAN_POINT('',(3.58071373700144,40.7000003203796,-10.819971946623));
#836=CARTESIAN_POINT('',(3.58071415024733,-1.30000022002034,-10.8199719471442));
#837=CARTESIAN_POINT('',(3.58071394865101,19.1891225206216,-10.81997194689));
#838=CARTESIAN_POINT('',(33.0104913928062,40.7000003203796,-13.3947438615945));
#839=CARTESIAN_POINT('',(17.9847971391801,40.7000003203796,-12.0801659527956));
#840=CARTESIAN_POINT('',(33.010491800095,-1.30000022002033,-13.3947438615945));
#841=CARTESIAN_POINT('',(33.0104915957959,19.7675105265365,-13.3947438615945));
#842=CARTESIAN_POINT('',(17.9847971422739,-1.30000022002034,-12.0801659174331));
#843=CARTESIAN_POINT('Origin',(4.10364819348739,40.7000003254507,-4.84280375807254));
#844=CARTESIAN_POINT('',(-1.85809070543806,40.7000002667836,-4.16629115579591));
#845=CARTESIAN_POINT('Origin',(4.10364819348739,40.7000003254507,-4.84280375807255));
#846=CARTESIAN_POINT('',(4.10364819348739,46.7000003254507,-4.84280375807254));
#847=CARTESIAN_POINT('Origin',(4.10364819348739,40.7000003254507,-4.84280375807254));
#848=CARTESIAN_POINT('Origin',(4.10364819348739,40.7000003254507,-4.84280375807254));
#849=CARTESIAN_POINT('Origin',(18.5077315956661,40.7000003254507,-6.1029977642451));
#850=CARTESIAN_POINT('',(33.5334258492922,46.7000003254507,-7.417575673044));
#851=CARTESIAN_POINT('',(18.5077315956661,46.7000003254507,-6.1029977642451));
#852=CARTESIAN_POINT('Origin',(33.5334258492922,40.7000003254507,-7.417575673044));
#853=CARTESIAN_POINT('Origin',(33.5334258492922,40.7000003254507,-7.41757567304401));
#854=CARTESIAN_POINT('',(39.4870438402298,40.700000383185,-6.67297321670665));
#855=CARTESIAN_POINT('Origin',(33.5334258492922,40.7000003254507,-7.41757567304402));
#856=CARTESIAN_POINT('Origin',(33.5334258492922,40.7000003254507,-7.41757567304401));
#857=CARTESIAN_POINT('Origin',(33.5334260522819,19.7675105316076,-7.41757567304401));
#858=CARTESIAN_POINT('',(39.4870442475186,-1.30000015721494,-6.67297321670665));
#859=CARTESIAN_POINT('',(39.4870440432195,19.7675105893419,-6.67297321670665));
#860=CARTESIAN_POINT('Origin',(33.5334262565809,-1.30000021494926,-7.41757567304401));
#861=CARTESIAN_POINT('Origin',(33.5334262565809,-1.30000021494926,-7.41757567304401));
#862=CARTESIAN_POINT('',(33.5334262565809,-7.30000021494926,-7.41757567304401));
#863=CARTESIAN_POINT('Origin',(33.5334262565809,-1.30000021494926,-7.41757567304402));
#864=CARTESIAN_POINT('Origin',(33.5334262565809,-1.30000021494926,-7.417575673044));
#865=CARTESIAN_POINT('Origin',(18.5077315987599,-1.30000021494926,-6.10299772888263));
#866=CARTESIAN_POINT('',(4.10364860673328,-7.30000021494926,-4.84280375859373));
#867=CARTESIAN_POINT('',(18.5077315987599,-7.30000021494926,-6.10299772888263));
#868=CARTESIAN_POINT('Origin',(4.10364860673328,-1.30000021494926,-4.84280375859373));
#869=CARTESIAN_POINT('Origin',(4.10364860673328,-1.30000021494926,-4.84280375859373));
#870=CARTESIAN_POINT('',(-1.85809029219218,-1.30000027361632,-4.16629115631709));
#871=CARTESIAN_POINT('Origin',(4.10364860673328,-1.30000021494926,-4.84280375859372));
#872=CARTESIAN_POINT('Origin',(4.10364860673328,-1.30000021494926,-4.84280375859373));
#873=CARTESIAN_POINT('Origin',(4.10364840513695,19.1891225256927,-4.84280375833948));
#874=CARTESIAN_POINT('',(-1.8580904937885,19.1891224670256,-4.16629115606284));
#875=CARTESIAN_POINT('Origin',(4.8497499348223,-0.80000021494925,-6.98926804476762));
#876=CARTESIAN_POINT('',(0.349749934821901,-0.80000021494925,-0.200000000000001));
#877=CARTESIAN_POINT('',(0.349749934822301,-0.80000021494925,-6.98926804476789));
#878=CARTESIAN_POINT('Origin',(4.8497499348219,-0.80000021494925,-0.200000000000797));
#879=CARTESIAN_POINT('Origin',(4.8497499348223,40.2000003254507,-6.98926804476762));
#880=CARTESIAN_POINT('',(0.349749934821899,40.2000003254507,-0.200000000000001));
#881=CARTESIAN_POINT('Origin',(4.8497499348219,40.2000003254507,-0.200000000000797));
#882=CARTESIAN_POINT('',(0.349749934822299,40.2000003254507,-6.98926804476789));
#883=CARTESIAN_POINT('Origin',(0.349749934822372,19.4867927785963,-8.20000000000001));
#884=CARTESIAN_POINT('',(0.349749934821904,14.1885390534007,-0.199999999999997));
#885=CARTESIAN_POINT('Origin',(5.64349820500584,40.7000003254507,8.72705980586812));
#886=CARTESIAN_POINT('',(-1.40801296860898,40.7000002667836,-0.199999999999998));
#887=CARTESIAN_POINT('',(-0.318240693919614,40.7000002667836,9.40357240814475));
#888=CARTESIAN_POINT('',(4.63049368361771,46.7000003254507,-0.199999999999998));
#889=CARTESIAN_POINT('Origin',(4.63049368361771,40.7000003254507,-0.199999999999998));
#890=CARTESIAN_POINT('',(5.64349820500584,46.7000003254507,8.72705980586812));
#891=CARTESIAN_POINT('Origin',(18.5519078304372,46.7000003254507,4.039999987185));
#892=CARTESIAN_POINT('',(32.6307437183376,46.7000003254507,-0.199999999999998));
#893=CARTESIAN_POINT('',(18.5315426928303,46.7000003254507,-0.199999999999998));
#894=CARTESIAN_POINT('',(31.5397921012023,46.7000003254507,8.52292203677122));
#895=CARTESIAN_POINT('Origin',(31.5397921012023,40.7000003254507,8.52292203677122));
#896=CARTESIAN_POINT('',(38.6774870691534,40.700000383185,-0.199999999999998));
#897=CARTESIAN_POINT('Origin',(32.6307437183376,40.7000003254507,-0.199999999999998));
#898=CARTESIAN_POINT('',(37.4934100921399,40.700000383185,9.26752449310858));
#899=CARTESIAN_POINT('Origin',(37.1414036634579,26.1360190920749,12.0820634860056));
#900=CARTESIAN_POINT('',(38.6774874764422,-1.30000015721494,-0.199999999999996));
#901=CARTESIAN_POINT('',(38.6774872940044,17.5131523153679,-0.199999999999997));
#902=CARTESIAN_POINT('',(37.493410493156,-1.30000015721494,9.26752454326255));
#903=CARTESIAN_POINT('Origin',(31.5397925022184,-1.30000021494926,8.52292208692519));
#904=CARTESIAN_POINT('',(32.6307441256263,-7.30000021494926,-0.199999999999997));
#905=CARTESIAN_POINT('Origin',(32.6307441256263,-1.30000021494926,-0.199999999999997));
#906=CARTESIAN_POINT('',(31.5397925022184,-7.30000021494926,8.52292208692519));
#907=CARTESIAN_POINT('Origin',(18.5519078304372,-7.30000021494926,4.039999987185));
#908=CARTESIAN_POINT('',(4.63049409692274,-7.30000021494926,-0.199999999999996));
#909=CARTESIAN_POINT('',(18.5315426928303,-7.30000021494926,-0.199999999999996));
#910=CARTESIAN_POINT('',(5.64349861305651,-7.30000021494926,8.72705975956428));
#911=CARTESIAN_POINT('Origin',(5.64349861305651,-1.30000021494926,8.72705975956428));
#912=CARTESIAN_POINT('',(-1.40801255530395,-1.30000027361632,-0.199999999999996));
#913=CARTESIAN_POINT('Origin',(4.63049409692274,-1.30000021494926,-0.199999999999997));
#914=CARTESIAN_POINT('',(-0.318240285868947,-1.30000027361632,9.40357236184091));
#915=CARTESIAN_POINT('Origin',(0.0427602086485605,24.9792432926543,12.5848763392978));
#916=CARTESIAN_POINT('',(-1.4080127347449,16.9347642052832,-0.199999999999997));
#917=CARTESIAN_POINT('Origin',(18.5111775552235,8.8902853282052,-0.199999999999997));
#918=UNCERTAINTY_MEASURE_WITH_UNIT(LENGTH_MEASURE(0.01),#922,
'DISTANCE_ACCURACY_VALUE',
'Maximum model space distance between geometric entities at asserted c
onnectivities');
#919=UNCERTAINTY_MEASURE_WITH_UNIT(LENGTH_MEASURE(0.01),#922,
'DISTANCE_ACCURACY_VALUE',
'Maximum model space distance between geometric entities at asserted c
onnectivities');
#920=(
GEOMETRIC_REPRESENTATION_CONTEXT(3)
GLOBAL_UNCERTAINTY_ASSIGNED_CONTEXT((#918))
GLOBAL_UNIT_ASSIGNED_CONTEXT((#922,#923,#924))
REPRESENTATION_CONTEXT('','3D')
);
#921=(
GEOMETRIC_REPRESENTATION_CONTEXT(3)
GLOBAL_UNCERTAINTY_ASSIGNED_CONTEXT((#919))
GLOBAL_UNIT_ASSIGNED_CONTEXT((#922,#923,#924))
REPRESENTATION_CONTEXT('','3D')
);
#922=(
LENGTH_UNIT()
NAMED_UNIT(*)
SI_UNIT(.MILLI.,.METRE.)
);
#923=(
NAMED_UNIT(*)
PLANE_ANGLE_UNIT()
SI_UNIT($,.RADIAN.)
);
#924=(
NAMED_UNIT(*)
SI_UNIT($,.STERADIAN.)
SOLID_ANGLE_UNIT()
);
#925=SHAPE_DEFINITION_REPRESENTATION(#926,#927);
#926=PRODUCT_DEFINITION_SHAPE('',$,#929);
#927=SHAPE_REPRESENTATION('',(#526),#920);
#928=PRODUCT_DEFINITION_CONTEXT('part definition',#933,'design');
#929=PRODUCT_DEFINITION('2026-09-07-23-43-28-162','sole_left',#930,#928);
#930=PRODUCT_DEFINITION_FORMATION('',$,#935);
#931=PRODUCT_RELATED_PRODUCT_CATEGORY('sole_left','sole_left',(#935));
#932=APPLICATION_PROTOCOL_DEFINITION('international standard',
'automotive_design',2009,#933);
#933=APPLICATION_CONTEXT(
'Core Data for Automotive Mechanical Design Process');
#934=PRODUCT_CONTEXT('part definition',#933,'mechanical');
#935=PRODUCT('2026-09-07-23-43-28-162','sole_left',$,(#934));
#936=PRESENTATION_STYLE_ASSIGNMENT((#937));
#937=SURFACE_STYLE_USAGE(.BOTH.,#938);
#938=SURFACE_SIDE_STYLE('',(#939));
#939=SURFACE_STYLE_FILL_AREA(#940);
#940=FILL_AREA_STYLE('Steel - Satin',(#941));
#941=FILL_AREA_STYLE_COLOUR('Steel - Satin',#942);
#942=COLOUR_RGB('Steel - Satin',0.627450980392157,0.627450980392157,0.627450980392157);
ENDSEC;
END-ISO-10303-21;
