ISO-10303-21;
HEADER;
/* Generated by software containing ST-Developer
 * from STEP Tools, Inc. (www.steptools.com) 
 */

FILE_DESCRIPTION(
/* description */ (''),
/* implementation_level */ '2;1');

FILE_NAME(
/* name */ 'trunk_base.step',
/* time_stamp */ '2026-09-08T16:16:43-06:00',
/* author */ (''),
/* organization */ (''),
/* preprocessor_version */ 'ST-DEVELOPER v20.2',
/* originating_system */ 'Autodesk Translation Framework v15.15.0.0',
/* authorisation */ '');

FILE_SCHEMA (('AUTOMOTIVE_DESIGN { 1 0 10303 214 3 1 1 }'));
ENDSEC;

DATA;
#10=MECHANICAL_DESIGN_GEOMETRIC_PRESENTATION_REPRESENTATION('',(#13),#919);
#11=SHAPE_REPRESENTATION_RELATIONSHIP('SRR','None',#926,#12);
#12=ADVANCED_BREP_SHAPE_REPRESENTATION('',(#14),#918);
#13=STYLED_ITEM('',(#935),#14);
#14=MANIFOLD_SOLID_BREP('MeshBody1',#505);
#15=FACE_BOUND('',#104,.T.);
#16=FACE_BOUND('',#105,.T.);
#17=FACE_BOUND('',#106,.T.);
#18=FACE_BOUND('',#107,.T.);
#19=FACE_BOUND('',#108,.T.);
#20=FACE_BOUND('',#109,.T.);
#21=FACE_BOUND('',#110,.T.);
#22=FACE_BOUND('',#111,.T.);
#23=FACE_BOUND('',#112,.T.);
#24=FACE_BOUND('',#113,.T.);
#25=FACE_BOUND('',#114,.T.);
#26=FACE_BOUND('',#116,.T.);
#27=FACE_BOUND('',#117,.T.);
#28=FACE_BOUND('',#118,.T.);
#29=FACE_BOUND('',#119,.T.);
#30=FACE_BOUND('',#120,.T.);
#31=FACE_BOUND('',#121,.T.);
#32=FACE_BOUND('',#122,.T.);
#33=PLANE('',#567);
#34=PLANE('',#568);
#35=PLANE('',#569);
#36=PLANE('',#572);
#37=PLANE('',#576);
#38=PLANE('',#578);
#39=PLANE('',#579);
#40=PLANE('',#581);
#41=PLANE('',#582);
#42=B_SPLINE_CURVE_WITH_KNOTS('',3,(#763,#764,#765,#766),.UNSPECIFIED.,
 .F.,.F.,(4,4),(-1.01625874002164,-1.01534776947078),.UNSPECIFIED.);
#43=B_SPLINE_CURVE_WITH_KNOTS('',3,(#772,#773,#774,#775),.UNSPECIFIED.,
 .F.,.F.,(4,4),(0.0148076375818722,0.0157912912937776),.UNSPECIFIED.);
#44=B_SPLINE_CURVE_WITH_KNOTS('',3,(#797,#798,#799,#800),.UNSPECIFIED.,
 .F.,.F.,(4,4),(0.0195277764146985,0.0200060894975229),.UNSPECIFIED.);
#45=B_SPLINE_CURVE_WITH_KNOTS('',3,(#802,#803,#804,#805),.UNSPECIFIED.,
 .F.,.F.,(4,4),(0.0190291449066801,0.0195277764146985),.UNSPECIFIED.);
#46=(
BOUNDED_CURVE()
B_SPLINE_CURVE(2,(#758,#759,#760),.UNSPECIFIED.,.F.,.F.)
B_SPLINE_CURVE_WITH_KNOTS((3,3),(-0.00295458052435353,-0.00201399948871865),
 .UNSPECIFIED.)
CURVE()
GEOMETRIC_REPRESENTATION_ITEM()
RATIONAL_B_SPLINE_CURVE((0.999800337250764,0.999801352233231,0.999821955732))
REPRESENTATION_ITEM('')
);
#47=(
BOUNDED_CURVE()
B_SPLINE_CURVE(2,(#778,#779,#780),.UNSPECIFIED.,.F.,.F.)
B_SPLINE_CURVE_WITH_KNOTS((3,3),(-0.00411384272458373,-0.00320720694912823),
 .UNSPECIFIED.)
CURVE()
GEOMETRIC_REPRESENTATION_ITEM()
RATIONAL_B_SPLINE_CURVE((0.99977806647776,0.999749379440086,0.999744116245891))
REPRESENTATION_ITEM('')
);
#48=(
BOUNDED_CURVE()
B_SPLINE_CURVE(2,(#877,#878,#879,#880,#881,#882,#883,#884,#885,#886,#887),
 .UNSPECIFIED.,.F.,.F.)
B_SPLINE_CURVE_WITH_KNOTS((3,1,1,1,1,1,1,1,1,3),(7.70754870446834E-5,0.000511701541144084,
0.00132056884056734,0.00369261489135868,0.0105605915171249,0.0250957825083126,
0.0387190984648928,0.0456559431634195,0.0483615348188756,0.0487338335548597),
 .UNSPECIFIED.)
CURVE()
GEOMETRIC_REPRESENTATION_ITEM()
RATIONAL_B_SPLINE_CURVE((1.15473238668888,1.59031484459197,2.81451014116177,
5.84115927259224,13.7394808131984,26.0417323701625,25.5400955726518,13.7542147465416,
5.49976248770644,2.52540654621474,2.15998024505057))
REPRESENTATION_ITEM('')
);
#49=(
BOUNDED_CURVE()
B_SPLINE_CURVE(2,(#893,#894,#895,#896,#897,#898,#899,#900,#901,#902,#903),
 .UNSPECIFIED.,.F.,.F.)
B_SPLINE_CURVE_WITH_KNOTS((3,1,1,1,1,1,1,1,1,3),(-0.0487103763160284,-0.0483197776911835,
-0.0454877457459864,-0.0382815400311539,-0.0243935034981207,-0.0101038841944654,
-0.00353283814907105,-0.00127034871684341,-0.000496444339429119,-8.10280716877835E-5),
 .UNSPECIFIED.)
CURVE()
GEOMETRIC_REPRESENTATION_ITEM()
RATIONAL_B_SPLINE_CURVE((2.15740817221796,2.52143932921417,5.47609332637985,
13.5778803436478,24.7118983502705,24.4189737746511,12.6498692588159,5.41668972868486,
2.66416079206037,1.55035670455371,1.15462969761349))
REPRESENTATION_ITEM('')
);
#50=CONICAL_SURFACE('',#522,0.900000187503378,0.0523600104388118);
#51=CONICAL_SURFACE('',#540,0.899999998787581,0.0523598244928035);
#52=CONICAL_SURFACE('',#543,0.899999998770621,0.0523598244805605);
#53=CONICAL_SURFACE('',#546,0.900000187503237,0.0523600104388119);
#54=CONICAL_SURFACE('',#575,21.3534897462574,1.56903201446442);
#55=CONICAL_SURFACE('',#577,87222.5021014842,1.00583392780319E-5);
#56=CONICAL_SURFACE('',#580,14107.4210655334,0.000129143525549901);
#57=FACE_OUTER_BOUND('',#85,.T.);
#58=FACE_OUTER_BOUND('',#86,.T.);
#59=FACE_OUTER_BOUND('',#87,.T.);
#60=FACE_OUTER_BOUND('',#88,.T.);
#61=FACE_OUTER_BOUND('',#89,.T.);
#62=FACE_OUTER_BOUND('',#90,.T.);
#63=FACE_OUTER_BOUND('',#91,.T.);
#64=FACE_OUTER_BOUND('',#92,.T.);
#65=FACE_OUTER_BOUND('',#93,.T.);
#66=FACE_OUTER_BOUND('',#94,.T.);
#67=FACE_OUTER_BOUND('',#95,.T.);
#68=FACE_OUTER_BOUND('',#96,.T.);
#69=FACE_OUTER_BOUND('',#97,.T.);
#70=FACE_OUTER_BOUND('',#98,.T.);
#71=FACE_OUTER_BOUND('',#99,.T.);
#72=FACE_OUTER_BOUND('',#100,.T.);
#73=FACE_OUTER_BOUND('',#101,.T.);
#74=FACE_OUTER_BOUND('',#102,.T.);
#75=FACE_OUTER_BOUND('',#103,.T.);
#76=FACE_OUTER_BOUND('',#115,.T.);
#77=FACE_OUTER_BOUND('',#123,.T.);
#78=FACE_OUTER_BOUND('',#124,.T.);
#79=FACE_OUTER_BOUND('',#125,.T.);
#80=FACE_OUTER_BOUND('',#126,.T.);
#81=FACE_OUTER_BOUND('',#127,.T.);
#82=FACE_OUTER_BOUND('',#128,.T.);
#83=FACE_OUTER_BOUND('',#129,.T.);
#84=FACE_OUTER_BOUND('',#130,.T.);
#85=EDGE_LOOP('',(#329,#330,#331,#332));
#86=EDGE_LOOP('',(#333,#334,#335,#336));
#87=EDGE_LOOP('',(#337,#338,#339,#340));
#88=EDGE_LOOP('',(#341,#342,#343,#344));
#89=EDGE_LOOP('',(#345,#346,#347,#348));
#90=EDGE_LOOP('',(#349,#350,#351,#352,#353));
#91=EDGE_LOOP('',(#354,#355,#356,#357));
#92=EDGE_LOOP('',(#358,#359,#360,#361));
#93=EDGE_LOOP('',(#362,#363,#364,#365));
#94=EDGE_LOOP('',(#366,#367,#368,#369));
#95=EDGE_LOOP('',(#370,#371,#372,#373));
#96=EDGE_LOOP('',(#374,#375,#376,#377));
#97=EDGE_LOOP('',(#378,#379,#380,#381));
#98=EDGE_LOOP('',(#382,#383,#384,#385));
#99=EDGE_LOOP('',(#386,#387,#388,#389));
#100=EDGE_LOOP('',(#390,#391,#392,#393));
#101=EDGE_LOOP('',(#394,#395,#396,#397));
#102=EDGE_LOOP('',(#398,#399,#400,#401));
#103=EDGE_LOOP('',(#402,#403,#404,#405,#406,#407,#408,#409));
#104=EDGE_LOOP('',(#410));
#105=EDGE_LOOP('',(#411));
#106=EDGE_LOOP('',(#412));
#107=EDGE_LOOP('',(#413));
#108=EDGE_LOOP('',(#414));
#109=EDGE_LOOP('',(#415,#416,#417,#418));
#110=EDGE_LOOP('',(#419));
#111=EDGE_LOOP('',(#420));
#112=EDGE_LOOP('',(#421));
#113=EDGE_LOOP('',(#422));
#114=EDGE_LOOP('',(#423));
#115=EDGE_LOOP('',(#424,#425,#426,#427,#428,#429,#430,#431));
#116=EDGE_LOOP('',(#432));
#117=EDGE_LOOP('',(#433));
#118=EDGE_LOOP('',(#434));
#119=EDGE_LOOP('',(#435,#436,#437,#438));
#120=EDGE_LOOP('',(#439));
#121=EDGE_LOOP('',(#440));
#122=EDGE_LOOP('',(#441));
#123=EDGE_LOOP('',(#442,#443,#444,#445,#446,#447,#448));
#124=EDGE_LOOP('',(#449));
#125=EDGE_LOOP('',(#450,#451,#452,#453));
#126=EDGE_LOOP('',(#454));
#127=EDGE_LOOP('',(#455));
#128=EDGE_LOOP('',(#456,#457,#458,#459));
#129=EDGE_LOOP('',(#460,#461,#462,#463));
#130=EDGE_LOOP('',(#464));
#131=CIRCLE('',#520,1.99999850389562);
#132=CIRCLE('',#521,1.99999850389562);
#133=CIRCLE('',#523,0.79518430063983);
#134=CIRCLE('',#524,0.900000142874455);
#135=CIRCLE('',#526,1.99999971404825);
#136=CIRCLE('',#527,1.99999971404825);
#137=CIRCLE('',#529,1.99999971404815);
#138=CIRCLE('',#530,1.99999971404815);
#139=CIRCLE('',#532,3.4338946025194);
#140=CIRCLE('',#533,3.4338946025194);
#141=CIRCLE('',#535,1.99999759846504);
#142=CIRCLE('',#536,1.99999759846504);
#143=CIRCLE('',#538,3.43389437735671);
#144=CIRCLE('',#539,3.43389437735671);
#145=CIRCLE('',#541,0.795184494231698);
#146=CIRCLE('',#542,0.899999963552816);
#147=CIRCLE('',#544,0.795184494243973);
#148=CIRCLE('',#545,0.899999963540534);
#149=CIRCLE('',#547,0.795184300639832);
#150=CIRCLE('',#548,0.900000142874457);
#151=CIRCLE('',#550,1.14999994915429);
#152=CIRCLE('',#551,1.14999994915429);
#153=CIRCLE('',#553,1.14999996740107);
#154=CIRCLE('',#554,1.14999996740107);
#155=CIRCLE('',#556,9.50000010637488);
#156=CIRCLE('',#557,9.50000010637488);
#157=CIRCLE('',#559,9.50000010456792);
#158=CIRCLE('',#560,9.50000010456792);
#159=CIRCLE('',#562,1.14999996740107);
#160=CIRCLE('',#563,1.14999996740107);
#161=CIRCLE('',#565,1.14999994915429);
#162=CIRCLE('',#566,1.14999994915429);
#163=CIRCLE('',#570,87222.5021115426);
#164=CIRCLE('',#571,14107.421183169);
#165=CIRCLE('',#573,87222.5021014842);
#166=CIRCLE('',#574,14107.4210540254);
#167=LINE('',#741,#191);
#168=LINE('',#745,#192);
#169=LINE('',#751,#193);
#170=LINE('',#784,#194);
#171=LINE('',#788,#195);
#172=LINE('',#793,#196);
#173=LINE('',#812,#197);
#174=LINE('',#815,#198);
#175=LINE('',#820,#199);
#176=LINE('',#826,#200);
#177=LINE('',#832,#201);
#178=LINE('',#838,#202);
#179=LINE('',#844,#203);
#180=LINE('',#850,#204);
#181=LINE('',#856,#205);
#182=LINE('',#862,#206);
#183=LINE('',#868,#207);
#184=LINE('',#871,#208);
#185=LINE('',#872,#209);
#186=LINE('',#874,#210);
#187=LINE('',#875,#211);
#188=LINE('',#890,#212);
#189=LINE('',#905,#213);
#190=LINE('',#908,#214);
#191=VECTOR('',#587,1000.);
#192=VECTOR('',#590,1000.);
#193=VECTOR('',#597,1000.);
#194=VECTOR('',#614,1000.);
#195=VECTOR('',#617,1000.);
#196=VECTOR('',#622,1000.);
#197=VECTOR('',#631,1000.);
#198=VECTOR('',#634,1000.);
#199=VECTOR('',#639,1000.);
#200=VECTOR('',#646,1000.);
#201=VECTOR('',#653,1000.);
#202=VECTOR('',#660,1000.);
#203=VECTOR('',#667,1000.);
#204=VECTOR('',#674,1000.);
#205=VECTOR('',#681,1000.);
#206=VECTOR('',#688,1000.);
#207=VECTOR('',#695,1000.);
#208=VECTOR('',#700,1000.);
#209=VECTOR('',#701,1000.);
#210=VECTOR('',#704,1000.);
#211=VECTOR('',#705,1000.);
#212=VECTOR('',#712,1000.);
#213=VECTOR('',#719,1000.);
#214=VECTOR('',#722,1000.);
#215=VERTEX_POINT('',#739);
#216=VERTEX_POINT('',#740);
#217=VERTEX_POINT('',#742);
#218=VERTEX_POINT('',#744);
#219=VERTEX_POINT('',#748);
#220=VERTEX_POINT('',#750);
#221=VERTEX_POINT('',#754);
#222=VERTEX_POINT('',#755);
#223=VERTEX_POINT('',#757);
#224=VERTEX_POINT('',#761);
#225=VERTEX_POINT('',#768);
#226=VERTEX_POINT('',#769);
#227=VERTEX_POINT('',#771);
#228=VERTEX_POINT('',#776);
#229=VERTEX_POINT('',#782);
#230=VERTEX_POINT('',#783);
#231=VERTEX_POINT('',#785);
#232=VERTEX_POINT('',#787);
#233=VERTEX_POINT('',#791);
#234=VERTEX_POINT('',#792);
#235=VERTEX_POINT('',#794);
#236=VERTEX_POINT('',#796);
#237=VERTEX_POINT('',#801);
#238=VERTEX_POINT('',#808);
#239=VERTEX_POINT('',#809);
#240=VERTEX_POINT('',#811);
#241=VERTEX_POINT('',#813);
#242=VERTEX_POINT('',#817);
#243=VERTEX_POINT('',#819);
#244=VERTEX_POINT('',#823);
#245=VERTEX_POINT('',#825);
#246=VERTEX_POINT('',#829);
#247=VERTEX_POINT('',#831);
#248=VERTEX_POINT('',#835);
#249=VERTEX_POINT('',#837);
#250=VERTEX_POINT('',#841);
#251=VERTEX_POINT('',#843);
#252=VERTEX_POINT('',#847);
#253=VERTEX_POINT('',#849);
#254=VERTEX_POINT('',#853);
#255=VERTEX_POINT('',#855);
#256=VERTEX_POINT('',#859);
#257=VERTEX_POINT('',#861);
#258=VERTEX_POINT('',#865);
#259=VERTEX_POINT('',#867);
#260=VERTEX_POINT('',#907);
#261=EDGE_CURVE('',#215,#216,#167,.T.);
#262=EDGE_CURVE('',#217,#215,#131,.T.);
#263=EDGE_CURVE('',#218,#217,#168,.T.);
#264=EDGE_CURVE('',#216,#218,#132,.T.);
#265=EDGE_CURVE('',#219,#219,#133,.T.);
#266=EDGE_CURVE('',#219,#220,#169,.T.);
#267=EDGE_CURVE('',#220,#220,#134,.T.);
#268=EDGE_CURVE('',#221,#222,#135,.T.);
#269=EDGE_CURVE('',#223,#221,#46,.T.);
#270=EDGE_CURVE('',#224,#223,#136,.T.);
#271=EDGE_CURVE('',#222,#224,#42,.T.);
#272=EDGE_CURVE('',#225,#226,#137,.T.);
#273=EDGE_CURVE('',#227,#225,#43,.T.);
#274=EDGE_CURVE('',#228,#227,#138,.T.);
#275=EDGE_CURVE('',#226,#228,#47,.T.);
#276=EDGE_CURVE('',#229,#230,#170,.T.);
#277=EDGE_CURVE('',#231,#229,#139,.T.);
#278=EDGE_CURVE('',#232,#231,#171,.T.);
#279=EDGE_CURVE('',#230,#232,#140,.T.);
#280=EDGE_CURVE('',#233,#234,#172,.T.);
#281=EDGE_CURVE('',#235,#233,#141,.T.);
#282=EDGE_CURVE('',#236,#235,#44,.T.);
#283=EDGE_CURVE('',#237,#236,#45,.T.);
#284=EDGE_CURVE('',#234,#237,#142,.T.);
#285=EDGE_CURVE('',#238,#239,#143,.T.);
#286=EDGE_CURVE('',#240,#238,#173,.T.);
#287=EDGE_CURVE('',#241,#240,#144,.T.);
#288=EDGE_CURVE('',#239,#241,#174,.T.);
#289=EDGE_CURVE('',#242,#242,#145,.T.);
#290=EDGE_CURVE('',#242,#243,#175,.T.);
#291=EDGE_CURVE('',#243,#243,#146,.T.);
#292=EDGE_CURVE('',#244,#244,#147,.T.);
#293=EDGE_CURVE('',#244,#245,#176,.T.);
#294=EDGE_CURVE('',#245,#245,#148,.T.);
#295=EDGE_CURVE('',#246,#246,#149,.T.);
#296=EDGE_CURVE('',#246,#247,#177,.T.);
#297=EDGE_CURVE('',#247,#247,#150,.T.);
#298=EDGE_CURVE('',#248,#248,#151,.T.);
#299=EDGE_CURVE('',#248,#249,#178,.T.);
#300=EDGE_CURVE('',#249,#249,#152,.T.);
#301=EDGE_CURVE('',#250,#250,#153,.T.);
#302=EDGE_CURVE('',#250,#251,#179,.T.);
#303=EDGE_CURVE('',#251,#251,#154,.T.);
#304=EDGE_CURVE('',#252,#252,#155,.T.);
#305=EDGE_CURVE('',#252,#253,#180,.T.);
#306=EDGE_CURVE('',#253,#253,#156,.T.);
#307=EDGE_CURVE('',#254,#254,#157,.T.);
#308=EDGE_CURVE('',#254,#255,#181,.T.);
#309=EDGE_CURVE('',#255,#255,#158,.T.);
#310=EDGE_CURVE('',#256,#256,#159,.T.);
#311=EDGE_CURVE('',#256,#257,#182,.T.);
#312=EDGE_CURVE('',#257,#257,#160,.T.);
#313=EDGE_CURVE('',#258,#258,#161,.T.);
#314=EDGE_CURVE('',#258,#259,#183,.T.);
#315=EDGE_CURVE('',#259,#259,#162,.T.);
#316=EDGE_CURVE('',#226,#221,#184,.T.);
#317=EDGE_CURVE('',#223,#228,#185,.T.);
#318=EDGE_CURVE('',#240,#231,#186,.T.);
#319=EDGE_CURVE('',#232,#238,#187,.T.);
#320=EDGE_CURVE('',#235,#227,#48,.T.);
#321=EDGE_CURVE('',#217,#233,#163,.T.);
#322=EDGE_CURVE('',#224,#215,#164,.T.);
#323=EDGE_CURVE('',#241,#229,#188,.T.);
#324=EDGE_CURVE('',#234,#218,#165,.T.);
#325=EDGE_CURVE('',#225,#237,#49,.T.);
#326=EDGE_CURVE('',#216,#222,#166,.T.);
#327=EDGE_CURVE('',#230,#239,#189,.T.);
#328=EDGE_CURVE('',#260,#236,#190,.T.);
#329=ORIENTED_EDGE('',*,*,#261,.F.);
#330=ORIENTED_EDGE('',*,*,#262,.F.);
#331=ORIENTED_EDGE('',*,*,#263,.F.);
#332=ORIENTED_EDGE('',*,*,#264,.F.);
#333=ORIENTED_EDGE('',*,*,#265,.F.);
#334=ORIENTED_EDGE('',*,*,#266,.T.);
#335=ORIENTED_EDGE('',*,*,#267,.F.);
#336=ORIENTED_EDGE('',*,*,#266,.F.);
#337=ORIENTED_EDGE('',*,*,#268,.F.);
#338=ORIENTED_EDGE('',*,*,#269,.F.);
#339=ORIENTED_EDGE('',*,*,#270,.F.);
#340=ORIENTED_EDGE('',*,*,#271,.F.);
#341=ORIENTED_EDGE('',*,*,#272,.F.);
#342=ORIENTED_EDGE('',*,*,#273,.F.);
#343=ORIENTED_EDGE('',*,*,#274,.F.);
#344=ORIENTED_EDGE('',*,*,#275,.F.);
#345=ORIENTED_EDGE('',*,*,#276,.F.);
#346=ORIENTED_EDGE('',*,*,#277,.F.);
#347=ORIENTED_EDGE('',*,*,#278,.F.);
#348=ORIENTED_EDGE('',*,*,#279,.F.);
#349=ORIENTED_EDGE('',*,*,#280,.F.);
#350=ORIENTED_EDGE('',*,*,#281,.F.);
#351=ORIENTED_EDGE('',*,*,#282,.F.);
#352=ORIENTED_EDGE('',*,*,#283,.F.);
#353=ORIENTED_EDGE('',*,*,#284,.F.);
#354=ORIENTED_EDGE('',*,*,#285,.F.);
#355=ORIENTED_EDGE('',*,*,#286,.F.);
#356=ORIENTED_EDGE('',*,*,#287,.F.);
#357=ORIENTED_EDGE('',*,*,#288,.F.);
#358=ORIENTED_EDGE('',*,*,#289,.F.);
#359=ORIENTED_EDGE('',*,*,#290,.T.);
#360=ORIENTED_EDGE('',*,*,#291,.F.);
#361=ORIENTED_EDGE('',*,*,#290,.F.);
#362=ORIENTED_EDGE('',*,*,#292,.F.);
#363=ORIENTED_EDGE('',*,*,#293,.T.);
#364=ORIENTED_EDGE('',*,*,#294,.F.);
#365=ORIENTED_EDGE('',*,*,#293,.F.);
#366=ORIENTED_EDGE('',*,*,#295,.F.);
#367=ORIENTED_EDGE('',*,*,#296,.T.);
#368=ORIENTED_EDGE('',*,*,#297,.F.);
#369=ORIENTED_EDGE('',*,*,#296,.F.);
#370=ORIENTED_EDGE('',*,*,#298,.F.);
#371=ORIENTED_EDGE('',*,*,#299,.T.);
#372=ORIENTED_EDGE('',*,*,#300,.F.);
#373=ORIENTED_EDGE('',*,*,#299,.F.);
#374=ORIENTED_EDGE('',*,*,#301,.F.);
#375=ORIENTED_EDGE('',*,*,#302,.T.);
#376=ORIENTED_EDGE('',*,*,#303,.F.);
#377=ORIENTED_EDGE('',*,*,#302,.F.);
#378=ORIENTED_EDGE('',*,*,#304,.F.);
#379=ORIENTED_EDGE('',*,*,#305,.T.);
#380=ORIENTED_EDGE('',*,*,#306,.F.);
#381=ORIENTED_EDGE('',*,*,#305,.F.);
#382=ORIENTED_EDGE('',*,*,#307,.F.);
#383=ORIENTED_EDGE('',*,*,#308,.T.);
#384=ORIENTED_EDGE('',*,*,#309,.F.);
#385=ORIENTED_EDGE('',*,*,#308,.F.);
#386=ORIENTED_EDGE('',*,*,#310,.F.);
#387=ORIENTED_EDGE('',*,*,#311,.T.);
#388=ORIENTED_EDGE('',*,*,#312,.F.);
#389=ORIENTED_EDGE('',*,*,#311,.F.);
#390=ORIENTED_EDGE('',*,*,#313,.F.);
#391=ORIENTED_EDGE('',*,*,#314,.T.);
#392=ORIENTED_EDGE('',*,*,#315,.F.);
#393=ORIENTED_EDGE('',*,*,#314,.F.);
#394=ORIENTED_EDGE('',*,*,#316,.F.);
#395=ORIENTED_EDGE('',*,*,#275,.T.);
#396=ORIENTED_EDGE('',*,*,#317,.F.);
#397=ORIENTED_EDGE('',*,*,#269,.T.);
#398=ORIENTED_EDGE('',*,*,#278,.T.);
#399=ORIENTED_EDGE('',*,*,#318,.F.);
#400=ORIENTED_EDGE('',*,*,#286,.T.);
#401=ORIENTED_EDGE('',*,*,#319,.F.);
#402=ORIENTED_EDGE('',*,*,#270,.T.);
#403=ORIENTED_EDGE('',*,*,#317,.T.);
#404=ORIENTED_EDGE('',*,*,#274,.T.);
#405=ORIENTED_EDGE('',*,*,#320,.F.);
#406=ORIENTED_EDGE('',*,*,#281,.T.);
#407=ORIENTED_EDGE('',*,*,#321,.F.);
#408=ORIENTED_EDGE('',*,*,#262,.T.);
#409=ORIENTED_EDGE('',*,*,#322,.F.);
#410=ORIENTED_EDGE('',*,*,#304,.T.);
#411=ORIENTED_EDGE('',*,*,#313,.T.);
#412=ORIENTED_EDGE('',*,*,#294,.T.);
#413=ORIENTED_EDGE('',*,*,#310,.T.);
#414=ORIENTED_EDGE('',*,*,#297,.T.);
#415=ORIENTED_EDGE('',*,*,#287,.T.);
#416=ORIENTED_EDGE('',*,*,#318,.T.);
#417=ORIENTED_EDGE('',*,*,#277,.T.);
#418=ORIENTED_EDGE('',*,*,#323,.F.);
#419=ORIENTED_EDGE('',*,*,#309,.T.);
#420=ORIENTED_EDGE('',*,*,#301,.T.);
#421=ORIENTED_EDGE('',*,*,#267,.T.);
#422=ORIENTED_EDGE('',*,*,#298,.T.);
#423=ORIENTED_EDGE('',*,*,#291,.T.);
#424=ORIENTED_EDGE('',*,*,#264,.T.);
#425=ORIENTED_EDGE('',*,*,#324,.F.);
#426=ORIENTED_EDGE('',*,*,#284,.T.);
#427=ORIENTED_EDGE('',*,*,#325,.F.);
#428=ORIENTED_EDGE('',*,*,#272,.T.);
#429=ORIENTED_EDGE('',*,*,#316,.T.);
#430=ORIENTED_EDGE('',*,*,#268,.T.);
#431=ORIENTED_EDGE('',*,*,#326,.F.);
#432=ORIENTED_EDGE('',*,*,#306,.T.);
#433=ORIENTED_EDGE('',*,*,#315,.T.);
#434=ORIENTED_EDGE('',*,*,#312,.T.);
#435=ORIENTED_EDGE('',*,*,#279,.T.);
#436=ORIENTED_EDGE('',*,*,#319,.T.);
#437=ORIENTED_EDGE('',*,*,#285,.T.);
#438=ORIENTED_EDGE('',*,*,#327,.F.);
#439=ORIENTED_EDGE('',*,*,#307,.T.);
#440=ORIENTED_EDGE('',*,*,#303,.T.);
#441=ORIENTED_EDGE('',*,*,#300,.T.);
#442=ORIENTED_EDGE('',*,*,#328,.T.);
#443=ORIENTED_EDGE('',*,*,#282,.T.);
#444=ORIENTED_EDGE('',*,*,#320,.T.);
#445=ORIENTED_EDGE('',*,*,#273,.T.);
#446=ORIENTED_EDGE('',*,*,#325,.T.);
#447=ORIENTED_EDGE('',*,*,#283,.T.);
#448=ORIENTED_EDGE('',*,*,#328,.F.);
#449=ORIENTED_EDGE('',*,*,#295,.T.);
#450=ORIENTED_EDGE('',*,*,#263,.T.);
#451=ORIENTED_EDGE('',*,*,#321,.T.);
#452=ORIENTED_EDGE('',*,*,#280,.T.);
#453=ORIENTED_EDGE('',*,*,#324,.T.);
#454=ORIENTED_EDGE('',*,*,#265,.T.);
#455=ORIENTED_EDGE('',*,*,#289,.T.);
#456=ORIENTED_EDGE('',*,*,#271,.T.);
#457=ORIENTED_EDGE('',*,*,#322,.T.);
#458=ORIENTED_EDGE('',*,*,#261,.T.);
#459=ORIENTED_EDGE('',*,*,#326,.T.);
#460=ORIENTED_EDGE('',*,*,#288,.T.);
#461=ORIENTED_EDGE('',*,*,#323,.T.);
#462=ORIENTED_EDGE('',*,*,#276,.T.);
#463=ORIENTED_EDGE('',*,*,#327,.T.);
#464=ORIENTED_EDGE('',*,*,#292,.T.);
#465=CYLINDRICAL_SURFACE('',#519,1.99999850389562);
#466=CYLINDRICAL_SURFACE('',#525,1.99999971404825);
#467=CYLINDRICAL_SURFACE('',#528,1.99999971404815);
#468=CYLINDRICAL_SURFACE('',#531,3.43389460251939);
#469=CYLINDRICAL_SURFACE('',#534,1.99999759846504);
#470=CYLINDRICAL_SURFACE('',#537,3.43389437735671);
#471=CYLINDRICAL_SURFACE('',#549,1.14999994915429);
#472=CYLINDRICAL_SURFACE('',#552,1.14999996740107);
#473=CYLINDRICAL_SURFACE('',#555,9.50000010637488);
#474=CYLINDRICAL_SURFACE('',#558,9.50000010456792);
#475=CYLINDRICAL_SURFACE('',#561,1.14999996740107);
#476=CYLINDRICAL_SURFACE('',#564,1.14999994915429);
#477=ADVANCED_FACE('',(#57),#465,.T.);
#478=ADVANCED_FACE('',(#58),#50,.T.);
#479=ADVANCED_FACE('',(#59),#466,.T.);
#480=ADVANCED_FACE('',(#60),#467,.T.);
#481=ADVANCED_FACE('',(#61),#468,.F.);
#482=ADVANCED_FACE('',(#62),#469,.T.);
#483=ADVANCED_FACE('',(#63),#470,.F.);
#484=ADVANCED_FACE('',(#64),#51,.T.);
#485=ADVANCED_FACE('',(#65),#52,.T.);
#486=ADVANCED_FACE('',(#66),#53,.T.);
#487=ADVANCED_FACE('',(#67),#471,.F.);
#488=ADVANCED_FACE('',(#68),#472,.F.);
#489=ADVANCED_FACE('',(#69),#473,.F.);
#490=ADVANCED_FACE('',(#70),#474,.F.);
#491=ADVANCED_FACE('',(#71),#475,.F.);
#492=ADVANCED_FACE('',(#72),#476,.F.);
#493=ADVANCED_FACE('',(#73),#33,.F.);
#494=ADVANCED_FACE('',(#74),#34,.T.);
#495=ADVANCED_FACE('',(#75,#15,#16,#17,#18,#19,#20,#21,#22,#23,#24,#25),
#35,.T.);
#496=ADVANCED_FACE('',(#76,#26,#27,#28,#29,#30,#31,#32),#36,.F.);
#497=ADVANCED_FACE('',(#77),#54,.T.);
#498=ADVANCED_FACE('',(#78),#37,.T.);
#499=ADVANCED_FACE('',(#79),#55,.T.);
#500=ADVANCED_FACE('',(#80),#38,.T.);
#501=ADVANCED_FACE('',(#81),#39,.T.);
#502=ADVANCED_FACE('',(#82),#56,.T.);
#503=ADVANCED_FACE('',(#83),#40,.F.);
#504=ADVANCED_FACE('',(#84),#41,.T.);
#505=CLOSED_SHELL('',(#477,#478,#479,#480,#481,#482,#483,#484,#485,#486,
#487,#488,#489,#490,#491,#492,#493,#494,#495,#496,#497,#498,#499,#500,#501,
#502,#503,#504));
#506=DERIVED_UNIT_ELEMENT(#508,1.);
#507=DERIVED_UNIT_ELEMENT(#921,-3.);
#508=(
MASS_UNIT()
NAMED_UNIT(*)
SI_UNIT(.KILO.,.GRAM.)
);
#509=DERIVED_UNIT((#506,#507));
#510=MEASURE_REPRESENTATION_ITEM('density measure',
POSITIVE_RATIO_MEASURE(7850.),#509);
#511=PROPERTY_DEFINITION_REPRESENTATION(#516,#513);
#512=PROPERTY_DEFINITION_REPRESENTATION(#517,#514);
#513=REPRESENTATION('material name',(#515),#918);
#514=REPRESENTATION('density',(#510),#918);
#515=DESCRIPTIVE_REPRESENTATION_ITEM('Steel','Steel');
#516=PROPERTY_DEFINITION('material property','material name',#928);
#517=PROPERTY_DEFINITION('material property','density of part',#928);
#518=AXIS2_PLACEMENT_3D('',#737,#583,#584);
#519=AXIS2_PLACEMENT_3D('',#738,#585,#586);
#520=AXIS2_PLACEMENT_3D('',#743,#588,#589);
#521=AXIS2_PLACEMENT_3D('',#746,#591,#592);
#522=AXIS2_PLACEMENT_3D('',#747,#593,#594);
#523=AXIS2_PLACEMENT_3D('',#749,#595,#596);
#524=AXIS2_PLACEMENT_3D('',#752,#598,#599);
#525=AXIS2_PLACEMENT_3D('',#753,#600,#601);
#526=AXIS2_PLACEMENT_3D('',#756,#602,#603);
#527=AXIS2_PLACEMENT_3D('',#762,#604,#605);
#528=AXIS2_PLACEMENT_3D('',#767,#606,#607);
#529=AXIS2_PLACEMENT_3D('',#770,#608,#609);
#530=AXIS2_PLACEMENT_3D('',#777,#610,#611);
#531=AXIS2_PLACEMENT_3D('',#781,#612,#613);
#532=AXIS2_PLACEMENT_3D('',#786,#615,#616);
#533=AXIS2_PLACEMENT_3D('',#789,#618,#619);
#534=AXIS2_PLACEMENT_3D('',#790,#620,#621);
#535=AXIS2_PLACEMENT_3D('',#795,#623,#624);
#536=AXIS2_PLACEMENT_3D('',#806,#625,#626);
#537=AXIS2_PLACEMENT_3D('',#807,#627,#628);
#538=AXIS2_PLACEMENT_3D('',#810,#629,#630);
#539=AXIS2_PLACEMENT_3D('',#814,#632,#633);
#540=AXIS2_PLACEMENT_3D('',#816,#635,#636);
#541=AXIS2_PLACEMENT_3D('',#818,#637,#638);
#542=AXIS2_PLACEMENT_3D('',#821,#640,#641);
#543=AXIS2_PLACEMENT_3D('',#822,#642,#643);
#544=AXIS2_PLACEMENT_3D('',#824,#644,#645);
#545=AXIS2_PLACEMENT_3D('',#827,#647,#648);
#546=AXIS2_PLACEMENT_3D('',#828,#649,#650);
#547=AXIS2_PLACEMENT_3D('',#830,#651,#652);
#548=AXIS2_PLACEMENT_3D('',#833,#654,#655);
#549=AXIS2_PLACEMENT_3D('',#834,#656,#657);
#550=AXIS2_PLACEMENT_3D('',#836,#658,#659);
#551=AXIS2_PLACEMENT_3D('',#839,#661,#662);
#552=AXIS2_PLACEMENT_3D('',#840,#663,#664);
#553=AXIS2_PLACEMENT_3D('',#842,#665,#666);
#554=AXIS2_PLACEMENT_3D('',#845,#668,#669);
#555=AXIS2_PLACEMENT_3D('',#846,#670,#671);
#556=AXIS2_PLACEMENT_3D('',#848,#672,#673);
#557=AXIS2_PLACEMENT_3D('',#851,#675,#676);
#558=AXIS2_PLACEMENT_3D('',#852,#677,#678);
#559=AXIS2_PLACEMENT_3D('',#854,#679,#680);
#560=AXIS2_PLACEMENT_3D('',#857,#682,#683);
#561=AXIS2_PLACEMENT_3D('',#858,#684,#685);
#562=AXIS2_PLACEMENT_3D('',#860,#686,#687);
#563=AXIS2_PLACEMENT_3D('',#863,#689,#690);
#564=AXIS2_PLACEMENT_3D('',#864,#691,#692);
#565=AXIS2_PLACEMENT_3D('',#866,#693,#694);
#566=AXIS2_PLACEMENT_3D('',#869,#696,#697);
#567=AXIS2_PLACEMENT_3D('',#870,#698,#699);
#568=AXIS2_PLACEMENT_3D('',#873,#702,#703);
#569=AXIS2_PLACEMENT_3D('',#876,#706,#707);
#570=AXIS2_PLACEMENT_3D('',#888,#708,#709);
#571=AXIS2_PLACEMENT_3D('',#889,#710,#711);
#572=AXIS2_PLACEMENT_3D('',#891,#713,#714);
#573=AXIS2_PLACEMENT_3D('',#892,#715,#716);
#574=AXIS2_PLACEMENT_3D('',#904,#717,#718);
#575=AXIS2_PLACEMENT_3D('',#906,#720,#721);
#576=AXIS2_PLACEMENT_3D('',#909,#723,#724);
#577=AXIS2_PLACEMENT_3D('',#910,#725,#726);
#578=AXIS2_PLACEMENT_3D('',#911,#727,#728);
#579=AXIS2_PLACEMENT_3D('',#912,#729,#730);
#580=AXIS2_PLACEMENT_3D('',#913,#731,#732);
#581=AXIS2_PLACEMENT_3D('',#914,#733,#734);
#582=AXIS2_PLACEMENT_3D('',#915,#735,#736);
#583=DIRECTION('axis',(0.,0.,1.));
#584=DIRECTION('refdir',(1.,0.,0.));
#585=DIRECTION('center_axis',(8.49150069517632E-19,-1.70104050336767E-18,
1.));
#586=DIRECTION('ref_axis',(-1.,0.,8.49150069517632E-19));
#587=DIRECTION('',(-8.49150069517632E-19,1.70104050336767E-18,-1.));
#588=DIRECTION('center_axis',(0.,0.,1.));
#589=DIRECTION('ref_axis',(-1.,0.,8.49150069517632E-19));
#590=DIRECTION('',(8.49150069517632E-19,-1.70104050336767E-18,1.));
#591=DIRECTION('center_axis',(0.,0.,-1.));
#592=DIRECTION('ref_axis',(-1.,0.,8.49150069517632E-19));
#593=DIRECTION('center_axis',(-2.06326259957316E-8,2.06209992405295E-8,
-1.));
#594=DIRECTION('ref_axis',(-1.,0.,2.06326259957316E-8));
#595=DIRECTION('center_axis',(0.,0.,1.));
#596=DIRECTION('ref_axis',(-1.,-1.08070475976733E-9,0.));
#597=DIRECTION('',(0.0523360683354697,2.05927387407479E-8,-0.998629528880047));
#598=DIRECTION('center_axis',(0.,0.,-1.));
#599=DIRECTION('ref_axis',(-1.,-1.08070364191457E-9,0.));
#600=DIRECTION('center_axis',(-8.05258625770746E-19,-7.06169871826407E-20,
1.));
#601=DIRECTION('ref_axis',(-1.,0.,-8.05258625770746E-19));
#602=DIRECTION('center_axis',(0.,0.,-1.));
#603=DIRECTION('ref_axis',(-1.,0.,-8.05258625770746E-19));
#604=DIRECTION('center_axis',(0.,0.,1.));
#605=DIRECTION('ref_axis',(-1.,0.,-8.05258625770746E-19));
#606=DIRECTION('center_axis',(7.25887605436031E-19,-1.0896452358805E-19,
1.));
#607=DIRECTION('ref_axis',(-1.,0.,7.25887605436031E-19));
#608=DIRECTION('center_axis',(0.,0.,-1.));
#609=DIRECTION('ref_axis',(-1.,0.,7.25887605436031E-19));
#610=DIRECTION('center_axis',(0.,0.,1.));
#611=DIRECTION('ref_axis',(-1.,0.,7.25887605436031E-19));
#612=DIRECTION('center_axis',(1.06020420587334E-18,3.32329841013685E-8,
0.999999999999999));
#613=DIRECTION('ref_axis',(-1.,0.,1.06020420587334E-18));
#614=DIRECTION('',(-1.06020420587334E-18,-3.32329841013685E-8,-1.));
#615=DIRECTION('center_axis',(0.,0.,-1.));
#616=DIRECTION('ref_axis',(0.,-1.,0.));
#617=DIRECTION('',(1.06020420587334E-18,3.32329841013685E-8,1.));
#618=DIRECTION('center_axis',(0.,0.,1.));
#619=DIRECTION('ref_axis',(0.,-1.,0.));
#620=DIRECTION('center_axis',(-7.40141321716626E-20,6.5883511333733E-19,
-1.));
#621=DIRECTION('ref_axis',(1.,0.,-7.40141321716626E-20));
#622=DIRECTION('',(-7.40141321716627E-20,6.5883511333733E-19,-1.));
#623=DIRECTION('center_axis',(0.,0.,1.));
#624=DIRECTION('ref_axis',(1.,0.,-7.40141321716626E-20));
#625=DIRECTION('center_axis',(0.,0.,-1.));
#626=DIRECTION('ref_axis',(1.,0.,-7.40141321716626E-20));
#627=DIRECTION('center_axis',(-8.73670667893168E-19,3.32337647847495E-8,
-0.999999999999999));
#628=DIRECTION('ref_axis',(1.,0.,-8.73670667893168E-19));
#629=DIRECTION('center_axis',(0.,0.,1.));
#630=DIRECTION('ref_axis',(0.,-1.,0.));
#631=DIRECTION('',(-8.73670667893168E-19,3.32337647847495E-8,-1.));
#632=DIRECTION('center_axis',(0.,0.,-1.));
#633=DIRECTION('ref_axis',(0.,-1.,0.));
#634=DIRECTION('',(8.73670667893168E-19,-3.32337647847495E-8,1.));
#635=DIRECTION('center_axis',(-4.43801878227953E-9,2.06237902260474E-8,
-1.));
#636=DIRECTION('ref_axis',(-1.,0.,4.43801878227953E-9));
#637=DIRECTION('center_axis',(0.,0.,1.));
#638=DIRECTION('ref_axis',(-1.,-1.08084629649384E-9,0.));
#639=DIRECTION('',(0.0523358988167073,2.05955261020017E-8,-0.998629537764154));
#640=DIRECTION('center_axis',(0.,0.,-1.));
#641=DIRECTION('ref_axis',(-1.,-1.08084456259505E-9,0.));
#642=DIRECTION('center_axis',(4.42743856186321E-9,2.06281957675056E-8,-1.));
#643=DIRECTION('ref_axis',(-1.,0.,-4.42743856186321E-9));
#644=DIRECTION('center_axis',(0.,0.,1.));
#645=DIRECTION('ref_axis',(-1.,-1.08107753927652E-9,0.));
#646=DIRECTION('',(0.0523359076577885,2.05999256058439E-8,-0.998629537300813));
#647=DIRECTION('center_axis',(0.,0.,-1.));
#648=DIRECTION('ref_axis',(-1.,-1.08107585908263E-9,0.));
#649=DIRECTION('center_axis',(2.06216484232685E-8,2.0632639008552E-8,-1.));
#650=DIRECTION('ref_axis',(-1.,0.,-2.06216484232686E-8));
#651=DIRECTION('center_axis',(0.,0.,1.));
#652=DIRECTION('ref_axis',(-1.,-1.08131340841571E-9,0.));
#653=DIRECTION('',(0.0523361095332064,2.06043625567919E-8,-0.99862952672096));
#654=DIRECTION('center_axis',(0.,0.,-1.));
#655=DIRECTION('ref_axis',(-1.,-1.08131464997522E-9,0.));
#656=DIRECTION('center_axis',(-5.74684699813244E-18,1.82719222503823E-18,
-1.));
#657=DIRECTION('ref_axis',(1.,0.,-5.74684699813244E-18));
#658=DIRECTION('center_axis',(0.,0.,-1.));
#659=DIRECTION('ref_axis',(1.,0.,-5.74684699813244E-18));
#660=DIRECTION('',(-5.74684699813244E-18,1.82719222503823E-18,-1.));
#661=DIRECTION('center_axis',(0.,0.,1.));
#662=DIRECTION('ref_axis',(1.,0.,-5.74684699813244E-18));
#663=DIRECTION('center_axis',(1.37562932962169E-18,2.99660380626927E-18,
-1.));
#664=DIRECTION('ref_axis',(1.,0.,1.37562932962169E-18));
#665=DIRECTION('center_axis',(0.,0.,-1.));
#666=DIRECTION('ref_axis',(1.,0.,1.37562932962169E-18));
#667=DIRECTION('',(1.37562932962169E-18,2.99660380626927E-18,-1.));
#668=DIRECTION('center_axis',(0.,0.,1.));
#669=DIRECTION('ref_axis',(1.,0.,1.37562932962169E-18));
#670=DIRECTION('center_axis',(-7.4489544363219E-19,2.54739595525481E-20,
-1.));
#671=DIRECTION('ref_axis',(1.,0.,-7.44895443632191E-19));
#672=DIRECTION('center_axis',(0.,0.,-1.));
#673=DIRECTION('ref_axis',(1.,0.,-7.44895443632191E-19));
#674=DIRECTION('',(-7.4489544363219E-19,2.54739595525481E-20,-1.));
#675=DIRECTION('center_axis',(0.,0.,1.));
#676=DIRECTION('ref_axis',(1.,0.,-7.44895443632191E-19));
#677=DIRECTION('center_axis',(8.17459631077009E-10,3.02905971115546E-10,
1.));
#678=DIRECTION('ref_axis',(-1.,0.,8.17459631077009E-10));
#679=DIRECTION('center_axis',(0.,0.,1.));
#680=DIRECTION('ref_axis',(-1.,-2.47613403399137E-19,0.));
#681=DIRECTION('',(8.1745963107701E-10,3.02905971115546E-10,1.));
#682=DIRECTION('center_axis',(0.,0.,-1.));
#683=DIRECTION('ref_axis',(-1.,-2.47613403399137E-19,0.));
#684=DIRECTION('center_axis',(-1.37563019563721E-18,2.99660300890022E-18,
-1.));
#685=DIRECTION('ref_axis',(1.,0.,-1.37563019563721E-18));
#686=DIRECTION('center_axis',(0.,0.,-1.));
#687=DIRECTION('ref_axis',(1.,0.,-1.37563019563721E-18));
#688=DIRECTION('',(-1.37563019563721E-18,2.99660300890022E-18,-1.));
#689=DIRECTION('center_axis',(0.,0.,1.));
#690=DIRECTION('ref_axis',(1.,0.,-1.37563019563721E-18));
#691=DIRECTION('center_axis',(5.62129678772779E-18,1.82710187430407E-18,
-1.));
#692=DIRECTION('ref_axis',(1.,0.,5.62129678772779E-18));
#693=DIRECTION('center_axis',(0.,0.,-1.));
#694=DIRECTION('ref_axis',(1.,0.,5.62129678772779E-18));
#695=DIRECTION('',(5.62129678772779E-18,1.82710187430407E-18,-1.));
#696=DIRECTION('center_axis',(0.,0.,1.));
#697=DIRECTION('ref_axis',(1.,0.,5.62129678772779E-18));
#698=DIRECTION('center_axis',(2.07487136507606E-5,0.999998946936736,0.00145110127511195));
#699=DIRECTION('ref_axis',(0.,-0.00145110127542431,0.99999894715199));
#700=DIRECTION('',(-0.999999999784745,2.07487354960255E-5,0.));
#701=DIRECTION('',(0.999999999784745,-2.07487354960255E-5,0.));
#702=DIRECTION('center_axis',(-1.,7.4664070294574E-11,0.));
#703=DIRECTION('ref_axis',(0.,0.,1.));
#704=DIRECTION('',(-7.4664070294574E-11,-1.,0.));
#705=DIRECTION('',(7.4664070294574E-11,1.,0.));
#706=DIRECTION('center_axis',(0.,0.,1.));
#707=DIRECTION('ref_axis',(1.,0.,0.));
#708=DIRECTION('center_axis',(0.,0.,-1.));
#709=DIRECTION('ref_axis',(-1.,-1.01203245611456E-10,0.));
#710=DIRECTION('center_axis',(0.,0.,-1.));
#711=DIRECTION('ref_axis',(0.999999145516741,0.0013072741820347,0.));
#712=DIRECTION('',(7.4664070231338E-11,-1.,0.));
#713=DIRECTION('center_axis',(0.,0.,1.));
#714=DIRECTION('ref_axis',(1.,0.,0.));
#715=DIRECTION('center_axis',(0.,0.,1.));
#716=DIRECTION('ref_axis',(-1.,-1.01203245623126E-10,0.));
#717=DIRECTION('center_axis',(0.,0.,1.));
#718=DIRECTION('ref_axis',(0.999999145568926,0.00130723426318194,0.));
#719=DIRECTION('',(-7.4664070231338E-11,1.,0.));
#720=DIRECTION('center_axis',(-0.999999856748394,0.00052397001208487,0.000109355464525053));
#721=DIRECTION('ref_axis',(-0.000523970015217848,-0.999999862727702,0.));
#722=DIRECTION('',(-0.00124034196270104,0.999999230775593,1.92937094493388E-7));
#723=DIRECTION('center_axis',(0.,0.,1.));
#724=DIRECTION('ref_axis',(1.,0.,0.));
#725=DIRECTION('center_axis',(3.29185659341732E-9,1.00583388329347E-5,0.999999999949415));
#726=DIRECTION('ref_axis',(-1.,0.,3.29185659358384E-9));
#727=DIRECTION('center_axis',(0.,0.,1.));
#728=DIRECTION('ref_axis',(1.,0.,0.));
#729=DIRECTION('center_axis',(0.,0.,1.));
#730=DIRECTION('ref_axis',(1.,0.,0.));
#731=DIRECTION('center_axis',(-0.000129139843561317,-1.68829780992309E-7,
0.999999991661436));
#732=DIRECTION('ref_axis',(-0.99999997208813,-0.000197855080540348,-0.000129139874437454));
#733=DIRECTION('center_axis',(-1.,-7.46640702313379E-11,0.));
#734=DIRECTION('ref_axis',(0.,0.,1.));
#735=DIRECTION('center_axis',(0.,0.,1.));
#736=DIRECTION('ref_axis',(1.,0.,0.));
#737=CARTESIAN_POINT('',(0.,0.,0.));
#738=CARTESIAN_POINT('Origin',(-26.5000008712317,21.0000010377514,17.5000000745058));
#739=CARTESIAN_POINT('',(-28.4923894956478,21.1743115856219,17.5000000745058));
#740=CARTESIAN_POINT('',(-28.4923888461225,21.174311602822,16.499999910593));
#741=CARTESIAN_POINT('',(-28.4923888461225,21.174311602822,17.5000000745058));
#742=CARTESIAN_POINT('',(-26.6743115619778,22.9923897908007,17.5000000744952));
#743=CARTESIAN_POINT('Origin',(-26.5000008712317,21.0000010377514,17.5000000745058));
#744=CARTESIAN_POINT('',(-26.6743115838514,22.9923889997334,16.499999910593));
#745=CARTESIAN_POINT('',(-26.6743115838514,22.9923889997334,17.5000000745058));
#746=CARTESIAN_POINT('Origin',(-26.5000008712317,21.0000010377514,16.499999910593));
#747=CARTESIAN_POINT('Origin',(9.50000003890631,-9.50000003891742,17.4999992229374));
#748=CARTESIAN_POINT('',(10.2951843795016,-9.50000008015944,19.5000004109171));
#749=CARTESIAN_POINT('Origin',(9.50000007931174,-9.50000007930008,19.5000004023314));
#750=CARTESIAN_POINT('',(10.4000001832632,-9.50000003891743,17.5000000276496));
#751=CARTESIAN_POINT('',(10.4000002264097,-9.50000003891742,17.499999204368));
#752=CARTESIAN_POINT('Origin',(9.50000003793314,-9.5000000379448,17.5000000745058));
#753=CARTESIAN_POINT('Origin',(-26.4999998579608,-11.00000042923,17.5000000745058));
#754=CARTESIAN_POINT('',(-26.6727812063604,-12.9925228160147,16.499999910593));
#755=CARTESIAN_POINT('',(-28.4891778644354,-11.207773658379,16.4999998770627));
#756=CARTESIAN_POINT('Origin',(-26.4999998579608,-11.00000042923,16.499999910593));
#757=CARTESIAN_POINT('',(-26.6551356629413,-12.9939742851785,17.5000000745058));
#758=CARTESIAN_POINT('Ctrl Pts',(-26.6551356629416,-12.9939742851785,17.5000000744885));
#759=CARTESIAN_POINT('Ctrl Pts',(-26.6639616469909,-12.9932876030858,17.0269123213691));
#760=CARTESIAN_POINT('Ctrl Pts',(-26.6727812063604,-12.9925228160147,16.499999910593));
#761=CARTESIAN_POINT('',(-28.48943953965,-11.2052530107116,17.5000000745058));
#762=CARTESIAN_POINT('Origin',(-26.4999998579608,-11.00000042923,17.5000000745058));
#763=CARTESIAN_POINT('Ctrl Pts',(-28.4891778644414,-11.2077736583211,16.4999998770625));
#764=CARTESIAN_POINT('Ctrl Pts',(-28.4892650442583,-11.2069390167496,16.8331868180587));
#765=CARTESIAN_POINT('Ctrl Pts',(-28.4893522718081,-11.2060988348563,17.16652998565));
#766=CARTESIAN_POINT('Ctrl Pts',(-28.4894395396966,-11.2052529783688,17.5000000744237));
#767=CARTESIAN_POINT('Origin',(26.4999998579609,-11.0000004292301,17.5000000745058));
#768=CARTESIAN_POINT('',(28.4885342524154,-11.2138457432266,16.4999998745863));
#769=CARTESIAN_POINT('',(26.6595066252875,-12.9936293935486,16.499999910593));
#770=CARTESIAN_POINT('Origin',(26.4999998579609,-11.0000004292301,16.499999910593));
#771=CARTESIAN_POINT('',(28.4886479928442,-11.2127854188738,17.5000000736882));
#772=CARTESIAN_POINT('Ctrl Pts',(28.4886479928442,-11.2127854188737,17.5000000736883));
#773=CARTESIAN_POINT('Ctrl Pts',(28.4886370863602,-11.2128873488037,17.1689953123665));
#774=CARTESIAN_POINT('Ctrl Pts',(28.4885995607355,-11.2132384450557,16.8357640175361));
#775=CARTESIAN_POINT('Ctrl Pts',(28.4885342524298,-11.2138457429662,16.4999998745858));
#776=CARTESIAN_POINT('',(26.6401996420448,-12.9950800959942,17.5000000745058));
#777=CARTESIAN_POINT('Origin',(26.4999998579609,-11.0000004292301,17.5000000745058));
#778=CARTESIAN_POINT('Ctrl Pts',(26.6595066252875,-12.9936293935486,16.499999910593));
#779=CARTESIAN_POINT('Ctrl Pts',(26.6498566446631,-12.9944014716242,17.0322008675135));
#780=CARTESIAN_POINT('Ctrl Pts',(26.6401996420448,-12.9950800959942,17.5000000745058));
#781=CARTESIAN_POINT('Origin',(-2.17888428701733E-17,1.13444531507249,16.4999999106162));
#782=CARTESIAN_POINT('',(-2.98733497004445,-0.558912829387995,17.5000000745058));
#783=CARTESIAN_POINT('',(-2.98733497004445,-0.558912862620984,16.499999910593));
#784=CARTESIAN_POINT('',(-2.98733497004445,-0.558912862620982,16.4999999668915));
#785=CARTESIAN_POINT('',(2.98733497004445,-0.558912829387995,17.5000000745058));
#786=CARTESIAN_POINT('Origin',(-2.07286384905435E-17,1.13444534830548,17.5000000745058));
#787=CARTESIAN_POINT('',(2.98733497004445,-0.558912862620984,16.499999910593));
#788=CARTESIAN_POINT('',(2.98733497004445,-0.558912862620982,16.4999999668915));
#789=CARTESIAN_POINT('Origin',(-2.17888428701978E-17,1.13444531507249,16.499999910593));
#790=CARTESIAN_POINT('Origin',(26.5000014317041,21.000001820539,17.5000000745058));
#791=CARTESIAN_POINT('',(26.6743115524343,22.9923898090106,17.500000074494));
#792=CARTESIAN_POINT('',(26.6743115771603,22.992388923252,16.499999910593));
#793=CARTESIAN_POINT('',(26.6743115771603,22.992388923252,17.5000000745058));
#794=CARTESIAN_POINT('',(28.4877579890234,21.2209418101286,17.5001622036572));
#795=CARTESIAN_POINT('Origin',(26.5000014317041,21.000001820539,17.5000000745058));
#796=CARTESIAN_POINT('',(28.4877138285516,21.2213382641829,17.0123994334367));
#797=CARTESIAN_POINT('Ctrl Pts',(28.4877138285516,21.2213382641829,17.0123994334131));
#798=CARTESIAN_POINT('Ctrl Pts',(28.4877318747108,21.2211762006122,17.1755843170282));
#799=CARTESIAN_POINT('Ctrl Pts',(28.4877466682253,21.221043587317,17.3381567545592));
#800=CARTESIAN_POINT('Ctrl Pts',(28.4877581887648,21.2209405025949,17.5003243328087));
#801=CARTESIAN_POINT('',(28.4876461642242,21.2219450817997,16.4999998544361));
#802=CARTESIAN_POINT('Ctrl Pts',(28.4876433989196,21.2219587771026,16.499999874403));
#803=CARTESIAN_POINT('Ctrl Pts',(28.4876715038511,21.2217144593269,16.6714700176797));
#804=CARTESIAN_POINT('Ctrl Pts',(28.4876950158034,21.2215072121076,16.8422825632612));
#805=CARTESIAN_POINT('Ctrl Pts',(28.4877138285516,21.2213382641829,17.0123994334131));
#806=CARTESIAN_POINT('Origin',(26.5000014317041,21.000001820539,16.499999910593));
#807=CARTESIAN_POINT('Origin',(1.00055390700706E-16,6.86555494011256,16.499999910616));
#808=CARTESIAN_POINT('',(2.98733497072522,8.55891266000643,16.499999910593));
#809=CARTESIAN_POINT('',(-2.98733497072522,8.55891266000643,16.499999910593));
#810=CARTESIAN_POINT('Origin',(1.00055390700686E-16,6.86555494011256,16.499999910593));
#811=CARTESIAN_POINT('',(2.98733497072522,8.55891262677266,17.5000000745058));
#812=CARTESIAN_POINT('',(2.98733497072522,8.55891266000643,16.4999999668926));
#813=CARTESIAN_POINT('',(-2.98733497072522,8.55891262677266,17.5000000745058));
#814=CARTESIAN_POINT('Origin',(1.00929061511785E-16,6.86555490687879,17.5000000745058));
#815=CARTESIAN_POINT('',(-2.98733497072522,8.55891266000643,16.4999999668926));
#816=CARTESIAN_POINT('Origin',(25.5000000604035,-9.50000003891477,17.4999994021857));
#817=CARTESIAN_POINT('',(26.2951845625549,-9.50000008016237,19.5000004170498));
#818=CARTESIAN_POINT('Origin',(25.5000000690946,-9.5000000793029,19.5000004023314));
#819=CARTESIAN_POINT('',(26.4000000250387,-9.50000003891478,17.5000000498588));
#820=CARTESIAN_POINT('',(26.4000000591911,-9.50000003891477,17.4999993981915));
#821=CARTESIAN_POINT('Origin',(25.5000000601942,-9.50000003794202,17.5000000745058));
#822=CARTESIAN_POINT('Origin',(-25.5000000604136,-9.50000003891055,17.499999402275));
#823=CARTESIAN_POINT('',(-24.7048155759808,-9.50000008016697,19.5000004240986));
#824=CARTESIAN_POINT('Origin',(-25.500000069084,-9.50000007930731,19.5000004023314));
#825=CARTESIAN_POINT('',(-24.6000000957908,-9.50000003891057,17.5000000578387));
#826=CARTESIAN_POINT('',(-24.600000061643,-9.50000003891055,17.4999994062597));
#827=CARTESIAN_POINT('Origin',(-25.5000000602048,-9.5000000379376,17.5000000745058));
#828=CARTESIAN_POINT('Origin',(-9.5000000389168,-9.50000003890629,17.4999992229401));
#829=CARTESIAN_POINT('',(-8.70481578083011,-9.50000008017159,19.5000004437221));
#830=CARTESIAN_POINT('Origin',(-9.50000007930073,-9.50000007931175,19.5000004023314));
#831=CARTESIAN_POINT('',(-8.59999989455989,-9.50000003890631,17.5000000647782));
#832=CARTESIAN_POINT('',(-8.59999985141356,-9.50000003890629,17.4999992414996));
#833=CARTESIAN_POINT('Origin',(-9.50000003794415,-9.50000003793313,17.5000000745058));
#834=CARTESIAN_POINT('Origin',(25.4999998233771,20.500000228055,16.499999910593));
#835=CARTESIAN_POINT('',(24.3499998742229,20.5000005662443,17.5000000745058));
#836=CARTESIAN_POINT('Origin',(25.4999998233771,20.500000228055,17.5000000745058));
#837=CARTESIAN_POINT('',(24.3499998742229,20.5000005662443,16.499999910593));
#838=CARTESIAN_POINT('',(24.3499998742228,20.500000228055,16.499999910593));
#839=CARTESIAN_POINT('Origin',(25.4999998233771,20.500000228055,16.499999910593));
#840=CARTESIAN_POINT('Origin',(9.50000002675017,20.500000228055,16.499999910593));
#841=CARTESIAN_POINT('',(8.35000005934915,20.500000566244,17.5000000745058));
#842=CARTESIAN_POINT('Origin',(9.50000002675017,20.500000228055,17.5000000745058));
#843=CARTESIAN_POINT('',(8.35000005934915,20.500000566244,16.499999910593));
#844=CARTESIAN_POINT('',(8.3500000593491,20.500000228055,16.499999910593));
#845=CARTESIAN_POINT('Origin',(9.50000002675017,20.500000228055,16.499999910593));
#846=CARTESIAN_POINT('Origin',(-17.5000001431438,-2.0000000332323,16.499999910593));
#847=CARTESIAN_POINT('',(-27.0000002495186,-2.0000000949949,17.5000000745058));
#848=CARTESIAN_POINT('Origin',(-17.5000001431438,-2.0000000332323,17.5000000745058));
#849=CARTESIAN_POINT('',(-27.0000002495186,-2.0000000949949,16.499999910593));
#850=CARTESIAN_POINT('',(-27.0000002495186,-2.0000000332323,16.499999910593));
#851=CARTESIAN_POINT('Origin',(-17.5000001431438,-2.0000000332323,16.499999910593));
#852=CARTESIAN_POINT('Origin',(17.500000146232,-2.00000003208796,17.5000000745058));
#853=CARTESIAN_POINT('',(27.0000002499825,-2.00000003239086,16.4999998935546));
#854=CARTESIAN_POINT('Origin',(17.5000001454146,-2.00000003239086,16.499999910593));
#855=CARTESIAN_POINT('',(27.0000002507999,-2.00000003208796,17.5000000760125));
#856=CARTESIAN_POINT('',(27.0000002507999,-2.00000003208796,17.5000000667399));
#857=CARTESIAN_POINT('Origin',(17.500000146232,-2.00000003208796,17.5000000745058));
#858=CARTESIAN_POINT('Origin',(-9.50000002675017,20.500000228055,16.499999910593));
#859=CARTESIAN_POINT('',(-10.6499999941512,20.5000005662442,17.5000000745058));
#860=CARTESIAN_POINT('Origin',(-9.50000002675017,20.500000228055,17.5000000745058));
#861=CARTESIAN_POINT('',(-10.6499999941512,20.5000005662442,16.499999910593));
#862=CARTESIAN_POINT('',(-10.6499999941512,20.500000228055,16.499999910593));
#863=CARTESIAN_POINT('Origin',(-9.50000002675017,20.500000228055,16.499999910593));
#864=CARTESIAN_POINT('Origin',(-25.4999998233771,20.500000228055,16.499999910593));
#865=CARTESIAN_POINT('',(-26.6499997725313,20.500000566244,17.5000000745058));
#866=CARTESIAN_POINT('Origin',(-25.4999998233771,20.500000228055,17.5000000745058));
#867=CARTESIAN_POINT('',(-26.6499997725313,20.500000566244,16.499999910593));
#868=CARTESIAN_POINT('',(-26.6499997725314,20.500000228055,16.499999910593));
#869=CARTESIAN_POINT('Origin',(-25.4999998233771,20.500000228055,16.499999910593));
#870=CARTESIAN_POINT('Origin',(1.55099999159575,-12.9939210414886,17.0600000023842));
#871=CARTESIAN_POINT('',(0.758081894926194,-12.9930919717378,16.499999910593));
#872=CARTESIAN_POINT('',(0.813901846026493,-12.9945442329723,17.5000000745058));
#873=CARTESIAN_POINT('Origin',(2.98733497038484,4.00000001051618,16.9999999925494));
#874=CARTESIAN_POINT('',(2.98733497038624,4.01875624549553,17.5000000745058));
#875=CARTESIAN_POINT('',(2.9873349706356,7.35852462219536,16.499999910593));
#876=CARTESIAN_POINT('Origin',(0.0771571070274567,4.03751248069217,17.5000000745058));
#877=CARTESIAN_POINT('Ctrl Pts',(28.4877577892847,21.2209431176622,17.5000000745058));
#878=CARTESIAN_POINT('Ctrl Pts',(28.4951565482842,15.2536259124314,17.5000000745058));
#879=CARTESIAN_POINT('Ctrl Pts',(28.5036858512779,8.36893523648545,17.5000000745058));
#880=CARTESIAN_POINT('Ctrl Pts',(28.5094223555484,3.7255600469191,17.5000000745058));
#881=CARTESIAN_POINT('Ctrl Pts',(28.5124710157674,1.20917085173757,17.5000000745058));
#882=CARTESIAN_POINT('Ctrl Pts',(28.5134655768297,0.195420609097736,17.5000000745058));
#883=CARTESIAN_POINT('Ctrl Pts',(28.5131459643547,-0.350687487376661,17.5000000745058));
#884=CARTESIAN_POINT('Ctrl Pts',(28.5111381074775,-1.34129547265651,17.5000000745058));
#885=CARTESIAN_POINT('Ctrl Pts',(28.5048343551251,-4.13066086272257,17.5000000745058));
#886=CARTESIAN_POINT('Ctrl Pts',(28.4925043984167,-9.52626186997984,17.5000000745058));
#887=CARTESIAN_POINT('Ctrl Pts',(28.4886479928443,-11.2127854188738,17.5000000745058));
#888=CARTESIAN_POINT('Origin',(0.661909944724925,-87199.5013942562,17.5000000745058));
#889=CARTESIAN_POINT('Origin',(14078.9189762022,7.77449358078819,17.5000000745058));
#890=CARTESIAN_POINT('',(-2.98733497038624,4.01875624548977,17.5000000745058));
#891=CARTESIAN_POINT('Origin',(-0.0343442634969461,10.7170492341001,16.499999910593));
#892=CARTESIAN_POINT('Origin',(0.661909941428007,-87199.5014043146,16.499999910593));
#893=CARTESIAN_POINT('Ctrl Pts',(28.4885342524357,-11.2138457432917,16.499999910593));
#894=CARTESIAN_POINT('Ctrl Pts',(28.4923909761344,-9.52705386042886,16.499999910593));
#895=CARTESIAN_POINT('Ctrl Pts',(28.5047258937999,-4.12852171468798,16.499999910593));
#896=CARTESIAN_POINT('Ctrl Pts',(28.5110300534861,-1.33532420607988,16.499999910593));
#897=CARTESIAN_POINT('Ctrl Pts',(28.5130272656654,-0.337018369034058,16.499999910593));
#898=CARTESIAN_POINT('Ctrl Pts',(28.5133063134729,0.236702445499758,16.499999910593));
#899=CARTESIAN_POINT('Ctrl Pts',(28.5121937477908,1.34368295086913,16.499999910593));
#900=CARTESIAN_POINT('Ctrl Pts',(28.5089183875344,4.04267168276972,16.499999910593));
#901=CARTESIAN_POINT('Ctrl Pts',(28.5029682460446,8.85838797597789,16.499999910593));
#902=CARTESIAN_POINT('Ctrl Pts',(28.4945494559351,15.6540205509543,16.499999910593));
#903=CARTESIAN_POINT('Ctrl Pts',(28.4876461642497,21.2219450818769,16.499999910593));
#904=CARTESIAN_POINT('Origin',(14078.9191053421,7.7744937496167,16.499999910593));
#905=CARTESIAN_POINT('',(-2.9873349706356,7.35852462219792,16.499999910593));
#906=CARTESIAN_POINT('Origin',(28.4764442544583,-0.0668555218644449,17.0123994460578));
#907=CARTESIAN_POINT('',(28.5141185134102,-0.066875262049191,17.0123953261711));
#908=CARTESIAN_POINT('',(28.4876328428056,21.2866312931503,17.0123994460578));
#909=CARTESIAN_POINT('Origin',(-9.50000006450366,-9.50000006450366,19.5000004023314));
#910=CARTESIAN_POINT('Origin',(0.661909938541484,-87199.5014131389,16.499999910593));
#911=CARTESIAN_POINT('Origin',(9.50000006450366,-9.50000006450366,19.5000004023314));
#912=CARTESIAN_POINT('Origin',(25.5000000589923,-9.50000006450366,19.5000004023314));
#913=CARTESIAN_POINT('Origin',(14078.9192114797,7.77449388837954,17.5000003210488));
#914=CARTESIAN_POINT('Origin',(-2.98733497038484,4.00000001051618,16.9999999925494));
#915=CARTESIAN_POINT('Origin',(-25.5000000589923,-9.50000006450366,19.5000004023314));
#916=UNCERTAINTY_MEASURE_WITH_UNIT(LENGTH_MEASURE(0.01),#920,
'DISTANCE_ACCURACY_VALUE',
'Maximum model space distance between geometric entities at asserted c
onnectivities');
#917=UNCERTAINTY_MEASURE_WITH_UNIT(LENGTH_MEASURE(0.01),#920,
'DISTANCE_ACCURACY_VALUE',
'Maximum model space distance between geometric entities at asserted c
onnectivities');
#918=(
GEOMETRIC_REPRESENTATION_CONTEXT(3)
GLOBAL_UNCERTAINTY_ASSIGNED_CONTEXT((#916))
GLOBAL_UNIT_ASSIGNED_CONTEXT((#920,#922,#923))
REPRESENTATION_CONTEXT('','3D')
);
#919=(
GEOMETRIC_REPRESENTATION_CONTEXT(3)
GLOBAL_UNCERTAINTY_ASSIGNED_CONTEXT((#917))
GLOBAL_UNIT_ASSIGNED_CONTEXT((#920,#922,#923))
REPRESENTATION_CONTEXT('','3D')
);
#920=(
LENGTH_UNIT()
NAMED_UNIT(*)
SI_UNIT(.MILLI.,.METRE.)
);
#921=(
LENGTH_UNIT()
NAMED_UNIT(*)
SI_UNIT($,.METRE.)
);
#922=(
NAMED_UNIT(*)
PLANE_ANGLE_UNIT()
SI_UNIT($,.RADIAN.)
);
#923=(
NAMED_UNIT(*)
SI_UNIT($,.STERADIAN.)
SOLID_ANGLE_UNIT()
);
#924=SHAPE_DEFINITION_REPRESENTATION(#925,#926);
#925=PRODUCT_DEFINITION_SHAPE('',$,#928);
#926=SHAPE_REPRESENTATION('',(#518),#918);
#927=PRODUCT_DEFINITION_CONTEXT('part definition',#932,'design');
#928=PRODUCT_DEFINITION('2026-09-04-21-48-35-792','trunk_base',#929,#927);
#929=PRODUCT_DEFINITION_FORMATION('',$,#934);
#930=PRODUCT_RELATED_PRODUCT_CATEGORY('trunk_base','trunk_base',(#934));
#931=APPLICATION_PROTOCOL_DEFINITION('international standard',
'automotive_design',2009,#932);
#932=APPLICATION_CONTEXT(
'Core Data for Automotive Mechanical Design Process');
#933=PRODUCT_CONTEXT('part definition',#932,'mechanical');
#934=PRODUCT('2026-09-04-21-48-35-792','trunk_base',$,(#933));
#935=PRESENTATION_STYLE_ASSIGNMENT((#936));
#936=SURFACE_STYLE_USAGE(.BOTH.,#937);
#937=SURFACE_SIDE_STYLE('',(#938));
#938=SURFACE_STYLE_FILL_AREA(#939);
#939=FILL_AREA_STYLE('Steel - Satin',(#940));
#940=FILL_AREA_STYLE_COLOUR('Steel - Satin',#941);
#941=COLOUR_RGB('Steel - Satin',0.627450980392157,0.627450980392157,0.627450980392157);
ENDSEC;
END-ISO-10303-21;
