ISO-10303-21;
HEADER;
/* Generated by software containing ST-Developer
 * from STEP Tools, Inc. (www.steptools.com) 
 */

FILE_DESCRIPTION(
/* description */ (''),
/* implementation_level */ '2;1');

FILE_NAME(
/* name */ 'banana_pcb_locker.step',
/* time_stamp */ '2026-09-08T16:12:27-06:00',
/* author */ (''),
/* organization */ (''),
/* preprocessor_version */ 'ST-DEVELOPER v20.2',
/* originating_system */ 'Autodesk Translation Framework v15.15.0.0',
/* authorisation */ '');

FILE_SCHEMA (('AUTOMOTIVE_DESIGN { 1 0 10303 214 3 1 1 }'));
ENDSEC;

DATA;
#10=MECHANICAL_DESIGN_GEOMETRIC_PRESENTATION_REPRESENTATION('',(#13),#904);
#11=SHAPE_REPRESENTATION_RELATIONSHIP('SRR','None',#911,#12);
#12=ADVANCED_BREP_SHAPE_REPRESENTATION('',(#14),#903);
#13=STYLED_ITEM('',(#920),#14);
#14=MANIFOLD_SOLID_BREP('MeshBody1',#536);
#15=FACE_BOUND('',#82,.T.);
#16=FACE_BOUND('',#83,.T.);
#17=FACE_BOUND('',#90,.T.);
#18=FACE_BOUND('',#91,.T.);
#19=PLANE('',#580);
#20=PLANE('',#581);
#21=PLANE('',#582);
#22=PLANE('',#583);
#23=PLANE('',#584);
#24=PLANE('',#585);
#25=PLANE('',#586);
#26=PLANE('',#587);
#27=PLANE('',#588);
#28=PLANE('',#589);
#29=PLANE('',#590);
#30=PLANE('',#591);
#31=PLANE('',#592);
#32=PLANE('',#593);
#33=PLANE('',#594);
#34=PLANE('',#595);
#35=PLANE('',#596);
#36=CIRCLE('',#560,0.0109988685381132);
#37=CIRCLE('',#561,0.0107393141554191);
#38=CIRCLE('',#569,0.0109988685377029);
#39=CIRCLE('',#570,0.0107393141554073);
#40=CONICAL_SURFACE('',#559,0.0107427609183543,0.0173018838644693);
#41=CONICAL_SURFACE('',#562,0.0201168333445847,0.00240133017688809);
#42=CONICAL_SURFACE('',#565,0.0201168333786807,0.00240133017720264);
#43=CONICAL_SURFACE('',#568,0.0107427609179799,0.0173018838387587);
#44=FACE_OUTER_BOUND('',#71,.T.);
#45=FACE_OUTER_BOUND('',#72,.T.);
#46=FACE_OUTER_BOUND('',#73,.T.);
#47=FACE_OUTER_BOUND('',#74,.T.);
#48=FACE_OUTER_BOUND('',#75,.T.);
#49=FACE_OUTER_BOUND('',#76,.T.);
#50=FACE_OUTER_BOUND('',#77,.T.);
#51=FACE_OUTER_BOUND('',#78,.T.);
#52=FACE_OUTER_BOUND('',#79,.T.);
#53=FACE_OUTER_BOUND('',#80,.T.);
#54=FACE_OUTER_BOUND('',#81,.T.);
#55=FACE_OUTER_BOUND('',#84,.T.);
#56=FACE_OUTER_BOUND('',#85,.T.);
#57=FACE_OUTER_BOUND('',#86,.T.);
#58=FACE_OUTER_BOUND('',#87,.T.);
#59=FACE_OUTER_BOUND('',#88,.T.);
#60=FACE_OUTER_BOUND('',#89,.T.);
#61=FACE_OUTER_BOUND('',#92,.T.);
#62=FACE_OUTER_BOUND('',#93,.T.);
#63=FACE_OUTER_BOUND('',#94,.T.);
#64=FACE_OUTER_BOUND('',#95,.T.);
#65=FACE_OUTER_BOUND('',#96,.T.);
#66=FACE_OUTER_BOUND('',#97,.T.);
#67=FACE_OUTER_BOUND('',#98,.T.);
#68=FACE_OUTER_BOUND('',#99,.T.);
#69=FACE_OUTER_BOUND('',#100,.T.);
#70=FACE_OUTER_BOUND('',#101,.T.);
#71=EDGE_LOOP('',(#353,#354,#355,#356));
#72=EDGE_LOOP('',(#357,#358,#359,#360));
#73=EDGE_LOOP('',(#361,#362,#363,#364));
#74=EDGE_LOOP('',(#365,#366,#367,#368));
#75=EDGE_LOOP('',(#369,#370,#371,#372));
#76=EDGE_LOOP('',(#373,#374,#375,#376));
#77=EDGE_LOOP('',(#377,#378,#379,#380));
#78=EDGE_LOOP('',(#381,#382,#383,#384));
#79=EDGE_LOOP('',(#385,#386,#387,#388));
#80=EDGE_LOOP('',(#389,#390,#391,#392));
#81=EDGE_LOOP('',(#393,#394,#395,#396,#397,#398,#399,#400,#401,#402,#403,
#404,#405,#406,#407));
#82=EDGE_LOOP('',(#408));
#83=EDGE_LOOP('',(#409));
#84=EDGE_LOOP('',(#410,#411,#412,#413));
#85=EDGE_LOOP('',(#414,#415,#416,#417));
#86=EDGE_LOOP('',(#418,#419,#420,#421));
#87=EDGE_LOOP('',(#422,#423,#424,#425));
#88=EDGE_LOOP('',(#426,#427,#428,#429));
#89=EDGE_LOOP('',(#430,#431,#432,#433,#434,#435,#436,#437,#438,#439,#440,
#441,#442,#443,#444,#445,#446,#447,#448,#449,#450,#451,#452));
#90=EDGE_LOOP('',(#453));
#91=EDGE_LOOP('',(#454));
#92=EDGE_LOOP('',(#455,#456,#457,#458));
#93=EDGE_LOOP('',(#459,#460,#461,#462,#463,#464,#465,#466,#467,#468,#469,
#470));
#94=EDGE_LOOP('',(#471,#472,#473,#474));
#95=EDGE_LOOP('',(#475,#476,#477,#478));
#96=EDGE_LOOP('',(#479,#480,#481,#482));
#97=EDGE_LOOP('',(#483,#484,#485,#486));
#98=EDGE_LOOP('',(#487,#488,#489,#490));
#99=EDGE_LOOP('',(#491,#492,#493,#494));
#100=EDGE_LOOP('',(#495,#496,#497,#498));
#101=EDGE_LOOP('',(#499,#500,#501,#502));
#102=LINE('',#754,#157);
#103=LINE('',#757,#158);
#104=LINE('',#763,#159);
#105=LINE('',#766,#160);
#106=LINE('',#770,#161);
#107=LINE('',#774,#162);
#108=LINE('',#780,#163);
#109=LINE('',#785,#164);
#110=LINE('',#789,#165);
#111=LINE('',#796,#166);
#112=LINE('',#799,#167);
#113=LINE('',#804,#168);
#114=LINE('',#809,#169);
#115=LINE('',#817,#170);
#116=LINE('',#820,#171);
#117=LINE('',#824,#172);
#118=LINE('',#828,#173);
#119=LINE('',#831,#174);
#120=LINE('',#832,#175);
#121=LINE('',#833,#176);
#122=LINE('',#834,#177);
#123=LINE('',#835,#178);
#124=LINE('',#836,#179);
#125=LINE('',#837,#180);
#126=LINE('',#839,#181);
#127=LINE('',#841,#182);
#128=LINE('',#843,#183);
#129=LINE('',#847,#184);
#130=LINE('',#849,#185);
#131=LINE('',#851,#186);
#132=LINE('',#852,#187);
#133=LINE('',#854,#188);
#134=LINE('',#856,#189);
#135=LINE('',#858,#190);
#136=LINE('',#859,#191);
#137=LINE('',#861,#192);
#138=LINE('',#863,#193);
#139=LINE('',#865,#194);
#140=LINE('',#867,#195);
#141=LINE('',#869,#196);
#142=LINE('',#870,#197);
#143=LINE('',#871,#198);
#144=LINE('',#875,#199);
#145=LINE('',#877,#200);
#146=LINE('',#878,#201);
#147=LINE('',#880,#202);
#148=LINE('',#882,#203);
#149=LINE('',#883,#204);
#150=LINE('',#886,#205);
#151=LINE('',#888,#206);
#152=LINE('',#892,#207);
#153=LINE('',#894,#208);
#154=LINE('',#895,#209);
#155=LINE('',#897,#210);
#156=LINE('',#899,#211);
#157=VECTOR('',#603,10.);
#158=VECTOR('',#606,10.);
#159=VECTOR('',#611,10.);
#160=VECTOR('',#614,10.);
#161=VECTOR('',#617,10.);
#162=VECTOR('',#620,10.);
#163=VECTOR('',#627,10.);
#164=VECTOR('',#632,10.);
#165=VECTOR('',#635,10.);
#166=VECTOR('',#642,10.);
#167=VECTOR('',#645,10.);
#168=VECTOR('',#650,10.);
#169=VECTOR('',#655,10.);
#170=VECTOR('',#664,10.);
#171=VECTOR('',#667,10.);
#172=VECTOR('',#670,10.);
#173=VECTOR('',#673,10.);
#174=VECTOR('',#678,10.);
#175=VECTOR('',#679,10.);
#176=VECTOR('',#680,10.);
#177=VECTOR('',#681,10.);
#178=VECTOR('',#682,10.);
#179=VECTOR('',#683,10.);
#180=VECTOR('',#684,10.);
#181=VECTOR('',#687,10.);
#182=VECTOR('',#690,10.);
#183=VECTOR('',#693,10.);
#184=VECTOR('',#696,10.);
#185=VECTOR('',#697,10.);
#186=VECTOR('',#698,10.);
#187=VECTOR('',#699,10.);
#188=VECTOR('',#702,10.);
#189=VECTOR('',#705,10.);
#190=VECTOR('',#706,10.);
#191=VECTOR('',#707,10.);
#192=VECTOR('',#708,10.);
#193=VECTOR('',#709,10.);
#194=VECTOR('',#710,10.);
#195=VECTOR('',#711,10.);
#196=VECTOR('',#712,10.);
#197=VECTOR('',#713,10.);
#198=VECTOR('',#714,10.);
#199=VECTOR('',#719,10.);
#200=VECTOR('',#720,10.);
#201=VECTOR('',#721,10.);
#202=VECTOR('',#722,10.);
#203=VECTOR('',#723,10.);
#204=VECTOR('',#724,10.);
#205=VECTOR('',#729,10.);
#206=VECTOR('',#732,10.);
#207=VECTOR('',#737,10.);
#208=VECTOR('',#738,10.);
#209=VECTOR('',#739,10.);
#210=VECTOR('',#742,10.);
#211=VECTOR('',#745,10.);
#212=ELLIPSE('',#551,0.0150045926452231,0.0150000228352444);
#213=ELLIPSE('',#552,0.0150045926452231,0.0150000228352444);
#214=ELLIPSE('',#554,0.0150045703619217,0.0150000005455621);
#215=ELLIPSE('',#555,0.0150045703619217,0.0150000005455621);
#216=ELLIPSE('',#557,0.0160039043871374,0.0159990282058404);
#217=ELLIPSE('',#558,0.0160039043871374,0.0159990282058404);
#218=ELLIPSE('',#563,0.0201198791762612,0.0201165101047682);
#219=ELLIPSE('',#564,0.0201559112478119,0.0201525361427526);
#220=ELLIPSE('',#566,0.0201198791762516,0.0201165101047585);
#221=ELLIPSE('',#567,0.0201559112478071,0.0201525361427477);
#222=ELLIPSE('',#572,0.0150045773631005,0.0150000075045216);
#223=ELLIPSE('',#573,0.0150045773631005,0.0150000075045216);
#224=ELLIPSE('',#575,0.0150027317244814,0.0150000923022327);
#225=ELLIPSE('',#576,0.0150027317244814,0.0150000923022327);
#226=ELLIPSE('',#578,0.01500256415469,0.0149999247619218);
#227=ELLIPSE('',#579,0.01500256415469,0.0149999247619218);
#228=VERTEX_POINT('',#750);
#229=VERTEX_POINT('',#751);
#230=VERTEX_POINT('',#753);
#231=VERTEX_POINT('',#755);
#232=VERTEX_POINT('',#759);
#233=VERTEX_POINT('',#760);
#234=VERTEX_POINT('',#762);
#235=VERTEX_POINT('',#764);
#236=VERTEX_POINT('',#768);
#237=VERTEX_POINT('',#769);
#238=VERTEX_POINT('',#771);
#239=VERTEX_POINT('',#773);
#240=VERTEX_POINT('',#777);
#241=VERTEX_POINT('',#779);
#242=VERTEX_POINT('',#783);
#243=VERTEX_POINT('',#784);
#244=VERTEX_POINT('',#786);
#245=VERTEX_POINT('',#788);
#246=VERTEX_POINT('',#792);
#247=VERTEX_POINT('',#793);
#248=VERTEX_POINT('',#795);
#249=VERTEX_POINT('',#797);
#250=VERTEX_POINT('',#801);
#251=VERTEX_POINT('',#803);
#252=VERTEX_POINT('',#807);
#253=VERTEX_POINT('',#808);
#254=VERTEX_POINT('',#813);
#255=VERTEX_POINT('',#814);
#256=VERTEX_POINT('',#816);
#257=VERTEX_POINT('',#818);
#258=VERTEX_POINT('',#822);
#259=VERTEX_POINT('',#823);
#260=VERTEX_POINT('',#825);
#261=VERTEX_POINT('',#827);
#262=VERTEX_POINT('',#845);
#263=VERTEX_POINT('',#846);
#264=VERTEX_POINT('',#848);
#265=VERTEX_POINT('',#850);
#266=VERTEX_POINT('',#857);
#267=VERTEX_POINT('',#860);
#268=VERTEX_POINT('',#862);
#269=VERTEX_POINT('',#864);
#270=VERTEX_POINT('',#866);
#271=VERTEX_POINT('',#868);
#272=VERTEX_POINT('',#874);
#273=VERTEX_POINT('',#876);
#274=VERTEX_POINT('',#879);
#275=VERTEX_POINT('',#881);
#276=VERTEX_POINT('',#891);
#277=VERTEX_POINT('',#893);
#278=EDGE_CURVE('',#228,#229,#212,.T.);
#279=EDGE_CURVE('',#230,#228,#102,.T.);
#280=EDGE_CURVE('',#231,#230,#213,.T.);
#281=EDGE_CURVE('',#229,#231,#103,.T.);
#282=EDGE_CURVE('',#232,#233,#214,.T.);
#283=EDGE_CURVE('',#234,#232,#104,.T.);
#284=EDGE_CURVE('',#235,#234,#215,.T.);
#285=EDGE_CURVE('',#233,#235,#105,.T.);
#286=EDGE_CURVE('',#236,#237,#106,.T.);
#287=EDGE_CURVE('',#238,#236,#216,.T.);
#288=EDGE_CURVE('',#239,#238,#107,.T.);
#289=EDGE_CURVE('',#237,#239,#217,.T.);
#290=EDGE_CURVE('',#240,#240,#36,.T.);
#291=EDGE_CURVE('',#240,#241,#108,.T.);
#292=EDGE_CURVE('',#241,#241,#37,.T.);
#293=EDGE_CURVE('',#242,#243,#109,.T.);
#294=EDGE_CURVE('',#244,#242,#218,.T.);
#295=EDGE_CURVE('',#245,#244,#110,.T.);
#296=EDGE_CURVE('',#243,#245,#219,.T.);
#297=EDGE_CURVE('',#246,#247,#220,.T.);
#298=EDGE_CURVE('',#248,#246,#111,.T.);
#299=EDGE_CURVE('',#249,#248,#221,.T.);
#300=EDGE_CURVE('',#247,#249,#112,.T.);
#301=EDGE_CURVE('',#250,#250,#38,.T.);
#302=EDGE_CURVE('',#250,#251,#113,.T.);
#303=EDGE_CURVE('',#251,#251,#39,.T.);
#304=EDGE_CURVE('',#252,#253,#114,.T.);
#305=EDGE_CURVE('',#236,#252,#222,.T.);
#306=EDGE_CURVE('',#253,#237,#223,.T.);
#307=EDGE_CURVE('',#254,#255,#224,.T.);
#308=EDGE_CURVE('',#256,#254,#115,.T.);
#309=EDGE_CURVE('',#257,#256,#225,.T.);
#310=EDGE_CURVE('',#255,#257,#116,.T.);
#311=EDGE_CURVE('',#258,#259,#117,.T.);
#312=EDGE_CURVE('',#260,#258,#226,.T.);
#313=EDGE_CURVE('',#261,#260,#118,.T.);
#314=EDGE_CURVE('',#259,#261,#227,.T.);
#315=EDGE_CURVE('',#235,#245,#119,.T.);
#316=EDGE_CURVE('',#231,#234,#120,.T.);
#317=EDGE_CURVE('',#253,#230,#121,.T.);
#318=EDGE_CURVE('',#249,#239,#122,.T.);
#319=EDGE_CURVE('',#260,#248,#123,.T.);
#320=EDGE_CURVE('',#254,#258,#124,.T.);
#321=EDGE_CURVE('',#243,#255,#125,.T.);
#322=EDGE_CURVE('',#252,#228,#126,.T.);
#323=EDGE_CURVE('',#229,#232,#127,.T.);
#324=EDGE_CURVE('',#233,#244,#128,.T.);
#325=EDGE_CURVE('',#262,#263,#129,.T.);
#326=EDGE_CURVE('',#264,#262,#130,.T.);
#327=EDGE_CURVE('',#265,#264,#131,.T.);
#328=EDGE_CURVE('',#263,#265,#132,.T.);
#329=EDGE_CURVE('',#247,#238,#133,.T.);
#330=EDGE_CURVE('',#257,#242,#134,.T.);
#331=EDGE_CURVE('',#266,#256,#135,.T.);
#332=EDGE_CURVE('',#263,#266,#136,.T.);
#333=EDGE_CURVE('',#267,#265,#137,.T.);
#334=EDGE_CURVE('',#268,#267,#138,.T.);
#335=EDGE_CURVE('',#269,#268,#139,.T.);
#336=EDGE_CURVE('',#270,#269,#140,.T.);
#337=EDGE_CURVE('',#271,#270,#141,.T.);
#338=EDGE_CURVE('',#259,#271,#142,.T.);
#339=EDGE_CURVE('',#246,#261,#143,.T.);
#340=EDGE_CURVE('',#272,#271,#144,.T.);
#341=EDGE_CURVE('',#273,#272,#145,.T.);
#342=EDGE_CURVE('',#268,#273,#146,.T.);
#343=EDGE_CURVE('',#274,#267,#147,.T.);
#344=EDGE_CURVE('',#275,#274,#148,.T.);
#345=EDGE_CURVE('',#266,#275,#149,.T.);
#346=EDGE_CURVE('',#274,#264,#150,.T.);
#347=EDGE_CURVE('',#262,#275,#151,.T.);
#348=EDGE_CURVE('',#276,#269,#152,.T.);
#349=EDGE_CURVE('',#277,#276,#153,.T.);
#350=EDGE_CURVE('',#270,#277,#154,.T.);
#351=EDGE_CURVE('',#272,#277,#155,.T.);
#352=EDGE_CURVE('',#276,#273,#156,.T.);
#353=ORIENTED_EDGE('',*,*,#278,.F.);
#354=ORIENTED_EDGE('',*,*,#279,.F.);
#355=ORIENTED_EDGE('',*,*,#280,.F.);
#356=ORIENTED_EDGE('',*,*,#281,.F.);
#357=ORIENTED_EDGE('',*,*,#282,.F.);
#358=ORIENTED_EDGE('',*,*,#283,.F.);
#359=ORIENTED_EDGE('',*,*,#284,.F.);
#360=ORIENTED_EDGE('',*,*,#285,.F.);
#361=ORIENTED_EDGE('',*,*,#286,.F.);
#362=ORIENTED_EDGE('',*,*,#287,.F.);
#363=ORIENTED_EDGE('',*,*,#288,.F.);
#364=ORIENTED_EDGE('',*,*,#289,.F.);
#365=ORIENTED_EDGE('',*,*,#290,.F.);
#366=ORIENTED_EDGE('',*,*,#291,.T.);
#367=ORIENTED_EDGE('',*,*,#292,.F.);
#368=ORIENTED_EDGE('',*,*,#291,.F.);
#369=ORIENTED_EDGE('',*,*,#293,.F.);
#370=ORIENTED_EDGE('',*,*,#294,.F.);
#371=ORIENTED_EDGE('',*,*,#295,.F.);
#372=ORIENTED_EDGE('',*,*,#296,.F.);
#373=ORIENTED_EDGE('',*,*,#297,.F.);
#374=ORIENTED_EDGE('',*,*,#298,.F.);
#375=ORIENTED_EDGE('',*,*,#299,.F.);
#376=ORIENTED_EDGE('',*,*,#300,.F.);
#377=ORIENTED_EDGE('',*,*,#301,.F.);
#378=ORIENTED_EDGE('',*,*,#302,.T.);
#379=ORIENTED_EDGE('',*,*,#303,.F.);
#380=ORIENTED_EDGE('',*,*,#302,.F.);
#381=ORIENTED_EDGE('',*,*,#304,.F.);
#382=ORIENTED_EDGE('',*,*,#305,.F.);
#383=ORIENTED_EDGE('',*,*,#286,.T.);
#384=ORIENTED_EDGE('',*,*,#306,.F.);
#385=ORIENTED_EDGE('',*,*,#307,.F.);
#386=ORIENTED_EDGE('',*,*,#308,.F.);
#387=ORIENTED_EDGE('',*,*,#309,.F.);
#388=ORIENTED_EDGE('',*,*,#310,.F.);
#389=ORIENTED_EDGE('',*,*,#311,.F.);
#390=ORIENTED_EDGE('',*,*,#312,.F.);
#391=ORIENTED_EDGE('',*,*,#313,.F.);
#392=ORIENTED_EDGE('',*,*,#314,.F.);
#393=ORIENTED_EDGE('',*,*,#315,.F.);
#394=ORIENTED_EDGE('',*,*,#284,.T.);
#395=ORIENTED_EDGE('',*,*,#316,.F.);
#396=ORIENTED_EDGE('',*,*,#280,.T.);
#397=ORIENTED_EDGE('',*,*,#317,.F.);
#398=ORIENTED_EDGE('',*,*,#306,.T.);
#399=ORIENTED_EDGE('',*,*,#289,.T.);
#400=ORIENTED_EDGE('',*,*,#318,.F.);
#401=ORIENTED_EDGE('',*,*,#299,.T.);
#402=ORIENTED_EDGE('',*,*,#319,.F.);
#403=ORIENTED_EDGE('',*,*,#312,.T.);
#404=ORIENTED_EDGE('',*,*,#320,.F.);
#405=ORIENTED_EDGE('',*,*,#307,.T.);
#406=ORIENTED_EDGE('',*,*,#321,.F.);
#407=ORIENTED_EDGE('',*,*,#296,.T.);
#408=ORIENTED_EDGE('',*,*,#292,.T.);
#409=ORIENTED_EDGE('',*,*,#303,.T.);
#410=ORIENTED_EDGE('',*,*,#322,.F.);
#411=ORIENTED_EDGE('',*,*,#304,.T.);
#412=ORIENTED_EDGE('',*,*,#317,.T.);
#413=ORIENTED_EDGE('',*,*,#279,.T.);
#414=ORIENTED_EDGE('',*,*,#323,.F.);
#415=ORIENTED_EDGE('',*,*,#281,.T.);
#416=ORIENTED_EDGE('',*,*,#316,.T.);
#417=ORIENTED_EDGE('',*,*,#283,.T.);
#418=ORIENTED_EDGE('',*,*,#324,.F.);
#419=ORIENTED_EDGE('',*,*,#285,.T.);
#420=ORIENTED_EDGE('',*,*,#315,.T.);
#421=ORIENTED_EDGE('',*,*,#295,.T.);
#422=ORIENTED_EDGE('',*,*,#325,.F.);
#423=ORIENTED_EDGE('',*,*,#326,.F.);
#424=ORIENTED_EDGE('',*,*,#327,.F.);
#425=ORIENTED_EDGE('',*,*,#328,.F.);
#426=ORIENTED_EDGE('',*,*,#288,.T.);
#427=ORIENTED_EDGE('',*,*,#329,.F.);
#428=ORIENTED_EDGE('',*,*,#300,.T.);
#429=ORIENTED_EDGE('',*,*,#318,.T.);
#430=ORIENTED_EDGE('',*,*,#330,.F.);
#431=ORIENTED_EDGE('',*,*,#309,.T.);
#432=ORIENTED_EDGE('',*,*,#331,.F.);
#433=ORIENTED_EDGE('',*,*,#332,.F.);
#434=ORIENTED_EDGE('',*,*,#328,.T.);
#435=ORIENTED_EDGE('',*,*,#333,.F.);
#436=ORIENTED_EDGE('',*,*,#334,.F.);
#437=ORIENTED_EDGE('',*,*,#335,.F.);
#438=ORIENTED_EDGE('',*,*,#336,.F.);
#439=ORIENTED_EDGE('',*,*,#337,.F.);
#440=ORIENTED_EDGE('',*,*,#338,.F.);
#441=ORIENTED_EDGE('',*,*,#314,.T.);
#442=ORIENTED_EDGE('',*,*,#339,.F.);
#443=ORIENTED_EDGE('',*,*,#297,.T.);
#444=ORIENTED_EDGE('',*,*,#329,.T.);
#445=ORIENTED_EDGE('',*,*,#287,.T.);
#446=ORIENTED_EDGE('',*,*,#305,.T.);
#447=ORIENTED_EDGE('',*,*,#322,.T.);
#448=ORIENTED_EDGE('',*,*,#278,.T.);
#449=ORIENTED_EDGE('',*,*,#323,.T.);
#450=ORIENTED_EDGE('',*,*,#282,.T.);
#451=ORIENTED_EDGE('',*,*,#324,.T.);
#452=ORIENTED_EDGE('',*,*,#294,.T.);
#453=ORIENTED_EDGE('',*,*,#290,.T.);
#454=ORIENTED_EDGE('',*,*,#301,.T.);
#455=ORIENTED_EDGE('',*,*,#313,.T.);
#456=ORIENTED_EDGE('',*,*,#319,.T.);
#457=ORIENTED_EDGE('',*,*,#298,.T.);
#458=ORIENTED_EDGE('',*,*,#339,.T.);
#459=ORIENTED_EDGE('',*,*,#320,.T.);
#460=ORIENTED_EDGE('',*,*,#311,.T.);
#461=ORIENTED_EDGE('',*,*,#338,.T.);
#462=ORIENTED_EDGE('',*,*,#340,.F.);
#463=ORIENTED_EDGE('',*,*,#341,.F.);
#464=ORIENTED_EDGE('',*,*,#342,.F.);
#465=ORIENTED_EDGE('',*,*,#334,.T.);
#466=ORIENTED_EDGE('',*,*,#343,.F.);
#467=ORIENTED_EDGE('',*,*,#344,.F.);
#468=ORIENTED_EDGE('',*,*,#345,.F.);
#469=ORIENTED_EDGE('',*,*,#331,.T.);
#470=ORIENTED_EDGE('',*,*,#308,.T.);
#471=ORIENTED_EDGE('',*,*,#321,.T.);
#472=ORIENTED_EDGE('',*,*,#310,.T.);
#473=ORIENTED_EDGE('',*,*,#330,.T.);
#474=ORIENTED_EDGE('',*,*,#293,.T.);
#475=ORIENTED_EDGE('',*,*,#343,.T.);
#476=ORIENTED_EDGE('',*,*,#333,.T.);
#477=ORIENTED_EDGE('',*,*,#327,.T.);
#478=ORIENTED_EDGE('',*,*,#346,.F.);
#479=ORIENTED_EDGE('',*,*,#345,.T.);
#480=ORIENTED_EDGE('',*,*,#347,.F.);
#481=ORIENTED_EDGE('',*,*,#325,.T.);
#482=ORIENTED_EDGE('',*,*,#332,.T.);
#483=ORIENTED_EDGE('',*,*,#344,.T.);
#484=ORIENTED_EDGE('',*,*,#346,.T.);
#485=ORIENTED_EDGE('',*,*,#326,.T.);
#486=ORIENTED_EDGE('',*,*,#347,.T.);
#487=ORIENTED_EDGE('',*,*,#348,.F.);
#488=ORIENTED_EDGE('',*,*,#349,.F.);
#489=ORIENTED_EDGE('',*,*,#350,.F.);
#490=ORIENTED_EDGE('',*,*,#336,.T.);
#491=ORIENTED_EDGE('',*,*,#340,.T.);
#492=ORIENTED_EDGE('',*,*,#337,.T.);
#493=ORIENTED_EDGE('',*,*,#350,.T.);
#494=ORIENTED_EDGE('',*,*,#351,.F.);
#495=ORIENTED_EDGE('',*,*,#342,.T.);
#496=ORIENTED_EDGE('',*,*,#352,.F.);
#497=ORIENTED_EDGE('',*,*,#348,.T.);
#498=ORIENTED_EDGE('',*,*,#335,.T.);
#499=ORIENTED_EDGE('',*,*,#341,.T.);
#500=ORIENTED_EDGE('',*,*,#351,.T.);
#501=ORIENTED_EDGE('',*,*,#349,.T.);
#502=ORIENTED_EDGE('',*,*,#352,.T.);
#503=CYLINDRICAL_SURFACE('',#550,0.0150000228352444);
#504=CYLINDRICAL_SURFACE('',#553,0.0150000005455621);
#505=CYLINDRICAL_SURFACE('',#556,0.0159990282058404);
#506=CYLINDRICAL_SURFACE('',#571,0.0150000075045216);
#507=CYLINDRICAL_SURFACE('',#574,0.0150000923022327);
#508=CYLINDRICAL_SURFACE('',#577,0.0149999247619218);
#509=ADVANCED_FACE('',(#44),#503,.F.);
#510=ADVANCED_FACE('',(#45),#504,.T.);
#511=ADVANCED_FACE('',(#46),#505,.T.);
#512=ADVANCED_FACE('',(#47),#40,.F.);
#513=ADVANCED_FACE('',(#48),#41,.T.);
#514=ADVANCED_FACE('',(#49),#42,.T.);
#515=ADVANCED_FACE('',(#50),#43,.F.);
#516=ADVANCED_FACE('',(#51),#506,.F.);
#517=ADVANCED_FACE('',(#52),#507,.T.);
#518=ADVANCED_FACE('',(#53),#508,.T.);
#519=ADVANCED_FACE('',(#54,#15,#16),#19,.T.);
#520=ADVANCED_FACE('',(#55),#20,.T.);
#521=ADVANCED_FACE('',(#56),#21,.F.);
#522=ADVANCED_FACE('',(#57),#22,.F.);
#523=ADVANCED_FACE('',(#58),#23,.T.);
#524=ADVANCED_FACE('',(#59),#24,.F.);
#525=ADVANCED_FACE('',(#60,#17,#18),#25,.F.);
#526=ADVANCED_FACE('',(#61),#26,.T.);
#527=ADVANCED_FACE('',(#62),#27,.F.);
#528=ADVANCED_FACE('',(#63),#28,.T.);
#529=ADVANCED_FACE('',(#64),#29,.F.);
#530=ADVANCED_FACE('',(#65),#30,.T.);
#531=ADVANCED_FACE('',(#66),#31,.F.);
#532=ADVANCED_FACE('',(#67),#32,.T.);
#533=ADVANCED_FACE('',(#68),#33,.F.);
#534=ADVANCED_FACE('',(#69),#34,.T.);
#535=ADVANCED_FACE('',(#70),#35,.F.);
#536=CLOSED_SHELL('',(#509,#510,#511,#512,#513,#514,#515,#516,#517,#518,
#519,#520,#521,#522,#523,#524,#525,#526,#527,#528,#529,#530,#531,#532,#533,
#534,#535));
#537=DERIVED_UNIT_ELEMENT(#539,1.);
#538=DERIVED_UNIT_ELEMENT(#906,-3.);
#539=(
MASS_UNIT()
NAMED_UNIT(*)
SI_UNIT(.KILO.,.GRAM.)
);
#540=DERIVED_UNIT((#537,#538));
#541=MEASURE_REPRESENTATION_ITEM('density measure',
POSITIVE_RATIO_MEASURE(7850.),#540);
#542=PROPERTY_DEFINITION_REPRESENTATION(#547,#544);
#543=PROPERTY_DEFINITION_REPRESENTATION(#548,#545);
#544=REPRESENTATION('material name',(#546),#903);
#545=REPRESENTATION('density',(#541),#903);
#546=DESCRIPTIVE_REPRESENTATION_ITEM('Steel','Steel');
#547=PROPERTY_DEFINITION('material property','material name',#913);
#548=PROPERTY_DEFINITION('material property','density of part',#913);
#549=AXIS2_PLACEMENT_3D('',#748,#597,#598);
#550=AXIS2_PLACEMENT_3D('',#749,#599,#600);
#551=AXIS2_PLACEMENT_3D('',#752,#601,#602);
#552=AXIS2_PLACEMENT_3D('',#756,#604,#605);
#553=AXIS2_PLACEMENT_3D('',#758,#607,#608);
#554=AXIS2_PLACEMENT_3D('',#761,#609,#610);
#555=AXIS2_PLACEMENT_3D('',#765,#612,#613);
#556=AXIS2_PLACEMENT_3D('',#767,#615,#616);
#557=AXIS2_PLACEMENT_3D('',#772,#618,#619);
#558=AXIS2_PLACEMENT_3D('',#775,#621,#622);
#559=AXIS2_PLACEMENT_3D('',#776,#623,#624);
#560=AXIS2_PLACEMENT_3D('',#778,#625,#626);
#561=AXIS2_PLACEMENT_3D('',#781,#628,#629);
#562=AXIS2_PLACEMENT_3D('',#782,#630,#631);
#563=AXIS2_PLACEMENT_3D('',#787,#633,#634);
#564=AXIS2_PLACEMENT_3D('',#790,#636,#637);
#565=AXIS2_PLACEMENT_3D('',#791,#638,#639);
#566=AXIS2_PLACEMENT_3D('',#794,#640,#641);
#567=AXIS2_PLACEMENT_3D('',#798,#643,#644);
#568=AXIS2_PLACEMENT_3D('',#800,#646,#647);
#569=AXIS2_PLACEMENT_3D('',#802,#648,#649);
#570=AXIS2_PLACEMENT_3D('',#805,#651,#652);
#571=AXIS2_PLACEMENT_3D('',#806,#653,#654);
#572=AXIS2_PLACEMENT_3D('',#810,#656,#657);
#573=AXIS2_PLACEMENT_3D('',#811,#658,#659);
#574=AXIS2_PLACEMENT_3D('',#812,#660,#661);
#575=AXIS2_PLACEMENT_3D('',#815,#662,#663);
#576=AXIS2_PLACEMENT_3D('',#819,#665,#666);
#577=AXIS2_PLACEMENT_3D('',#821,#668,#669);
#578=AXIS2_PLACEMENT_3D('',#826,#671,#672);
#579=AXIS2_PLACEMENT_3D('',#829,#674,#675);
#580=AXIS2_PLACEMENT_3D('',#830,#676,#677);
#581=AXIS2_PLACEMENT_3D('',#838,#685,#686);
#582=AXIS2_PLACEMENT_3D('',#840,#688,#689);
#583=AXIS2_PLACEMENT_3D('',#842,#691,#692);
#584=AXIS2_PLACEMENT_3D('',#844,#694,#695);
#585=AXIS2_PLACEMENT_3D('',#853,#700,#701);
#586=AXIS2_PLACEMENT_3D('',#855,#703,#704);
#587=AXIS2_PLACEMENT_3D('',#872,#715,#716);
#588=AXIS2_PLACEMENT_3D('',#873,#717,#718);
#589=AXIS2_PLACEMENT_3D('',#884,#725,#726);
#590=AXIS2_PLACEMENT_3D('',#885,#727,#728);
#591=AXIS2_PLACEMENT_3D('',#887,#730,#731);
#592=AXIS2_PLACEMENT_3D('',#889,#733,#734);
#593=AXIS2_PLACEMENT_3D('',#890,#735,#736);
#594=AXIS2_PLACEMENT_3D('',#896,#740,#741);
#595=AXIS2_PLACEMENT_3D('',#898,#743,#744);
#596=AXIS2_PLACEMENT_3D('',#900,#746,#747);
#597=DIRECTION('axis',(0.,0.,1.));
#598=DIRECTION('refdir',(1.,0.,0.));
#599=DIRECTION('center_axis',(-0.0174494321508462,-0.999695439250718,-0.0174512480621583));
#600=DIRECTION('ref_axis',(0.,-0.0174539054704353,0.999847668989546));
#601=DIRECTION('center_axis',(0.,1.,0.));
#602=DIRECTION('ref_axis',(0.707069988877854,0.,0.707143571580956));
#603=DIRECTION('',(-0.0175244190975682,-0.999694277093159,-0.0174426799110676));
#604=DIRECTION('center_axis',(0.,-1.,0.));
#605=DIRECTION('ref_axis',(0.707069988877854,0.,0.707143571580956));
#606=DIRECTION('',(0.0174517562550106,0.999695701184376,0.017433910550838));
#607=DIRECTION('center_axis',(0.0174494544845091,0.999695438373153,0.0174512760021382));
#608=DIRECTION('ref_axis',(0.,0.0174539334214739,-0.999847668501617));
#609=DIRECTION('center_axis',(0.,-1.,0.));
#610=DIRECTION('ref_axis',(-0.707069875337821,0.,-0.707143685109157));
#611=DIRECTION('',(-0.0174517488283384,-0.999695696965717,-0.0174341598897769));
#612=DIRECTION('center_axis',(0.,1.,0.));
#613=DIRECTION('ref_axis',(-0.707069875337821,0.,-0.707143685109157));
#614=DIRECTION('',(0.0174625100383812,0.999695236376824,0.0174497882120444));
#615=DIRECTION('center_axis',(0.0174473070486225,-0.999695313019934,-0.0174606014423452));
#616=DIRECTION('ref_axis',(0.,-0.0174632596271912,0.999847505654334));
#617=DIRECTION('',(-0.0174496617527886,0.999695435701494,0.0174512218000328));
#618=DIRECTION('center_axis',(0.,-1.,0.));
#619=DIRECTION('ref_axis',(-0.706837434046119,0.,0.707376025767836));
#620=DIRECTION('',(0.0174928387849682,-0.999694685725495,-0.017450957665601));
#621=DIRECTION('center_axis',(0.,1.,0.));
#622=DIRECTION('ref_axis',(-0.706837434046119,0.,0.707376025767836));
#623=DIRECTION('center_axis',(-0.00010030495841108,-0.999999339082561,0.00114532674648395));
#624=DIRECTION('ref_axis',(0.,-0.00114532675224556,-0.9999993441131));
#625=DIRECTION('center_axis',(0.,1.,0.));
#626=DIRECTION('ref_axis',(0.0872436672817594,0.,-0.996187001781909));
#627=DIRECTION('',(0.000100289945380898,0.99982985000093,-0.0184461646161124));
#628=DIRECTION('center_axis',(0.,-1.,0.));
#629=DIRECTION('ref_axis',(0.0872436631925995,0.,-0.996187002140028));
#630=DIRECTION('center_axis',(-0.0170260257981145,0.999832551078732,0.00670702981328455));
#631=DIRECTION('ref_axis',(-0.930251977129427,-0.0182994481706486,0.366464717596991));
#632=DIRECTION('',(-0.0119027900660425,0.999847704318876,-0.0127629055045258));
#633=DIRECTION('center_axis',(0.,-1.,0.));
#634=DIRECTION('ref_axis',(0.930411979548061,0.,-0.366515413473239));
#635=DIRECTION('',(-1.2523955993575E-5,-0.999847475863756,-0.0174649606935106));
#636=DIRECTION('center_axis',(0.,1.,0.));
#637=DIRECTION('ref_axis',(0.930411979547788,0.,-0.36651541347393));
#638=DIRECTION('center_axis',(0.0170260257980133,0.999832551078734,0.00670702981323529));
#639=DIRECTION('ref_axis',(0.930252261012902,-0.0182994481706935,0.366463996972461));
#640=DIRECTION('center_axis',(0.,-1.,0.));
#641=DIRECTION('ref_axis',(0.930411979534037,0.,0.366515413508838));
#642=DIRECTION('',(-0.0119027900660425,-0.999847704318876,0.0127629055045258));
#643=DIRECTION('center_axis',(0.,1.,0.));
#644=DIRECTION('ref_axis',(0.930411979540236,0.,0.366515413493102));
#645=DIRECTION('',(-7.80798656364326E-6,0.99984753730559,0.0174614456154886));
#646=DIRECTION('center_axis',(-0.000100058821509323,-0.999999339107218,
0.00114532674772566));
#647=DIRECTION('ref_axis',(0.,-0.00114532675345903,-0.999999344113099));
#648=DIRECTION('center_axis',(0.,1.,0.));
#649=DIRECTION('ref_axis',(0.0870311958639655,0.,-0.996205586687049));
#650=DIRECTION('',(0.000100043845319446,0.999829850026037,-0.0184461645916477));
#651=DIRECTION('center_axis',(0.,-1.,0.));
#652=DIRECTION('ref_axis',(0.0870311881890752,0.,-0.996205587357548));
#653=DIRECTION('center_axis',(0.0174496617527886,-0.999695435701494,-0.0174512218000328));
#654=DIRECTION('ref_axis',(0.705027475066445,0.0246785688168508,-0.708750469236237));
#655=DIRECTION('',(1.90370745240009E-5,0.999847484895993,0.0174644377163061));
#656=DIRECTION('center_axis',(0.,1.,0.));
#657=DIRECTION('ref_axis',(-0.707075173257795,0.,0.707138387702477));
#658=DIRECTION('center_axis',(0.,-1.,0.));
#659=DIRECTION('ref_axis',(-0.707075173257795,0.,0.707138387702477));
#660=DIRECTION('center_axis',(0.0068742312070501,-0.999824070556143,0.0174520165556005));
#661=DIRECTION('ref_axis',(-0.681930903268265,-0.0174518815109913,-0.73120836633579));
#662=DIRECTION('center_axis',(0.,1.,0.));
#663=DIRECTION('ref_axis',(-0.366487337936383,0.,-0.930423038801331));
#664=DIRECTION('',(-0.0068742312070501,0.999824070556143,-0.0174520165556005));
#665=DIRECTION('center_axis',(0.,-1.,0.));
#666=DIRECTION('ref_axis',(-0.366487337936383,0.,-0.930423038801331));
#667=DIRECTION('',(0.0068742312070501,-0.999824070556143,0.0174520165556005));
#668=DIRECTION('center_axis',(-0.0068742312070501,-0.999824070556143,0.0174520165556005));
#669=DIRECTION('ref_axis',(0.,-0.0174524289182125,-0.999847694763985));
#670=DIRECTION('',(-0.0068742312070501,-0.999824070556143,0.0174520165556005));
#671=DIRECTION('center_axis',(0.,1.,0.));
#672=DIRECTION('ref_axis',(0.366487337936723,0.,-0.930423038801197));
#673=DIRECTION('',(0.0068742312070501,0.999824070556143,-0.0174520165556005));
#674=DIRECTION('center_axis',(0.,-1.,0.));
#675=DIRECTION('ref_axis',(0.366487337936723,0.,-0.930423038801197));
#676=DIRECTION('center_axis',(0.,1.,0.));
#677=DIRECTION('ref_axis',(0.,0.,1.));
#678=DIRECTION('',(-0.999999742890764,0.,0.000717090235319208));
#679=DIRECTION('',(-0.0294685853731616,0.,0.999565706932818));
#680=DIRECTION('',(-0.999999405898263,0.,0.00109004730202493));
#681=DIRECTION('',(-0.999999900025863,0.,-0.000447155748440479));
#682=DIRECTION('',(0.731319743174197,0.,0.682034774218754));
#683=DIRECTION('',(1.,0.,-2.05986867703716E-20));
#684=DIRECTION('',(0.731319743174197,0.,-0.682034774218754));
#685=DIRECTION('center_axis',(0.00108988105334729,-0.017464448091965,0.999846890884866));
#686=DIRECTION('ref_axis',(0.999999405898263,0.,-0.00109004730202493));
#687=DIRECTION('',(-0.999999405898263,0.,0.00109004730202493));
#688=DIRECTION('center_axis',(-0.999404474223833,0.0179604984544586,-0.0294638320089588));
#689=DIRECTION('ref_axis',(-0.0294685853731616,0.,0.999565706932818));
#690=DIRECTION('',(-0.0294685853731616,0.,0.999565706932818));
#691=DIRECTION('center_axis',(-0.000716980861750457,0.0174649651839144,
-0.999847218793736));
#692=DIRECTION('ref_axis',(-0.999999742890764,0.,0.000717090235319208));
#693=DIRECTION('',(-0.999999742890764,0.,0.000717090235319208));
#694=DIRECTION('center_axis',(1.52950230044558E-24,-0.0174527431841058,
0.999847689278397));
#695=DIRECTION('ref_axis',(1.,0.,-1.5297352955323E-24));
#696=DIRECTION('',(-0.0174500857537078,0.999695448131268,0.0174500857537077));
#697=DIRECTION('',(-1.,0.,1.5297352955323E-24));
#698=DIRECTION('',(-0.0174492764017324,-0.999695462254201,-0.0174500860002292));
#699=DIRECTION('',(1.,0.,-1.5297352955323E-24));
#700=DIRECTION('center_axis',(0.000447087573870251,0.0174614473611818,-0.999847437346695));
#701=DIRECTION('ref_axis',(-0.999999900025863,0.,-0.000447155748440479));
#702=DIRECTION('',(-0.999999900025863,0.,-0.000447155748440479));
#703=DIRECTION('center_axis',(0.,1.,0.));
#704=DIRECTION('ref_axis',(0.,0.,1.));
#705=DIRECTION('',(-0.731319743174197,0.,0.682034774218754));
#706=DIRECTION('',(-1.,0.,2.05986867703716E-20));
#707=DIRECTION('',(0.,0.,-1.));
#708=DIRECTION('',(0.,0.,1.));
#709=DIRECTION('',(-1.,0.,2.05986867703716E-20));
#710=DIRECTION('',(0.,0.,-1.));
#711=DIRECTION('',(-1.,0.,-1.5297352955323E-24));
#712=DIRECTION('',(0.,0.,1.));
#713=DIRECTION('',(-1.,0.,2.05986867703716E-20));
#714=DIRECTION('',(-0.731319743174197,0.,-0.682034774218754));
#715=DIRECTION('center_axis',(0.681930903268264,-0.0174518815109928,-0.731208366335791));
#716=DIRECTION('ref_axis',(-0.731319743174197,0.,-0.682034774218754));
#717=DIRECTION('center_axis',(2.05955494825215E-20,0.0174524289182136,0.999847694763985));
#718=DIRECTION('ref_axis',(1.,0.,-2.05986867703716E-20));
#719=DIRECTION('',(0.0174500858494172,0.999695453614351,-0.0174497715356379));
#720=DIRECTION('',(1.,0.,-2.05986867703716E-20));
#721=DIRECTION('',(0.0174492764974374,-0.999695467737284,0.0174497717821549));
#722=DIRECTION('',(0.0174492764974374,0.999695467737284,-0.0174497717821549));
#723=DIRECTION('',(1.,0.,-2.05986867703716E-20));
#724=DIRECTION('',(0.0174500858494172,-0.999695453614351,0.0174497715356379));
#725=DIRECTION('center_axis',(-0.681930903268264,-0.0174518815109928,-0.731208366335791));
#726=DIRECTION('ref_axis',(-0.731319743174197,0.,0.682034774218754));
#727=DIRECTION('center_axis',(-0.999847703407783,0.0174519337089513,0.));
#728=DIRECTION('ref_axis',(0.,0.,1.));
#729=DIRECTION('',(0.,0.,1.));
#730=DIRECTION('center_axis',(-0.999847689278397,-0.0174527431841058,0.));
#731=DIRECTION('ref_axis',(0.,0.,1.));
#732=DIRECTION('',(0.,0.,-1.));
#733=DIRECTION('center_axis',(0.,1.,0.));
#734=DIRECTION('ref_axis',(0.,0.,1.));
#735=DIRECTION('center_axis',(-1.52950230044558E-24,-0.0174527431841058,
0.999847689278397));
#736=DIRECTION('ref_axis',(1.,0.,1.5297352955323E-24));
#737=DIRECTION('',(-0.0174492764017324,0.999695462254201,0.0174500860002292));
#738=DIRECTION('',(-1.,0.,-1.5297352955323E-24));
#739=DIRECTION('',(-0.0174500857537078,-0.999695448131268,-0.0174500857537077));
#740=DIRECTION('center_axis',(-0.999847689278397,0.0174527431841058,0.));
#741=DIRECTION('ref_axis',(0.,0.,1.));
#742=DIRECTION('',(0.,0.,1.));
#743=DIRECTION('center_axis',(-0.999847703407783,-0.0174519337089513,0.));
#744=DIRECTION('ref_axis',(0.,0.,1.));
#745=DIRECTION('',(0.,0.,-1.));
#746=DIRECTION('center_axis',(0.,1.,0.));
#747=DIRECTION('ref_axis',(0.,0.,1.));
#748=CARTESIAN_POINT('',(0.,0.,0.));
#749=CARTESIAN_POINT('Origin',(-0.0847411674666585,0.364696724112244,0.536258841505287));
#750=CARTESIAN_POINT('',(-0.0867014159492592,0.350000001480926,0.521096515403422));
#751=CARTESIAN_POINT('',(-0.0998676128956781,0.350000001490116,0.534009095108352));
#752=CARTESIAN_POINT('Origin',(-0.0849976950591289,0.350000001490116,0.536002287216741));
#753=CARTESIAN_POINT('',(-0.0864384693943773,0.36499999462639,0.521358235496355));
#754=CARTESIAN_POINT('',(-0.0865701784887537,0.357486485772023,0.521227139686262));
#755=CARTESIAN_POINT('',(-0.0996057569890354,0.364999994635582,0.534270683248113));
#756=CARTESIAN_POINT('Origin',(-0.0847358739560426,0.364999994635582,0.536264135566783));
#757=CARTESIAN_POINT('',(-0.0997368434315924,0.357490919369912,0.534139730916427));
#758=CARTESIAN_POINT('Origin',(-0.114735170286742,0.365303242816792,0.541264846954723));
#759=CARTESIAN_POINT('',(-0.100132414358367,0.350000001490116,0.542991082465337));
#760=CARTESIAN_POINT('',(-0.113303684294808,0.350000001490116,0.555904036769861));
#761=CARTESIAN_POINT('Origin',(-0.115002284852584,0.350000001490116,0.540997704505265));
#762=CARTESIAN_POINT('',(-0.0998705585620537,0.364999994635582,0.543252674347421));
#763=CARTESIAN_POINT('',(-0.100001327952892,0.357509077798183,0.543122036690237));
#764=CARTESIAN_POINT('',(-0.113041666910547,0.364999994635582,0.556165863268624));
#765=CARTESIAN_POINT('Origin',(-0.114740463414161,0.364999994635582,0.541259553274764));
#766=CARTESIAN_POINT('',(-0.113172438416797,0.357513579232089,0.556035187080051));
#767=CARTESIAN_POINT('Origin',(0.0354808895221062,0.365318923699315,0.54051633550471));
#768=CARTESIAN_POINT('',(0.0200004424269066,0.350000001490116,0.535997852566837));
#769=CARTESIAN_POINT('',(0.0197386673539009,0.364998799221952,0.536259689872455));
#770=CARTESIAN_POINT('',(0.0199999977479192,0.349999999128331,0.535997693803994));
#771=CARTESIAN_POINT('',(0.0324327779673674,0.350000001490116,0.555904007878137));
#772=CARTESIAN_POINT('Origin',(0.0357482449212532,0.350000001490116,0.540248776387709));
#773=CARTESIAN_POINT('',(0.0321703053689697,0.364999994635582,0.556165852068272));
#774=CARTESIAN_POINT('',(0.0323015703638298,0.357498382081521,0.556034901764357));
#775=CARTESIAN_POINT('Origin',(0.0354864556713411,0.364999994635582,0.540510765114214));
#776=CARTESIAN_POINT('Origin',(-0.249999248781882,0.364800391050264,0.535991420408113));
#777=CARTESIAN_POINT('',(-0.250000734598919,0.350000001490116,0.547007458162976));
#778=CARTESIAN_POINT('Origin',(-0.250000752425388,0.350000001490116,0.536008589680226));
#779=CARTESIAN_POINT('',(-0.249999229994417,0.364999994635582,0.54673071873296));
#780=CARTESIAN_POINT('',(-0.249999248781882,0.364812695021737,0.546734174280431));
#781=CARTESIAN_POINT('Origin',(-0.249999247400212,0.364999994635582,0.535991404631598));
#782=CARTESIAN_POINT('Origin',(-0.249867002609432,0.350134595432231,0.535947607175739));
#783=CARTESIAN_POINT('',(-0.263640702116608,0.350000535380481,0.521373589290394));
#784=CARTESIAN_POINT('',(-0.263819933138729,0.364999469118664,0.521181396226567));
#785=CARTESIAN_POINT('',(-0.263729980218602,0.357499998062849,0.521277859803613));
#786=CARTESIAN_POINT('',(-0.249999964816758,0.350000796482908,0.556000916534418));
#787=CARTESIAN_POINT('Origin',(-0.249865533368523,0.350000001490116,0.535947028400475));
#788=CARTESIAN_POINT('',(-0.249999908242562,0.364999458142745,0.556264065319631));
#789=CARTESIAN_POINT('',(-0.250000002179653,0.357499998062849,0.556133067584283));
#790=CARTESIAN_POINT('Origin',(-0.250120967884202,0.364999994635582,0.536047651231211));
#791=CARTESIAN_POINT('Origin',(0.249867002851257,0.350134609632586,0.535947607271001));
#792=CARTESIAN_POINT('',(0.263640624925365,0.350000802329623,0.521373511264298));
#793=CARTESIAN_POINT('',(0.249999942727607,0.350000792662072,0.556000942964753));
#794=CARTESIAN_POINT('Origin',(0.249865533368533,0.350000001490116,0.535947028400479));
#795=CARTESIAN_POINT('',(0.263819933138726,0.364999469118664,0.521181396226569));
#796=CARTESIAN_POINT('',(0.263729980218602,0.357499998062849,0.521277859803613));
#797=CARTESIAN_POINT('',(0.249999853312641,0.364999200378179,0.556263242464194));
#798=CARTESIAN_POINT('Origin',(0.25012096788421,0.364999994635582,0.536047651231214));
#799=CARTESIAN_POINT('',(0.250000003115841,0.357499998062849,0.556132275101399));
#800=CARTESIAN_POINT('Origin',(0.250000749455322,0.364800391086236,0.535991420408065));
#801=CARTESIAN_POINT('',(0.249999267284307,0.350000001490116,0.547007458162848));
#802=CARTESIAN_POINT('Origin',(0.249999249501581,0.350000001490116,0.536008589680237));
#803=CARTESIAN_POINT('',(0.250000768196681,0.364999994635582,0.546730718733206));
#804=CARTESIAN_POINT('',(0.250000749455322,0.364812695057721,0.546734174280008));
#805=CARTESIAN_POINT('Origin',(0.250000750833597,0.364999994635582,0.535991404631591));
#806=CARTESIAN_POINT('Origin',(0.00500227479884299,0.349738213952576,0.535997708290827));
#807=CARTESIAN_POINT('',(0.00487123918338239,0.35000000898062,0.52099798384684));
#808=CARTESIAN_POINT('',(0.00487149546641441,0.364999994635582,0.521259937341623));
#809=CARTESIAN_POINT('',(0.00487136798794813,0.357499998062849,0.521127700036853));
#810=CARTESIAN_POINT('Origin',(0.00499770530315657,0.350000001490116,0.536002278195039));
#811=CARTESIAN_POINT('Origin',(0.00473588075406392,0.364999994635582,0.536264126151959));
#812=CARTESIAN_POINT('Origin',(-0.224091757606437,0.350261801201654,0.504997799233043));
#813=CARTESIAN_POINT('',(-0.224194889091087,0.364999994635582,0.489738165535409));
#814=CARTESIAN_POINT('',(-0.234423915527401,0.364999994635582,0.493767780401169));
#815=CARTESIAN_POINT('Origin',(-0.224193089182884,0.364999994635582,0.504740542778249));
#816=CARTESIAN_POINT('',(-0.224091757526223,0.350000001490116,0.489999991727054));
#817=CARTESIAN_POINT('',(-0.224091757606437,0.350000013156983,0.489999991523408));
#818=CARTESIAN_POINT('',(-0.234320783962536,0.350000001490116,0.494029606592814));
#819=CARTESIAN_POINT('Origin',(-0.224089957618019,0.350000001490116,0.505002368969894));
#820=CARTESIAN_POINT('',(-0.234320784099206,0.350000021368142,0.494029606245841));
#821=CARTESIAN_POINT('Origin',(0.224091823682759,0.350261810738315,0.504997631500747));
#822=CARTESIAN_POINT('',(0.224194955081737,0.364999994635582,0.489738165535409));
#823=CARTESIAN_POINT('',(0.224091823516872,0.350000001490116,0.489999991727054));
#824=CARTESIAN_POINT('',(0.224091823682759,0.350000025617629,0.489999991305907));
#825=CARTESIAN_POINT('',(0.234423867267136,0.364999994635582,0.49376773539325));
#826=CARTESIAN_POINT('Origin',(0.224193155193638,0.364999994635582,0.504740375212417));
#827=CARTESIAN_POINT('',(0.234320735702271,0.350000001490116,0.494029561584895));
#828=CARTESIAN_POINT('',(0.234320735924613,0.350000033828696,0.494029561020423));
#829=CARTESIAN_POINT('Origin',(0.224090023628773,0.350000001490116,0.505002201404062));
#830=CARTESIAN_POINT('Origin',(-0.0137278106399073,0.364999994635582,0.53526879062314));
#831=CARTESIAN_POINT('',(-0.0806924657845722,0.364999994635582,0.556142665966412));
#832=CARTESIAN_POINT('',(-0.0996475001703415,0.364999994635582,0.535686599621549));
#833=CARTESIAN_POINT('',(-0.0385782780854415,0.364999994635582,0.52130606559311));
#834=CARTESIAN_POINT('',(0.0369674723379634,0.364999994635582,0.556167997149273));
#835=CARTESIAN_POINT('',(0.185772916451626,0.364999994635582,0.448395460728597));
#836=CARTESIAN_POINT('',(-0.00686390531995367,0.364999994635582,0.48973816553541));
#837=CARTESIAN_POINT('',(-0.193114941740871,0.364999994635582,0.455242693566485));
#838=CARTESIAN_POINT('Origin',(-0.0634136387816397,0.357499998062849,0.521202133968472));
#839=CARTESIAN_POINT('',(-0.0384193701393963,0.350000001490116,0.521043885658544));
#840=CARTESIAN_POINT('Origin',(-0.099869086407125,0.357499998062849,0.538630907734235));
#841=CARTESIAN_POINT('',(-0.0999034352770807,0.350000001490116,0.535224179698851));
#842=CARTESIAN_POINT('Origin',(-0.147672148887068,0.357499998062849,0.556059689261019));
#843=CARTESIAN_POINT('',(-0.0805336279234318,0.350000001490116,0.555880537676385));
#844=CARTESIAN_POINT('Origin',(-0.168999996967614,0.338499993085861,0.509799253195524));
#845=CARTESIAN_POINT('',(-0.181098524481058,0.326999984681606,0.509598515927792));
#846=CARTESIAN_POINT('',(-0.181499999016523,0.350000001490116,0.509999990463257));
#847=CARTESIAN_POINT('',(-0.181295897187036,0.338307241192323,0.509795888633769));
#848=CARTESIAN_POINT('',(-0.156901460140944,0.326999984681606,0.509598515927792));
#849=CARTESIAN_POINT('',(-0.168999994639307,0.326999984681606,0.509598515927792));
#850=CARTESIAN_POINT('',(-0.15650000423193,0.350000001490116,0.509999990463257));
#851=CARTESIAN_POINT('',(-0.156704096505312,0.338307246164093,0.509795888720553));
#852=CARTESIAN_POINT('',(-0.0912052008040408,0.350000001490116,0.509999990463257));
#853=CARTESIAN_POINT('Origin',(0.087672148947604,0.357499998062849,0.556059689261019));
#854=CARTESIAN_POINT('',(0.0371260911359281,0.350000001490116,0.555906106520309));
#855=CARTESIAN_POINT('Origin',(-0.0134104046404679,0.350000001490116,0.534368398992312));
#856=CARTESIAN_POINT('',(-0.192626942735255,0.350000001490116,0.455145589234912));
#857=CARTESIAN_POINT('',(-0.181499999016523,0.350000001490116,0.489999991727054));
#858=CARTESIAN_POINT('',(-0.00670520232023397,0.350000001490116,0.489999991727054));
#859=CARTESIAN_POINT('',(-0.181499999016523,0.350000001490116,0.517184193908221));
#860=CARTESIAN_POINT('',(-0.15650000423193,0.350000001490116,0.489999991727054));
#861=CARTESIAN_POINT('',(-0.15650000423193,0.350000001490116,0.517184193908221));
#862=CARTESIAN_POINT('',(0.15650000423193,0.350000001490116,0.489999991727054));
#863=CARTESIAN_POINT('',(-0.00670520232023397,0.350000001490116,0.489999991727054));
#864=CARTESIAN_POINT('',(0.15650000423193,0.350000001490116,0.509999990463257));
#865=CARTESIAN_POINT('',(0.15650000423193,0.350000001490116,0.517184193908221));
#866=CARTESIAN_POINT('',(0.181499999016523,0.350000001490116,0.509999990463257));
#867=CARTESIAN_POINT('',(0.0777947961635729,0.350000001490116,0.509999990463257));
#868=CARTESIAN_POINT('',(0.181499999016523,0.350000001490116,0.489999991727054));
#869=CARTESIAN_POINT('',(0.181499999016523,0.350000001490116,0.517184193908221));
#870=CARTESIAN_POINT('',(-0.00670520232023397,0.350000001490116,0.489999991727054));
#871=CARTESIAN_POINT('',(0.185454675241771,0.350000001490116,0.448456673905862));
#872=CARTESIAN_POINT('Origin',(0.249051162973046,0.357499998062849,0.507588274776936));
#873=CARTESIAN_POINT('Origin',(0.,0.34483332807819,0.490090176463127));
#874=CARTESIAN_POINT('',(0.181098524481058,0.326999984681606,0.490401459031095));
#875=CARTESIAN_POINT('',(0.181325425121975,0.339998862801991,0.490174562477149));
#876=CARTESIAN_POINT('',(0.156901460140944,0.326999984681606,0.490401459031095));
#877=CARTESIAN_POINT('',(0.0844999961555004,0.326999984681606,0.490401459031095));
#878=CARTESIAN_POINT('',(0.156623112091392,0.342946965843333,0.490123103080841));
#879=CARTESIAN_POINT('',(-0.156901460140944,0.326999984681606,0.490401459031095));
#880=CARTESIAN_POINT('',(-0.156623112091392,0.342946965843333,0.490123103080841));
#881=CARTESIAN_POINT('',(-0.181098524481058,0.326999984681606,0.490401459031095));
#882=CARTESIAN_POINT('',(-0.0844999961555004,0.326999984681606,0.490401459031095));
#883=CARTESIAN_POINT('',(-0.181325425121975,0.339998862801991,0.490174562477149));
#884=CARTESIAN_POINT('Origin',(-0.249051162973046,0.357499998062849,0.507588274776936));
#885=CARTESIAN_POINT('Origin',(-0.156700732186437,0.338499993085861,0.499999988824129));
#886=CARTESIAN_POINT('',(-0.156901460140944,0.326999984681606,0.499999988824129));
#887=CARTESIAN_POINT('Origin',(-0.181299261748791,0.338499993085861,0.499999988824129));
#888=CARTESIAN_POINT('',(-0.181098524481058,0.326999984681606,0.499999988824129));
#889=CARTESIAN_POINT('Origin',(-0.168999992311001,0.326999984681606,0.499999988824129));
#890=CARTESIAN_POINT('Origin',(0.168999996967614,0.338499993085861,0.509799253195524));
#891=CARTESIAN_POINT('',(0.156901460140944,0.326999984681606,0.509598515927792));
#892=CARTESIAN_POINT('',(0.156704096505312,0.338307246164093,0.509795888720553));
#893=CARTESIAN_POINT('',(0.181098524481058,0.326999984681606,0.509598515927792));
#894=CARTESIAN_POINT('',(0.168999994639307,0.326999984681606,0.509598515927792));
#895=CARTESIAN_POINT('',(0.181295897187036,0.338307241192323,0.509795888633769));
#896=CARTESIAN_POINT('Origin',(0.181299261748791,0.338499993085861,0.499999988824129));
#897=CARTESIAN_POINT('',(0.181098524481058,0.326999984681606,0.499999988824129));
#898=CARTESIAN_POINT('Origin',(0.156700732186437,0.338499993085861,0.499999988824129));
#899=CARTESIAN_POINT('',(0.156901460140944,0.326999984681606,0.499999988824129));
#900=CARTESIAN_POINT('Origin',(0.168999992311001,0.326999984681606,0.499999988824129));
#901=UNCERTAINTY_MEASURE_WITH_UNIT(LENGTH_MEASURE(0.01),#905,
'DISTANCE_ACCURACY_VALUE',
'Maximum model space distance between geometric entities at asserted c
onnectivities');
#902=UNCERTAINTY_MEASURE_WITH_UNIT(LENGTH_MEASURE(0.01),#905,
'DISTANCE_ACCURACY_VALUE',
'Maximum model space distance between geometric entities at asserted c
onnectivities');
#903=(
GEOMETRIC_REPRESENTATION_CONTEXT(3)
GLOBAL_UNCERTAINTY_ASSIGNED_CONTEXT((#901))
GLOBAL_UNIT_ASSIGNED_CONTEXT((#905,#907,#908))
REPRESENTATION_CONTEXT('','3D')
);
#904=(
GEOMETRIC_REPRESENTATION_CONTEXT(3)
GLOBAL_UNCERTAINTY_ASSIGNED_CONTEXT((#902))
GLOBAL_UNIT_ASSIGNED_CONTEXT((#905,#907,#908))
REPRESENTATION_CONTEXT('','3D')
);
#905=(
LENGTH_UNIT()
NAMED_UNIT(*)
SI_UNIT(.MILLI.,.METRE.)
);
#906=(
LENGTH_UNIT()
NAMED_UNIT(*)
SI_UNIT($,.METRE.)
);
#907=(
NAMED_UNIT(*)
PLANE_ANGLE_UNIT()
SI_UNIT($,.RADIAN.)
);
#908=(
NAMED_UNIT(*)
SI_UNIT($,.STERADIAN.)
SOLID_ANGLE_UNIT()
);
#909=SHAPE_DEFINITION_REPRESENTATION(#910,#911);
#910=PRODUCT_DEFINITION_SHAPE('',$,#913);
#911=SHAPE_REPRESENTATION('',(#549),#903);
#912=PRODUCT_DEFINITION_CONTEXT('part definition',#917,'design');
#913=PRODUCT_DEFINITION('2026-08-29-07-14-42-299','banana_pcb_locker',#914,
#912);
#914=PRODUCT_DEFINITION_FORMATION('',$,#919);
#915=PRODUCT_RELATED_PRODUCT_CATEGORY('banana_pcb_locker',
'banana_pcb_locker',(#919));
#916=APPLICATION_PROTOCOL_DEFINITION('international standard',
'automotive_design',2009,#917);
#917=APPLICATION_CONTEXT(
'Core Data for Automotive Mechanical Design Process');
#918=PRODUCT_CONTEXT('part definition',#917,'mechanical');
#919=PRODUCT('2026-08-29-07-14-42-299','banana_pcb_locker',$,(#918));
#920=PRESENTATION_STYLE_ASSIGNMENT((#921));
#921=SURFACE_STYLE_USAGE(.BOTH.,#922);
#922=SURFACE_SIDE_STYLE('',(#923));
#923=SURFACE_STYLE_FILL_AREA(#924);
#924=FILL_AREA_STYLE('Steel - Satin',(#925));
#925=FILL_AREA_STYLE_COLOUR('Steel - Satin',#926);
#926=COLOUR_RGB('Steel - Satin',0.627450980392157,0.627450980392157,0.627450980392157);
ENDSEC;
END-ISO-10303-21;
