ISO-10303-21;
HEADER;
/* Generated by software containing ST-Developer
 * from STEP Tools, Inc. (www.steptools.com) 
 */

FILE_DESCRIPTION(
/* description */ (''),
/* implementation_level */ '2;1');

FILE_NAME(
/* name */ 'bearing_roll.step',
/* time_stamp */ '2026-09-08T16:38:57-06:00',
/* author */ (''),
/* organization */ (''),
/* preprocessor_version */ 'ST-DEVELOPER v20.2',
/* originating_system */ 'Autodesk Translation Framework v15.15.0.0',
/* authorisation */ '');

FILE_SCHEMA (('AUTOMOTIVE_DESIGN { 1 0 10303 214 3 1 1 }'));
ENDSEC;

DATA;
#10=MECHANICAL_DESIGN_GEOMETRIC_PRESENTATION_REPRESENTATION('',(#13),#608);
#11=SHAPE_REPRESENTATION_RELATIONSHIP('SRR','None',#615,#12);
#12=ADVANCED_BREP_SHAPE_REPRESENTATION('',(#14),#607);
#13=STYLED_ITEM('',(#624),#14);
#14=MANIFOLD_SOLID_BREP('MeshBody1',#348);
#15=FACE_BOUND('',#77,.T.);
#16=FACE_BOUND('',#78,.T.);
#17=FACE_BOUND('',#79,.T.);
#18=FACE_BOUND('',#80,.T.);
#19=FACE_BOUND('',#81,.T.);
#20=FACE_BOUND('',#82,.T.);
#21=FACE_BOUND('',#83,.T.);
#22=FACE_BOUND('',#85,.T.);
#23=FACE_BOUND('',#86,.T.);
#24=FACE_BOUND('',#87,.T.);
#25=FACE_BOUND('',#88,.T.);
#26=FACE_BOUND('',#89,.T.);
#27=PLANE('',#395);
#28=PLANE('',#396);
#29=PLANE('',#397);
#30=PLANE('',#398);
#31=PLANE('',#399);
#32=PLANE('',#400);
#33=PLANE('',#401);
#34=PLANE('',#402);
#35=CYLINDRICAL_SURFACE('',#365,1.10000007024654);
#36=CYLINDRICAL_SURFACE('',#368,1.09999997623097);
#37=CYLINDRICAL_SURFACE('',#371,1.10000000442221);
#38=CYLINDRICAL_SURFACE('',#374,9.49999999080087);
#39=CYLINDRICAL_SURFACE('',#377,1.09999997042931);
#40=CYLINDRICAL_SURFACE('',#383,2.49999947845936);
#41=CYLINDRICAL_SURFACE('',#386,2.50000040978193);
#42=CYLINDRICAL_SURFACE('',#389,2.49999947845936);
#43=CYLINDRICAL_SURFACE('',#392,2.49999947845936);
#44=FACE_OUTER_BOUND('',#63,.T.);
#45=FACE_OUTER_BOUND('',#64,.T.);
#46=FACE_OUTER_BOUND('',#65,.T.);
#47=FACE_OUTER_BOUND('',#66,.T.);
#48=FACE_OUTER_BOUND('',#67,.T.);
#49=FACE_OUTER_BOUND('',#68,.T.);
#50=FACE_OUTER_BOUND('',#69,.T.);
#51=FACE_OUTER_BOUND('',#70,.T.);
#52=FACE_OUTER_BOUND('',#71,.T.);
#53=FACE_OUTER_BOUND('',#72,.T.);
#54=FACE_OUTER_BOUND('',#73,.T.);
#55=FACE_OUTER_BOUND('',#74,.T.);
#56=FACE_OUTER_BOUND('',#75,.T.);
#57=FACE_OUTER_BOUND('',#76,.T.);
#58=FACE_OUTER_BOUND('',#84,.T.);
#59=FACE_OUTER_BOUND('',#90,.T.);
#60=FACE_OUTER_BOUND('',#91,.T.);
#61=FACE_OUTER_BOUND('',#92,.T.);
#62=FACE_OUTER_BOUND('',#93,.T.);
#63=EDGE_LOOP('',(#237,#238,#239,#240));
#64=EDGE_LOOP('',(#241,#242,#243,#244));
#65=EDGE_LOOP('',(#245,#246,#247,#248));
#66=EDGE_LOOP('',(#249,#250,#251,#252));
#67=EDGE_LOOP('',(#253,#254,#255,#256));
#68=EDGE_LOOP('',(#257,#258,#259,#260));
#69=EDGE_LOOP('',(#261,#262,#263,#264));
#70=EDGE_LOOP('',(#265,#266,#267,#268));
#71=EDGE_LOOP('',(#269,#270,#271,#272));
#72=EDGE_LOOP('',(#273,#274,#275,#276));
#73=EDGE_LOOP('',(#277,#278,#279,#280));
#74=EDGE_LOOP('',(#281,#282,#283,#284));
#75=EDGE_LOOP('',(#285,#286,#287,#288));
#76=EDGE_LOOP('',(#289,#290,#291,#292,#293,#294,#295,#296));
#77=EDGE_LOOP('',(#297));
#78=EDGE_LOOP('',(#298));
#79=EDGE_LOOP('',(#299));
#80=EDGE_LOOP('',(#300));
#81=EDGE_LOOP('',(#301));
#82=EDGE_LOOP('',(#302));
#83=EDGE_LOOP('',(#303));
#84=EDGE_LOOP('',(#304,#305,#306,#307,#308,#309,#310,#311));
#85=EDGE_LOOP('',(#312));
#86=EDGE_LOOP('',(#313));
#87=EDGE_LOOP('',(#314));
#88=EDGE_LOOP('',(#315));
#89=EDGE_LOOP('',(#316));
#90=EDGE_LOOP('',(#317,#318,#319,#320));
#91=EDGE_LOOP('',(#321,#322,#323,#324));
#92=EDGE_LOOP('',(#325));
#93=EDGE_LOOP('',(#326));
#94=LINE('',#515,#117);
#95=LINE('',#521,#118);
#96=LINE('',#527,#119);
#97=LINE('',#533,#120);
#98=LINE('',#539,#121);
#99=LINE('',#545,#122);
#100=LINE('',#551,#123);
#101=LINE('',#558,#124);
#102=LINE('',#561,#125);
#103=LINE('',#565,#126);
#104=LINE('',#569,#127);
#105=LINE('',#574,#128);
#106=LINE('',#578,#129);
#107=LINE('',#585,#130);
#108=LINE('',#588,#131);
#109=LINE('',#590,#132);
#110=LINE('',#591,#133);
#111=LINE('',#593,#134);
#112=LINE('',#594,#135);
#113=LINE('',#596,#136);
#114=LINE('',#597,#137);
#115=LINE('',#599,#138);
#116=LINE('',#600,#139);
#117=VECTOR('',#409,1000.);
#118=VECTOR('',#416,1000.);
#119=VECTOR('',#423,1000.);
#120=VECTOR('',#430,1000.);
#121=VECTOR('',#437,1000.);
#122=VECTOR('',#444,1000.);
#123=VECTOR('',#451,1000.);
#124=VECTOR('',#458,1000.);
#125=VECTOR('',#461,1000.);
#126=VECTOR('',#464,1000.);
#127=VECTOR('',#467,1000.);
#128=VECTOR('',#472,1000.);
#129=VECTOR('',#475,1000.);
#130=VECTOR('',#482,1000.);
#131=VECTOR('',#485,1000.);
#132=VECTOR('',#488,1000.);
#133=VECTOR('',#489,1000.);
#134=VECTOR('',#492,1000.);
#135=VECTOR('',#493,1000.);
#136=VECTOR('',#496,1000.);
#137=VECTOR('',#497,1000.);
#138=VECTOR('',#500,1000.);
#139=VECTOR('',#501,1000.);
#140=CIRCLE('',#363,0.795184404276818);
#141=CIRCLE('',#364,0.90000003670255);
#142=CIRCLE('',#366,1.10000007024654);
#143=CIRCLE('',#367,1.10000007024654);
#144=CIRCLE('',#369,1.09999997623097);
#145=CIRCLE('',#370,1.09999997623097);
#146=CIRCLE('',#372,1.10000000442221);
#147=CIRCLE('',#373,1.10000000442221);
#148=CIRCLE('',#375,9.49999999080087);
#149=CIRCLE('',#376,9.49999999080087);
#150=CIRCLE('',#378,1.09999997042931);
#151=CIRCLE('',#379,1.09999997042931);
#152=CIRCLE('',#381,0.795184445456879);
#153=CIRCLE('',#382,0.899999981184673);
#154=CIRCLE('',#384,2.49999947845936);
#155=CIRCLE('',#385,2.49999947845936);
#156=CIRCLE('',#387,2.50000040978193);
#157=CIRCLE('',#388,2.50000040978193);
#158=CIRCLE('',#390,2.49999947845936);
#159=CIRCLE('',#391,2.49999947845936);
#160=CIRCLE('',#393,2.49999947845936);
#161=CIRCLE('',#394,2.49999947845936);
#162=VERTEX_POINT('',#512);
#163=VERTEX_POINT('',#514);
#164=VERTEX_POINT('',#518);
#165=VERTEX_POINT('',#520);
#166=VERTEX_POINT('',#524);
#167=VERTEX_POINT('',#526);
#168=VERTEX_POINT('',#530);
#169=VERTEX_POINT('',#532);
#170=VERTEX_POINT('',#536);
#171=VERTEX_POINT('',#538);
#172=VERTEX_POINT('',#542);
#173=VERTEX_POINT('',#544);
#174=VERTEX_POINT('',#548);
#175=VERTEX_POINT('',#550);
#176=VERTEX_POINT('',#554);
#177=VERTEX_POINT('',#555);
#178=VERTEX_POINT('',#557);
#179=VERTEX_POINT('',#559);
#180=VERTEX_POINT('',#563);
#181=VERTEX_POINT('',#564);
#182=VERTEX_POINT('',#566);
#183=VERTEX_POINT('',#568);
#184=VERTEX_POINT('',#572);
#185=VERTEX_POINT('',#573);
#186=VERTEX_POINT('',#575);
#187=VERTEX_POINT('',#577);
#188=VERTEX_POINT('',#581);
#189=VERTEX_POINT('',#582);
#190=VERTEX_POINT('',#584);
#191=VERTEX_POINT('',#586);
#192=EDGE_CURVE('',#162,#162,#140,.T.);
#193=EDGE_CURVE('',#162,#163,#94,.T.);
#194=EDGE_CURVE('',#163,#163,#141,.T.);
#195=EDGE_CURVE('',#164,#164,#142,.T.);
#196=EDGE_CURVE('',#164,#165,#95,.T.);
#197=EDGE_CURVE('',#165,#165,#143,.T.);
#198=EDGE_CURVE('',#166,#166,#144,.T.);
#199=EDGE_CURVE('',#166,#167,#96,.T.);
#200=EDGE_CURVE('',#167,#167,#145,.T.);
#201=EDGE_CURVE('',#168,#168,#146,.T.);
#202=EDGE_CURVE('',#168,#169,#97,.T.);
#203=EDGE_CURVE('',#169,#169,#147,.T.);
#204=EDGE_CURVE('',#170,#170,#148,.T.);
#205=EDGE_CURVE('',#170,#171,#98,.T.);
#206=EDGE_CURVE('',#171,#171,#149,.T.);
#207=EDGE_CURVE('',#172,#172,#150,.T.);
#208=EDGE_CURVE('',#172,#173,#99,.T.);
#209=EDGE_CURVE('',#173,#173,#151,.T.);
#210=EDGE_CURVE('',#174,#174,#152,.T.);
#211=EDGE_CURVE('',#174,#175,#100,.T.);
#212=EDGE_CURVE('',#175,#175,#153,.T.);
#213=EDGE_CURVE('',#176,#177,#154,.T.);
#214=EDGE_CURVE('',#178,#176,#101,.T.);
#215=EDGE_CURVE('',#179,#178,#155,.T.);
#216=EDGE_CURVE('',#177,#179,#102,.T.);
#217=EDGE_CURVE('',#180,#181,#103,.T.);
#218=EDGE_CURVE('',#182,#180,#156,.T.);
#219=EDGE_CURVE('',#183,#182,#104,.T.);
#220=EDGE_CURVE('',#181,#183,#157,.T.);
#221=EDGE_CURVE('',#184,#185,#105,.T.);
#222=EDGE_CURVE('',#186,#184,#158,.T.);
#223=EDGE_CURVE('',#187,#186,#106,.T.);
#224=EDGE_CURVE('',#185,#187,#159,.T.);
#225=EDGE_CURVE('',#188,#189,#160,.T.);
#226=EDGE_CURVE('',#190,#188,#107,.T.);
#227=EDGE_CURVE('',#191,#190,#161,.T.);
#228=EDGE_CURVE('',#189,#191,#108,.T.);
#229=EDGE_CURVE('',#189,#176,#109,.T.);
#230=EDGE_CURVE('',#178,#191,#110,.T.);
#231=EDGE_CURVE('',#177,#181,#111,.T.);
#232=EDGE_CURVE('',#180,#179,#112,.T.);
#233=EDGE_CURVE('',#186,#190,#113,.T.);
#234=EDGE_CURVE('',#182,#184,#114,.T.);
#235=EDGE_CURVE('',#185,#183,#115,.T.);
#236=EDGE_CURVE('',#188,#187,#116,.T.);
#237=ORIENTED_EDGE('',*,*,#192,.F.);
#238=ORIENTED_EDGE('',*,*,#193,.T.);
#239=ORIENTED_EDGE('',*,*,#194,.F.);
#240=ORIENTED_EDGE('',*,*,#193,.F.);
#241=ORIENTED_EDGE('',*,*,#195,.F.);
#242=ORIENTED_EDGE('',*,*,#196,.T.);
#243=ORIENTED_EDGE('',*,*,#197,.F.);
#244=ORIENTED_EDGE('',*,*,#196,.F.);
#245=ORIENTED_EDGE('',*,*,#198,.F.);
#246=ORIENTED_EDGE('',*,*,#199,.T.);
#247=ORIENTED_EDGE('',*,*,#200,.F.);
#248=ORIENTED_EDGE('',*,*,#199,.F.);
#249=ORIENTED_EDGE('',*,*,#201,.F.);
#250=ORIENTED_EDGE('',*,*,#202,.T.);
#251=ORIENTED_EDGE('',*,*,#203,.F.);
#252=ORIENTED_EDGE('',*,*,#202,.F.);
#253=ORIENTED_EDGE('',*,*,#204,.F.);
#254=ORIENTED_EDGE('',*,*,#205,.T.);
#255=ORIENTED_EDGE('',*,*,#206,.F.);
#256=ORIENTED_EDGE('',*,*,#205,.F.);
#257=ORIENTED_EDGE('',*,*,#207,.F.);
#258=ORIENTED_EDGE('',*,*,#208,.T.);
#259=ORIENTED_EDGE('',*,*,#209,.F.);
#260=ORIENTED_EDGE('',*,*,#208,.F.);
#261=ORIENTED_EDGE('',*,*,#210,.F.);
#262=ORIENTED_EDGE('',*,*,#211,.T.);
#263=ORIENTED_EDGE('',*,*,#212,.F.);
#264=ORIENTED_EDGE('',*,*,#211,.F.);
#265=ORIENTED_EDGE('',*,*,#213,.F.);
#266=ORIENTED_EDGE('',*,*,#214,.F.);
#267=ORIENTED_EDGE('',*,*,#215,.F.);
#268=ORIENTED_EDGE('',*,*,#216,.F.);
#269=ORIENTED_EDGE('',*,*,#217,.F.);
#270=ORIENTED_EDGE('',*,*,#218,.F.);
#271=ORIENTED_EDGE('',*,*,#219,.F.);
#272=ORIENTED_EDGE('',*,*,#220,.F.);
#273=ORIENTED_EDGE('',*,*,#221,.F.);
#274=ORIENTED_EDGE('',*,*,#222,.F.);
#275=ORIENTED_EDGE('',*,*,#223,.F.);
#276=ORIENTED_EDGE('',*,*,#224,.F.);
#277=ORIENTED_EDGE('',*,*,#225,.F.);
#278=ORIENTED_EDGE('',*,*,#226,.F.);
#279=ORIENTED_EDGE('',*,*,#227,.F.);
#280=ORIENTED_EDGE('',*,*,#228,.F.);
#281=ORIENTED_EDGE('',*,*,#229,.F.);
#282=ORIENTED_EDGE('',*,*,#228,.T.);
#283=ORIENTED_EDGE('',*,*,#230,.F.);
#284=ORIENTED_EDGE('',*,*,#214,.T.);
#285=ORIENTED_EDGE('',*,*,#231,.F.);
#286=ORIENTED_EDGE('',*,*,#216,.T.);
#287=ORIENTED_EDGE('',*,*,#232,.F.);
#288=ORIENTED_EDGE('',*,*,#217,.T.);
#289=ORIENTED_EDGE('',*,*,#232,.T.);
#290=ORIENTED_EDGE('',*,*,#215,.T.);
#291=ORIENTED_EDGE('',*,*,#230,.T.);
#292=ORIENTED_EDGE('',*,*,#227,.T.);
#293=ORIENTED_EDGE('',*,*,#233,.F.);
#294=ORIENTED_EDGE('',*,*,#222,.T.);
#295=ORIENTED_EDGE('',*,*,#234,.F.);
#296=ORIENTED_EDGE('',*,*,#218,.T.);
#297=ORIENTED_EDGE('',*,*,#203,.T.);
#298=ORIENTED_EDGE('',*,*,#206,.T.);
#299=ORIENTED_EDGE('',*,*,#197,.T.);
#300=ORIENTED_EDGE('',*,*,#212,.T.);
#301=ORIENTED_EDGE('',*,*,#200,.T.);
#302=ORIENTED_EDGE('',*,*,#194,.T.);
#303=ORIENTED_EDGE('',*,*,#209,.T.);
#304=ORIENTED_EDGE('',*,*,#220,.T.);
#305=ORIENTED_EDGE('',*,*,#235,.F.);
#306=ORIENTED_EDGE('',*,*,#224,.T.);
#307=ORIENTED_EDGE('',*,*,#236,.F.);
#308=ORIENTED_EDGE('',*,*,#225,.T.);
#309=ORIENTED_EDGE('',*,*,#229,.T.);
#310=ORIENTED_EDGE('',*,*,#213,.T.);
#311=ORIENTED_EDGE('',*,*,#231,.T.);
#312=ORIENTED_EDGE('',*,*,#201,.T.);
#313=ORIENTED_EDGE('',*,*,#204,.T.);
#314=ORIENTED_EDGE('',*,*,#195,.T.);
#315=ORIENTED_EDGE('',*,*,#198,.T.);
#316=ORIENTED_EDGE('',*,*,#207,.T.);
#317=ORIENTED_EDGE('',*,*,#219,.T.);
#318=ORIENTED_EDGE('',*,*,#234,.T.);
#319=ORIENTED_EDGE('',*,*,#221,.T.);
#320=ORIENTED_EDGE('',*,*,#235,.T.);
#321=ORIENTED_EDGE('',*,*,#223,.T.);
#322=ORIENTED_EDGE('',*,*,#233,.T.);
#323=ORIENTED_EDGE('',*,*,#226,.T.);
#324=ORIENTED_EDGE('',*,*,#236,.T.);
#325=ORIENTED_EDGE('',*,*,#210,.T.);
#326=ORIENTED_EDGE('',*,*,#192,.T.);
#327=CONICAL_SURFACE('',#362,0.900000070773078,0.0523599058217227);
#328=CONICAL_SURFACE('',#380,0.899999930065878,0.0523598576051911);
#329=ADVANCED_FACE('',(#44),#327,.T.);
#330=ADVANCED_FACE('',(#45),#35,.F.);
#331=ADVANCED_FACE('',(#46),#36,.F.);
#332=ADVANCED_FACE('',(#47),#37,.F.);
#333=ADVANCED_FACE('',(#48),#38,.F.);
#334=ADVANCED_FACE('',(#49),#39,.F.);
#335=ADVANCED_FACE('',(#50),#328,.T.);
#336=ADVANCED_FACE('',(#51),#40,.T.);
#337=ADVANCED_FACE('',(#52),#41,.T.);
#338=ADVANCED_FACE('',(#53),#42,.T.);
#339=ADVANCED_FACE('',(#54),#43,.T.);
#340=ADVANCED_FACE('',(#55),#27,.T.);
#341=ADVANCED_FACE('',(#56),#28,.F.);
#342=ADVANCED_FACE('',(#57,#15,#16,#17,#18,#19,#20,#21),#29,.F.);
#343=ADVANCED_FACE('',(#58,#22,#23,#24,#25,#26),#30,.F.);
#344=ADVANCED_FACE('',(#59),#31,.F.);
#345=ADVANCED_FACE('',(#60),#32,.T.);
#346=ADVANCED_FACE('',(#61),#33,.T.);
#347=ADVANCED_FACE('',(#62),#34,.F.);
#348=CLOSED_SHELL('',(#329,#330,#331,#332,#333,#334,#335,#336,#337,#338,
#339,#340,#341,#342,#343,#344,#345,#346,#347));
#349=DERIVED_UNIT_ELEMENT(#351,1.);
#350=DERIVED_UNIT_ELEMENT(#610,-3.);
#351=(
MASS_UNIT()
NAMED_UNIT(*)
SI_UNIT(.KILO.,.GRAM.)
);
#352=DERIVED_UNIT((#349,#350));
#353=MEASURE_REPRESENTATION_ITEM('density measure',
POSITIVE_RATIO_MEASURE(7850.),#352);
#354=PROPERTY_DEFINITION_REPRESENTATION(#359,#356);
#355=PROPERTY_DEFINITION_REPRESENTATION(#360,#357);
#356=REPRESENTATION('material name',(#358),#607);
#357=REPRESENTATION('density',(#353),#607);
#358=DESCRIPTIVE_REPRESENTATION_ITEM('Steel','Steel');
#359=PROPERTY_DEFINITION('material property','material name',#617);
#360=PROPERTY_DEFINITION('material property','density of part',#617);
#361=AXIS2_PLACEMENT_3D('',#510,#403,#404);
#362=AXIS2_PLACEMENT_3D('',#511,#405,#406);
#363=AXIS2_PLACEMENT_3D('',#513,#407,#408);
#364=AXIS2_PLACEMENT_3D('',#516,#410,#411);
#365=AXIS2_PLACEMENT_3D('',#517,#412,#413);
#366=AXIS2_PLACEMENT_3D('',#519,#414,#415);
#367=AXIS2_PLACEMENT_3D('',#522,#417,#418);
#368=AXIS2_PLACEMENT_3D('',#523,#419,#420);
#369=AXIS2_PLACEMENT_3D('',#525,#421,#422);
#370=AXIS2_PLACEMENT_3D('',#528,#424,#425);
#371=AXIS2_PLACEMENT_3D('',#529,#426,#427);
#372=AXIS2_PLACEMENT_3D('',#531,#428,#429);
#373=AXIS2_PLACEMENT_3D('',#534,#431,#432);
#374=AXIS2_PLACEMENT_3D('',#535,#433,#434);
#375=AXIS2_PLACEMENT_3D('',#537,#435,#436);
#376=AXIS2_PLACEMENT_3D('',#540,#438,#439);
#377=AXIS2_PLACEMENT_3D('',#541,#440,#441);
#378=AXIS2_PLACEMENT_3D('',#543,#442,#443);
#379=AXIS2_PLACEMENT_3D('',#546,#445,#446);
#380=AXIS2_PLACEMENT_3D('',#547,#447,#448);
#381=AXIS2_PLACEMENT_3D('',#549,#449,#450);
#382=AXIS2_PLACEMENT_3D('',#552,#452,#453);
#383=AXIS2_PLACEMENT_3D('',#553,#454,#455);
#384=AXIS2_PLACEMENT_3D('',#556,#456,#457);
#385=AXIS2_PLACEMENT_3D('',#560,#459,#460);
#386=AXIS2_PLACEMENT_3D('',#562,#462,#463);
#387=AXIS2_PLACEMENT_3D('',#567,#465,#466);
#388=AXIS2_PLACEMENT_3D('',#570,#468,#469);
#389=AXIS2_PLACEMENT_3D('',#571,#470,#471);
#390=AXIS2_PLACEMENT_3D('',#576,#473,#474);
#391=AXIS2_PLACEMENT_3D('',#579,#476,#477);
#392=AXIS2_PLACEMENT_3D('',#580,#478,#479);
#393=AXIS2_PLACEMENT_3D('',#583,#480,#481);
#394=AXIS2_PLACEMENT_3D('',#587,#483,#484);
#395=AXIS2_PLACEMENT_3D('',#589,#486,#487);
#396=AXIS2_PLACEMENT_3D('',#592,#490,#491);
#397=AXIS2_PLACEMENT_3D('',#595,#494,#495);
#398=AXIS2_PLACEMENT_3D('',#598,#498,#499);
#399=AXIS2_PLACEMENT_3D('',#601,#502,#503);
#400=AXIS2_PLACEMENT_3D('',#602,#504,#505);
#401=AXIS2_PLACEMENT_3D('',#603,#506,#507);
#402=AXIS2_PLACEMENT_3D('',#604,#508,#509);
#403=DIRECTION('axis',(0.,0.,1.));
#404=DIRECTION('refdir',(1.,0.,0.));
#405=DIRECTION('center_axis',(-4.43549209583918E-9,-1.,8.62541148384061E-10));
#406=DIRECTION('ref_axis',(0.,-8.6254114838406E-10,-1.));
#407=DIRECTION('center_axis',(0.,1.,0.));
#408=DIRECTION('ref_axis',(2.32455759584838E-10,0.,-1.));
#409=DIRECTION('',(-4.42941339510556E-9,-0.998629533230318,0.0523359853274637));
#410=DIRECTION('center_axis',(0.,-1.,0.));
#411=DIRECTION('ref_axis',(2.3245679124222E-10,0.,-1.));
#412=DIRECTION('center_axis',(1.6272975129419E-20,1.,3.32189585815524E-20));
#413=DIRECTION('ref_axis',(0.,3.32189585815524E-20,-1.));
#414=DIRECTION('center_axis',(0.,1.,0.));
#415=DIRECTION('ref_axis',(0.,3.32189585815524E-20,-1.));
#416=DIRECTION('',(1.6272975129419E-20,1.,3.32189585815524E-20));
#417=DIRECTION('center_axis',(0.,-1.,0.));
#418=DIRECTION('ref_axis',(0.,3.32189585815524E-20,-1.));
#419=DIRECTION('center_axis',(2.54063080890495E-19,1.,2.98574875073139E-18));
#420=DIRECTION('ref_axis',(0.,2.98574875073139E-18,-1.));
#421=DIRECTION('center_axis',(0.,1.,0.));
#422=DIRECTION('ref_axis',(0.,2.98574875073139E-18,-1.));
#423=DIRECTION('',(2.54063080890495E-19,1.,2.98574875073139E-18));
#424=DIRECTION('center_axis',(0.,-1.,0.));
#425=DIRECTION('ref_axis',(0.,2.98574875073139E-18,-1.));
#426=DIRECTION('center_axis',(5.58850322428368E-19,1.,-3.97179730990756E-19));
#427=DIRECTION('ref_axis',(0.,-3.97179730990756E-19,-1.));
#428=DIRECTION('center_axis',(0.,1.,0.));
#429=DIRECTION('ref_axis',(0.,-3.97179730990756E-19,-1.));
#430=DIRECTION('',(5.58850322428368E-19,1.,-3.97179730990756E-19));
#431=DIRECTION('center_axis',(0.,-1.,0.));
#432=DIRECTION('ref_axis',(0.,-3.97179730990756E-19,-1.));
#433=DIRECTION('center_axis',(5.03061698123113E-19,1.,-3.99366162066882E-24));
#434=DIRECTION('ref_axis',(0.,-3.99366162066882E-24,-1.));
#435=DIRECTION('center_axis',(0.,1.,0.));
#436=DIRECTION('ref_axis',(0.,-3.99366162066882E-24,-1.));
#437=DIRECTION('',(5.03061698123113E-19,1.,-3.99366162066882E-24));
#438=DIRECTION('center_axis',(0.,-1.,0.));
#439=DIRECTION('ref_axis',(0.,-3.99366162066882E-24,-1.));
#440=DIRECTION('center_axis',(1.3918469423733E-19,1.,-2.60922243824991E-19));
#441=DIRECTION('ref_axis',(0.,-2.60922243824991E-19,-1.));
#442=DIRECTION('center_axis',(0.,1.,0.));
#443=DIRECTION('ref_axis',(0.,-2.60922243824991E-19,-1.));
#444=DIRECTION('',(1.3918469423733E-19,1.,-2.60922243824991E-19));
#445=DIRECTION('center_axis',(0.,-1.,0.));
#446=DIRECTION('ref_axis',(0.,-2.60922243824991E-19,-1.));
#447=DIRECTION('center_axis',(-2.0627832119918E-8,-1.,8.66257766124006E-10));
#448=DIRECTION('ref_axis',(0.,-8.66257766124007E-10,-1.));
#449=DIRECTION('center_axis',(0.,1.,0.));
#450=DIRECTION('ref_axis',(1.08105797178027E-9,0.,-1.));
#451=DIRECTION('',(-2.05995624080425E-8,-0.998629535753582,0.0523359371807228));
#452=DIRECTION('center_axis',(0.,-1.,0.));
#453=DIRECTION('ref_axis',(1.08106041812402E-9,0.,-1.));
#454=DIRECTION('center_axis',(0.,-1.,0.));
#455=DIRECTION('ref_axis',(-1.,0.,0.));
#456=DIRECTION('center_axis',(0.,-1.,0.));
#457=DIRECTION('ref_axis',(-1.,0.,0.));
#458=DIRECTION('',(0.,-1.,0.));
#459=DIRECTION('center_axis',(0.,1.,0.));
#460=DIRECTION('ref_axis',(-1.,0.,0.));
#461=DIRECTION('',(0.,1.,0.));
#462=DIRECTION('center_axis',(0.,-1.,0.));
#463=DIRECTION('ref_axis',(0.,0.,-1.));
#464=DIRECTION('',(0.,-1.,0.));
#465=DIRECTION('center_axis',(0.,1.,0.));
#466=DIRECTION('ref_axis',(0.,0.,-1.));
#467=DIRECTION('',(0.,1.,0.));
#468=DIRECTION('center_axis',(0.,-1.,0.));
#469=DIRECTION('ref_axis',(0.,0.,-1.));
#470=DIRECTION('center_axis',(0.,-1.,0.));
#471=DIRECTION('ref_axis',(1.,0.,0.));
#472=DIRECTION('',(0.,-1.,0.));
#473=DIRECTION('center_axis',(0.,1.,0.));
#474=DIRECTION('ref_axis',(1.,0.,0.));
#475=DIRECTION('',(0.,1.,0.));
#476=DIRECTION('center_axis',(0.,-1.,0.));
#477=DIRECTION('ref_axis',(1.,0.,0.));
#478=DIRECTION('center_axis',(0.,-1.,0.));
#479=DIRECTION('ref_axis',(1.,0.,0.));
#480=DIRECTION('center_axis',(0.,-1.,0.));
#481=DIRECTION('ref_axis',(1.,0.,0.));
#482=DIRECTION('',(0.,-1.,0.));
#483=DIRECTION('center_axis',(0.,1.,0.));
#484=DIRECTION('ref_axis',(1.,0.,0.));
#485=DIRECTION('',(0.,1.,0.));
#486=DIRECTION('center_axis',(0.,0.,1.));
#487=DIRECTION('ref_axis',(1.,0.,0.));
#488=DIRECTION('',(-1.,0.,0.));
#489=DIRECTION('',(1.,0.,0.));
#490=DIRECTION('center_axis',(1.,0.,0.));
#491=DIRECTION('ref_axis',(0.,0.,-1.));
#492=DIRECTION('',(0.,0.,-1.));
#493=DIRECTION('',(0.,0.,1.));
#494=DIRECTION('center_axis',(0.,-1.,0.));
#495=DIRECTION('ref_axis',(0.,0.,-1.));
#496=DIRECTION('',(0.,0.,1.));
#497=DIRECTION('',(1.,0.,0.));
#498=DIRECTION('center_axis',(0.,1.,0.));
#499=DIRECTION('ref_axis',(0.,0.,1.));
#500=DIRECTION('',(-1.,0.,0.));
#501=DIRECTION('',(0.,0.,-1.));
#502=DIRECTION('center_axis',(0.,0.,1.));
#503=DIRECTION('ref_axis',(1.,0.,0.));
#504=DIRECTION('center_axis',(1.,0.,0.));
#505=DIRECTION('ref_axis',(0.,0.,-1.));
#506=DIRECTION('center_axis',(0.,1.,0.));
#507=DIRECTION('ref_axis',(0.,0.,1.));
#508=DIRECTION('center_axis',(0.,-1.,0.));
#509=DIRECTION('ref_axis',(0.,0.,-1.));
#510=CARTESIAN_POINT('',(0.,0.,0.));
#511=CARTESIAN_POINT('Origin',(7.99999991726214,0.999998582486152,7.49999998044138));
#512=CARTESIAN_POINT('',(7.99999992613313,2.99999956498778,8.29518438278945));
#513=CARTESIAN_POINT('Origin',(7.99999992594828,2.99999956041574,7.49999997875225));
#514=CARTESIAN_POINT('',(7.99999991726215,0.999999228968079,8.40000001737444));
#515=CARTESIAN_POINT('',(7.99999991726214,0.999998583262439,8.40000005121446));
#516=CARTESIAN_POINT('Origin',(7.99999991705294,0.999999232590199,7.49999998048207));
#517=CARTESIAN_POINT('Origin',(-8.00000009371213,0.999999232590199,-22.5000001317327));
#518=CARTESIAN_POINT('',(-8.00000009371213,0.,-21.4000000614861));
#519=CARTESIAN_POINT('Origin',(-8.00000009371213,0.,-22.5000001317327));
#520=CARTESIAN_POINT('',(-8.00000009371213,0.999999232590199,-21.4000000614861));
#521=CARTESIAN_POINT('',(-8.00000009371213,0.999999232590199,-21.4000000614861));
#522=CARTESIAN_POINT('Origin',(-8.00000009371213,0.999999232590199,-22.5000001317327));
#523=CARTESIAN_POINT('Origin',(7.99999976435719,0.999999232590199,-22.5000001317327));
#524=CARTESIAN_POINT('',(7.99999976435719,0.,-21.4000001555018));
#525=CARTESIAN_POINT('Origin',(7.99999976435719,0.,-22.5000001317327));
#526=CARTESIAN_POINT('',(7.99999976435719,0.999999232590199,-21.4000001555018));
#527=CARTESIAN_POINT('',(7.99999976435719,0.999999232590199,-21.4000001555018));
#528=CARTESIAN_POINT('Origin',(7.99999976435719,0.999999232590199,-22.5000001317327));
#529=CARTESIAN_POINT('Origin',(-9.00000010581778,0.999999232590199,12.499999912158));
#530=CARTESIAN_POINT('',(-9.00000010581778,0.,13.5999999165802));
#531=CARTESIAN_POINT('Origin',(-9.00000010581778,0.,12.499999912158));
#532=CARTESIAN_POINT('',(-9.00000010581778,0.999999232590199,13.5999999165802));
#533=CARTESIAN_POINT('',(-9.00000010581778,0.999999232590199,13.5999999165802));
#534=CARTESIAN_POINT('Origin',(-9.00000010581778,0.999999232590199,12.499999912158));
#535=CARTESIAN_POINT('Origin',(0.,0.999999232590199,-3.99365855589375E-24));
#536=CARTESIAN_POINT('',(1.16291139675135E-15,0.,9.49999999080087));
#537=CARTESIAN_POINT('Origin',(0.,0.,0.));
#538=CARTESIAN_POINT('',(1.16341445806342E-15,0.999999232590199,9.49999999080087));
#539=CARTESIAN_POINT('',(1.16341445806342E-15,0.999999232590199,9.49999999080087));
#540=CARTESIAN_POINT('Origin',(0.,0.999999232590199,-3.99365855589375E-24));
#541=CARTESIAN_POINT('Origin',(8.99999966462768,0.999999232590199,12.499999912158));
#542=CARTESIAN_POINT('',(8.99999966462768,0.,13.5999998825873));
#543=CARTESIAN_POINT('Origin',(8.99999966462768,0.,12.499999912158));
#544=CARTESIAN_POINT('',(8.99999966462768,0.999999232590199,13.5999998825873));
#545=CARTESIAN_POINT('',(8.99999966462768,0.999999232590199,13.5999998825873));
#546=CARTESIAN_POINT('Origin',(8.99999966462768,0.999999232590199,12.499999912158));
#547=CARTESIAN_POINT('Origin',(-8.00000010423282,1.00000020799528,7.49999998044495));
#548=CARTESIAN_POINT('',(-8.00000006297717,2.99999957786818,8.29518442329077));
#549=CARTESIAN_POINT('Origin',(-8.00000006383681,2.99999956041574,7.49999997874854));
#550=CARTESIAN_POINT('',(-8.00000010423284,0.999999214396566,8.39999996262397));
#551=CARTESIAN_POINT('',(-8.00000010423282,1.00000020877491,8.39999991051083));
#552=CARTESIAN_POINT('Origin',(-8.0000001052058,0.999999232590199,7.49999998048581));
#553=CARTESIAN_POINT('Origin',(-9.00000061253034,0.999999232590199,13.0000002682209));
#554=CARTESIAN_POINT('',(-9.00000061253034,0.,15.4999997466803));
#555=CARTESIAN_POINT('',(-11.5000000909897,0.,13.0000002682209));
#556=CARTESIAN_POINT('Origin',(-9.00000061253034,0.,13.0000002682209));
#557=CARTESIAN_POINT('',(-9.00000061253034,0.999999232590199,15.4999997466803));
#558=CARTESIAN_POINT('',(-9.00000061253034,0.999999232590199,15.4999997466803));
#559=CARTESIAN_POINT('',(-11.5000000909897,0.999999232590199,13.0000002682209));
#560=CARTESIAN_POINT('Origin',(-9.00000061253034,0.999999232590199,13.0000002682209));
#561=CARTESIAN_POINT('',(-11.5000000909897,0.999999232590199,13.0000002682209));
#562=CARTESIAN_POINT('Origin',(-8.99999968120776,0.999999232590199,-21.9999989494681));
#563=CARTESIAN_POINT('',(-11.5000000909897,0.999999232590199,-21.9999989494681));
#564=CARTESIAN_POINT('',(-11.5000000909897,0.,-21.9999989494681));
#565=CARTESIAN_POINT('',(-11.5000000909897,0.999999232590199,-21.9999989494681));
#566=CARTESIAN_POINT('',(-8.99999968120776,0.999999232590199,-24.4999993592501));
#567=CARTESIAN_POINT('Origin',(-8.99999968120776,0.999999232590199,-21.9999989494681));
#568=CARTESIAN_POINT('',(-8.99999968120776,0.,-24.4999993592501));
#569=CARTESIAN_POINT('',(-8.99999968120776,0.999999232590199,-24.4999993592501));
#570=CARTESIAN_POINT('Origin',(-8.99999968120776,0.,-21.9999989494681));
#571=CARTESIAN_POINT('Origin',(8.99999954393186,0.999999232590199,-21.9999998807907));
#572=CARTESIAN_POINT('',(8.99999954393186,0.999999232590199,-24.4999993592501));
#573=CARTESIAN_POINT('',(8.99999954393186,0.,-24.4999993592501));
#574=CARTESIAN_POINT('',(8.99999954393186,0.999999232590199,-24.4999993592501));
#575=CARTESIAN_POINT('',(11.4999990223912,0.999999232590199,-21.9999998807907));
#576=CARTESIAN_POINT('Origin',(8.99999954393186,0.999999232590199,-21.9999998807907));
#577=CARTESIAN_POINT('',(11.4999990223912,0.,-21.9999998807907));
#578=CARTESIAN_POINT('',(11.4999990223912,0.999999232590199,-21.9999998807907));
#579=CARTESIAN_POINT('Origin',(8.99999954393186,0.,-21.9999998807907));
#580=CARTESIAN_POINT('Origin',(8.99999954393186,0.999999232590199,13.0000002682209));
#581=CARTESIAN_POINT('',(11.4999990223912,0.,13.0000002682209));
#582=CARTESIAN_POINT('',(8.99999954393186,0.,15.4999997466803));
#583=CARTESIAN_POINT('Origin',(8.99999954393186,0.,13.0000002682209));
#584=CARTESIAN_POINT('',(11.4999990223912,0.999999232590199,13.0000002682209));
#585=CARTESIAN_POINT('',(11.4999990223912,0.999999232590199,13.0000002682209));
#586=CARTESIAN_POINT('',(8.99999954393186,0.999999232590199,15.4999997466803));
#587=CARTESIAN_POINT('Origin',(8.99999954393186,0.999999232590199,13.0000002682209));
#588=CARTESIAN_POINT('',(8.99999954393186,0.999999232590199,15.4999997466803));
#589=CARTESIAN_POINT('Origin',(-1.00000009950465,0.571428132908685,15.4999997466803));
#590=CARTESIAN_POINT('',(-0.50000010888545,0.,15.4999997466803));
#591=CARTESIAN_POINT('',(-0.469756211429144,0.999999232590199,15.4999997466803));
#592=CARTESIAN_POINT('Origin',(-11.5000000909897,0.666666155060134,-3.43888880322791));
#593=CARTESIAN_POINT('',(-11.5000000909897,0.,-3.80260770564451));
#594=CARTESIAN_POINT('',(-11.5000000909897,0.999999232590199,-2.3876964626329));
#595=CARTESIAN_POINT('Origin',(0.0604876766463547,0.999999232590199,-1.33650412203789));
#596=CARTESIAN_POINT('',(11.4999990223912,0.999999232590199,-2.3876964626329));
#597=CARTESIAN_POINT('',(-0.469756211429144,0.999999232590199,-24.4999993592501));
#598=CARTESIAN_POINT('Origin',(-1.18266254567345E-7,0.,-4.16632660806111));
#599=CARTESIAN_POINT('',(-0.50000010888545,0.,-24.4999993592501));
#600=CARTESIAN_POINT('',(11.4999990223912,0.,-3.80260770564451));
#601=CARTESIAN_POINT('Origin',(-1.00000009950465,0.571428132908685,-24.4999993592501));
#602=CARTESIAN_POINT('Origin',(11.4999990223912,0.666666155060134,-3.43888880322791));
#603=CARTESIAN_POINT('Origin',(-8.0000000786401,2.99999956041574,7.49999998545606));
#604=CARTESIAN_POINT('Origin',(7.99999991584851,2.99999956041574,7.49999998545606));
#605=UNCERTAINTY_MEASURE_WITH_UNIT(LENGTH_MEASURE(0.01),#609,
'DISTANCE_ACCURACY_VALUE',
'Maximum model space distance between geometric entities at asserted c
onnectivities');
#606=UNCERTAINTY_MEASURE_WITH_UNIT(LENGTH_MEASURE(0.01),#609,
'DISTANCE_ACCURACY_VALUE',
'Maximum model space distance between geometric entities at asserted c
onnectivities');
#607=(
GEOMETRIC_REPRESENTATION_CONTEXT(3)
GLOBAL_UNCERTAINTY_ASSIGNED_CONTEXT((#605))
GLOBAL_UNIT_ASSIGNED_CONTEXT((#609,#611,#612))
REPRESENTATION_CONTEXT('','3D')
);
#608=(
GEOMETRIC_REPRESENTATION_CONTEXT(3)
GLOBAL_UNCERTAINTY_ASSIGNED_CONTEXT((#606))
GLOBAL_UNIT_ASSIGNED_CONTEXT((#609,#611,#612))
REPRESENTATION_CONTEXT('','3D')
);
#609=(
LENGTH_UNIT()
NAMED_UNIT(*)
SI_UNIT(.MILLI.,.METRE.)
);
#610=(
LENGTH_UNIT()
NAMED_UNIT(*)
SI_UNIT($,.METRE.)
);
#611=(
NAMED_UNIT(*)
PLANE_ANGLE_UNIT()
SI_UNIT($,.RADIAN.)
);
#612=(
NAMED_UNIT(*)
SI_UNIT($,.STERADIAN.)
SOLID_ANGLE_UNIT()
);
#613=SHAPE_DEFINITION_REPRESENTATION(#614,#615);
#614=PRODUCT_DEFINITION_SHAPE('',$,#617);
#615=SHAPE_REPRESENTATION('',(#361),#607);
#616=PRODUCT_DEFINITION_CONTEXT('part definition',#621,'design');
#617=PRODUCT_DEFINITION('2026-08-29-07-15-58-171','bearing_roll',#618,#616);
#618=PRODUCT_DEFINITION_FORMATION('',$,#623);
#619=PRODUCT_RELATED_PRODUCT_CATEGORY('bearing_roll','bearing_roll',(#623));
#620=APPLICATION_PROTOCOL_DEFINITION('international standard',
'automotive_design',2009,#621);
#621=APPLICATION_CONTEXT(
'Core Data for Automotive Mechanical Design Process');
#622=PRODUCT_CONTEXT('part definition',#621,'mechanical');
#623=PRODUCT('2026-08-29-07-15-58-171','bearing_roll',$,(#622));
#624=PRESENTATION_STYLE_ASSIGNMENT((#625));
#625=SURFACE_STYLE_USAGE(.BOTH.,#626);
#626=SURFACE_SIDE_STYLE('',(#627));
#627=SURFACE_STYLE_FILL_AREA(#628);
#628=FILL_AREA_STYLE('Steel - Satin',(#629));
#629=FILL_AREA_STYLE_COLOUR('Steel - Satin',#630);
#630=COLOUR_RGB('Steel - Satin',0.627450980392157,0.627450980392157,0.627450980392157);
ENDSEC;
END-ISO-10303-21;
